<svg width="41" height="40" viewBox="0 0 41 40" fill="none" xmlns="http://www.w3.org/2000/svg">
<g clip-path="url(#clip0_1990_14015)">
<path d="M0.450195 0H40.4502V21.5932L38.4703 24.6868L40.4502 27.4401V40H0.450195V19.6442L1.68763 18.2212L0.450195 16.86V0Z" fill="#016FD0"/>
<path d="M8.21509 27.8727V21.5928H14.8644L15.5778 22.5228L16.3148 21.5928H40.4502V27.4396C40.4502 27.4396 39.819 27.8665 39.089 27.8727H25.7248L24.9204 26.8828V27.8727H22.2847V26.1829C22.2847 26.1829 21.9246 26.4188 21.1463 26.4188H20.2491V27.8727H16.2584L15.546 26.9228L14.8227 27.8727H8.21509Z" fill="white"/>
<path d="M0.450195 16.86L1.94964 13.3643H4.54278L5.39374 15.3224V13.3643H8.61725L9.12382 14.7796L9.61493 13.3643H24.0851V14.0758C24.0851 14.0758 24.8458 13.3643 26.096 13.3643L30.791 13.3807L31.6273 15.3132V13.3643H34.3249L35.0674 14.4743V13.3643H37.7897V19.6442H35.0674L34.3558 18.5305V19.6442H30.3925L29.9939 18.6543H28.9284L28.5363 19.6442H25.8485C24.7728 19.6442 24.0851 18.9472 24.0851 18.9472V19.6442H20.0326L19.2282 18.6543V19.6442H4.15862L3.76033 18.6543H2.69823L2.30275 19.6442H0.450195V16.86Z" fill="white"/>
<path d="M2.48038 14.1382L0.457947 18.8404H1.77465L2.14782 17.8988H4.31719L4.68842 18.8404H6.03413L4.01363 14.1382H2.48038ZM3.22863 15.2325L3.88989 16.8779H2.56545L3.22863 15.2325Z" fill="#016FD0"/>
<path d="M6.17334 18.8399V14.1377L8.04445 14.1446L9.13275 17.1764L10.195 14.1377H12.0511V18.8399H10.8756V15.3751L9.62946 18.8399H8.59849L7.3489 15.3751V18.8399H6.17334Z" fill="#016FD0"/>
<path d="M12.8555 18.8399V14.1377H16.6915V15.1895H14.0434V15.9938H16.6296V16.9838H14.0434V17.8191H16.6915V18.8399H12.8555Z" fill="#016FD0"/>
<path d="M17.3721 14.1382V18.8404H18.5476V17.1699H19.0426L20.4521 18.8404H21.8887L20.3419 17.108C20.9767 17.0545 21.6315 16.5096 21.6315 15.6637C21.6315 14.6742 20.8549 14.1382 19.9881 14.1382H17.3721ZM18.5476 15.19H19.8914C20.2138 15.19 20.4482 15.4422 20.4482 15.685C20.4482 15.9974 20.1444 16.1799 19.9088 16.1799H18.5476V15.19Z" fill="#016FD0"/>
<path d="M23.3118 18.8399H22.1115V14.1377H23.3118V18.8399Z" fill="#016FD0"/>
<path d="M26.1578 18.8399H25.8987C24.6451 18.8399 23.884 17.8523 23.884 16.5082C23.884 15.1308 24.6366 14.1377 26.2197 14.1377H27.519V15.2514H26.1722C25.5295 15.2514 25.0751 15.7529 25.0751 16.5198C25.0751 17.4304 25.5947 17.8129 26.3434 17.8129H26.6528L26.1578 18.8399Z" fill="#016FD0"/>
<path d="M28.7158 14.1382L26.6934 18.8404H28.0101L28.3833 17.8988H30.5527L30.9239 18.8404H32.2696L30.2491 14.1382H28.7158ZM29.4641 15.2325L30.1254 16.8779H28.8009L29.4641 15.2325Z" fill="#016FD0"/>
<path d="M32.4069 18.8399V14.1377H33.9014L35.8098 17.0921V14.1377H36.9854V18.8399H35.5391L33.5824 15.8082V18.8399H32.4069Z" fill="#016FD0"/>
<path d="M9.01941 27.0685V22.3662H12.8554V23.418H10.2073V24.2224H12.7936V25.2123H10.2073V26.0476H12.8554V27.0685H9.01941Z" fill="#016FD0"/>
<path d="M27.816 27.0685V22.3662H31.652V23.418H29.0039V24.2224H31.5778V25.2123H29.0039V26.0476H31.652V27.0685H27.816Z" fill="#016FD0"/>
<path d="M13.0043 27.0685L14.8721 24.7463L12.9598 22.3662H14.4409L15.5797 23.8376L16.7224 22.3662H18.1455L16.2584 24.7173L18.1296 27.0685H16.6487L15.543 25.6203L14.4641 27.0685H13.0043Z" fill="#016FD0"/>
<path d="M18.2692 22.3672V27.0694H19.4757V25.5845H20.7132C21.7602 25.5845 22.5538 25.029 22.5538 23.9488C22.5538 23.0539 21.9314 22.3672 20.8659 22.3672H18.2692ZM19.4757 23.4306H20.7789C21.1172 23.4306 21.3589 23.6379 21.3589 23.972C21.3589 24.2858 21.1184 24.5134 20.775 24.5134H19.4757V23.4306Z" fill="#016FD0"/>
<path d="M23.0643 22.3662V27.0685H24.2398V25.3979H24.7348L26.1443 27.0685H27.5809L26.0341 25.3361C26.6689 25.2825 27.3237 24.7376 27.3237 23.8917C27.3237 22.9022 26.5471 22.3662 25.6803 22.3662H23.0643ZM24.2398 23.418H25.5836C25.906 23.418 26.1405 23.6702 26.1405 23.913C26.1405 24.2254 25.8366 24.408 25.601 24.408H24.2398V23.418Z" fill="#016FD0"/>
<path d="M32.1965 27.0685V26.0476H34.5492C34.8973 26.0476 35.048 25.8595 35.048 25.6531C35.048 25.4555 34.8978 25.2556 34.5492 25.2556H33.486C32.5619 25.2556 32.0472 24.6926 32.0472 23.8473C32.0472 23.0933 32.5186 22.3662 33.8918 22.3662H36.181L35.6861 23.4242H33.7062C33.3277 23.4242 33.2112 23.6228 33.2112 23.8125C33.2112 24.0074 33.3552 24.2224 33.6443 24.2224H34.758C35.7882 24.2224 36.2352 24.8067 36.2352 25.5719C36.2352 26.3946 35.7371 27.0685 34.7019 27.0685H32.1965Z" fill="#016FD0"/>
<path d="M36.5111 27.0685V26.0476H38.8637C39.2119 26.0476 39.3626 25.8595 39.3626 25.6531C39.3626 25.4555 39.2123 25.2556 38.8637 25.2556H37.8006C36.8765 25.2556 36.3618 24.6926 36.3618 23.8473C36.3618 23.0933 36.8331 22.3662 38.2064 22.3662H40.4956L40.0006 23.4242H38.0208C37.6423 23.4242 37.5258 23.6228 37.5258 23.8125C37.5258 24.0074 37.6697 24.2224 37.9589 24.2224H39.0726C40.1027 24.2224 40.5498 24.8067 40.5498 25.5719C40.5498 26.3946 40.0516 27.0685 39.0165 27.0685H36.5111Z" fill="#016FD0"/>
</g>
<defs>
<clipPath id="clip0_1990_14015">
<rect width="40.0996" height="40" fill="white" transform="translate(0.450195)"/>
</clipPath>
</defs>
</svg>
