<svg width="41" height="40" viewBox="0 0 41 40" fill="none" xmlns="http://www.w3.org/2000/svg">
<g clip-path="url(#clip0_1990_14035)">
<path fill-rule="evenodd" clip-rule="evenodd" d="M0.549805 0H40.5498V40H0.549805V0Z" fill="white"/>
<path fill-rule="evenodd" clip-rule="evenodd" d="M37.4703 10.8443C37.0876 9.416 36.4213 8.06382 35.5179 6.89924C34.6144 5.73445 33.4735 4.75747 32.2832 4.03427C31.0929 3.31108 29.853 2.84209 28.9608 2.60033C28.0691 2.35858 27.5385 2.46275 27.0021 2.46275H14.1527C13.8036 2.46275 13.4561 2.46296 12.5635 2.68459C11.671 2.90621 10.2352 3.31668 8.95047 4.01933C7.66594 4.72198 6.5327 5.7166 5.6329 6.89011C4.73108 8.06805 4.06899 9.4114 3.68412 10.8441C3.3011 12.2774 3.20282 13.7718 3.39484 15.2428C3.58883 16.7137 4.06982 18.1322 4.81052 19.4177C5.5499 20.6982 6.54452 21.8315 7.72259 22.7089C8.90066 23.5862 10.262 24.208 11.3633 24.5937C12.4645 24.9793 13.3058 25.1287 14.1523 25.1287H27.0015C27.8477 25.1287 28.6892 24.9793 29.7903 24.5937C30.8916 24.208 32.2529 23.5865 33.4312 22.7089C34.609 21.8313 35.6036 20.6982 36.3432 19.4177C37.0839 18.1322 37.5649 16.7137 37.7589 15.2428C37.9515 13.7719 37.8535 12.2775 37.4703 10.8443ZM24.9751 16.5494C24.609 17.9121 23.9793 19.1899 23.1215 20.3104C22.2622 21.4298 21.1913 22.3695 19.9698 23.0762C18.7471 23.7807 17.3978 24.2382 15.9988 24.4227C14.5995 24.6054 13.1781 24.5119 11.8148 24.1476C10.4521 23.7815 9.17436 23.1517 8.054 22.2938C6.93462 21.4345 5.99497 20.3636 5.28843 19.1421C4.58379 17.9194 4.12626 16.5701 3.94186 15.171C3.75862 13.7763 3.85283 12.3455 4.21702 10.9869C4.58121 9.62829 5.21476 8.34231 6.07056 7.22608C6.92987 6.10664 8.00073 5.16692 9.22231 4.4603C10.445 3.75569 11.7941 3.2981 13.1931 3.11352C14.5924 2.93085 16.0138 3.02434 17.3771 3.38869C18.7399 3.7548 20.0177 4.3846 21.1381 5.24243C22.2543 6.09843 23.2006 7.17607 23.9039 8.39419C24.6072 9.61231 25.067 10.9707 25.2502 12.3654C25.4335 13.7601 25.3391 15.1908 24.9751 16.5494Z" fill="#383E93"/>
<path fill-rule="evenodd" clip-rule="evenodd" d="M10.3672 9.85162C9.8877 10.3777 9.50962 10.9879 9.25201 11.6514C8.99472 12.3152 8.86246 13.0209 8.86188 13.7328C8.86188 14.4425 8.99531 15.1522 9.25201 15.8142C9.50871 16.4759 9.88867 17.0898 10.3672 17.614C10.8457 18.1382 11.4224 18.5723 12.0572 18.8898V8.57581C11.4206 8.89422 10.8478 9.32664 10.3672 9.85162ZM18.848 9.82153C18.359 9.29492 17.7767 8.86342 17.1306 8.54883V18.9168C17.7766 18.6021 18.3589 18.1706 18.848 17.6441C19.3359 17.1164 19.721 16.5023 19.9835 15.8333C20.2456 15.164 20.3804 14.4516 20.3811 13.7328C20.3811 13.016 20.2452 12.2997 19.9835 11.6323C19.721 10.9633 19.3359 10.3492 18.848 9.82153Z" fill="#383E93"/>
<path fill-rule="evenodd" clip-rule="evenodd" d="M9.56473 28.4557C9.27359 28.1183 8.83822 27.9965 8.42132 27.9965H7.28102V31.6365H8.42132C8.86291 31.6365 9.31239 31.4463 9.60125 31.1128C9.89012 30.7791 10.0184 30.3016 10.0099 29.805C10.0013 29.3084 9.85588 28.793 9.56473 28.4557ZM9.05735 30.572C8.89591 30.7575 8.64461 30.8625 8.39787 30.8625H8.07207V28.8405H8.39787C8.63091 28.8405 8.87412 28.9077 9.03702 29.0953C9.19992 29.2825 9.28126 29.5693 9.28604 29.8451C9.29081 30.1211 9.2188 30.3867 9.05735 30.572ZM11.2298 31.6365V27.9965H10.4556V31.6365H11.2298ZM13.8068 30.2879V27.9965H14.581V31.6365H13.7186L12.5704 29.3798V31.6365H11.7962V27.9965H12.641L13.8068 30.2879ZM16.937 30.8542L16.9403 31.6419H15.0529V28.0083H16.9403L16.937 28.7712H15.8334V29.4253H16.937V30.1997L15.8334 30.1995V30.8542H16.937ZM18.2144 31.6365H17.4755L17.4721 27.9965H18.7361C18.9167 27.9965 19.0982 28.0353 19.2811 28.1494C19.4639 28.2636 19.6482 28.4443 19.7384 28.69C19.8287 28.9359 19.8252 29.247 19.7714 29.4867C19.7177 29.7264 19.6137 29.8951 19.4863 30.0318C19.3627 30.1658 19.2112 30.2712 19.0426 30.3406L19.9426 31.6395H19.1331L18.3686 30.5479L18.2142 30.5448L18.2144 31.6365ZM18.2144 29.6369H18.7216C18.8434 29.6369 18.9629 29.5614 19.0225 29.4228C19.0823 29.2839 19.082 29.0791 19.0227 28.9393C18.9631 28.7992 18.8446 28.718 18.7216 28.718H18.2144V29.6369ZM21.9669 29.0841C21.9877 28.8324 21.9373 28.5697 21.8356 28.3746C21.7335 28.1795 21.5799 28.0519 21.3763 27.9859C21.173 27.9203 20.92 27.9158 20.6976 27.9996C20.4706 28.0864 20.2846 28.2553 20.1763 28.4728C20.0692 28.6902 20.0464 28.9529 20.0756 29.174C20.1051 29.3948 20.1864 29.574 20.3201 29.7239C20.4537 29.8741 20.6393 29.9953 20.826 30.07C21.0132 30.1447 21.2018 30.1734 21.3299 30.257C21.4575 30.3406 21.5247 30.4794 21.4855 30.6166C21.4463 30.7536 21.2998 30.8891 21.1352 30.9156C20.9707 30.9424 20.787 30.86 20.6812 30.7668C20.5758 30.6739 20.5479 30.5699 20.5733 30.4772H19.9561C19.9372 30.6809 19.9744 30.8918 20.0619 31.0669C20.1489 31.2372 20.2817 31.3798 20.4454 31.4786C20.6031 31.5753 20.7804 31.6293 20.9721 31.6405C21.1639 31.6517 21.3693 31.6202 21.5359 31.5631C21.7021 31.5058 21.8289 31.4224 21.9485 31.2549C22.068 31.0875 22.1803 30.8355 22.1823 30.5637C22.1848 30.2918 22.0765 29.9999 21.8995 29.8048C21.7221 29.6097 21.4755 29.5112 21.2786 29.439C21.0817 29.3667 20.9341 29.3211 20.836 29.2412C20.7382 29.1613 20.6897 29.0474 20.7071 28.9446C20.7245 28.8419 20.808 28.7502 20.8984 28.7066C20.9889 28.663 21.086 28.667 21.157 28.6921C21.228 28.717 21.2722 28.7631 21.3004 28.8328C21.3292 28.9023 21.3413 28.9953 21.3315 29.0839H21.9669V29.0841ZM27.0567 29.0841H26.2266C26.1423 28.974 26.0381 28.8806 25.9195 28.8087C25.8039 28.7389 25.6756 28.6926 25.5421 28.6724C25.4086 28.6523 25.2724 28.6586 25.1413 28.6911C25.009 28.7243 24.8844 28.7829 24.7744 28.8637C24.6614 28.9474 24.5651 29.0514 24.4903 29.1704C24.3376 29.4116 24.2795 29.7176 24.3305 30.0038C24.3557 30.1472 24.4067 30.285 24.4802 30.4074C24.5536 30.5299 24.6487 30.6365 24.7587 30.7206C24.9746 30.8877 25.2481 30.9622 25.519 30.9279C25.6533 30.9105 25.7829 30.8669 25.9004 30.7994C26.02 30.7302 26.1255 30.6391 26.2113 30.5307H27.0469C26.9617 30.7446 26.839 30.9416 26.6846 31.1124C26.5342 31.2786 26.3539 31.4151 26.1532 31.5149C25.7583 31.7113 25.3031 31.7483 24.8817 31.6183C24.6701 31.5523 24.4728 31.447 24.3 31.308C24.1224 31.1647 23.9724 30.99 23.8574 30.7928C23.624 30.3962 23.5356 29.8986 23.6215 29.4346C23.6632 29.2056 23.7458 28.986 23.8655 28.7863C23.983 28.5908 24.135 28.4182 24.3142 28.2771C24.6756 27.9932 25.122 27.8695 25.5451 27.9098C25.7616 27.9297 25.9747 27.9913 26.1718 28.0915C26.369 28.1918 26.5491 28.3308 26.7004 28.5004C26.8517 28.6699 26.9733 28.8695 27.0567 29.0841ZM29.1275 30.848V31.6419H27.4346V27.9731H28.1223L28.1269 30.8542L29.1275 30.848ZM29.4452 30.2483V28.0436H30.1329L30.1373 30.3425C30.1373 30.5332 30.2462 30.732 30.3979 30.827C30.5498 30.9221 30.7509 30.9131 30.9078 30.8156C31.0647 30.7183 31.2041 30.5346 31.2045 30.3425L31.2087 28.0436H31.8964V30.2132C31.8964 30.6847 31.763 31.2136 31.3492 31.4803C30.9354 31.7467 30.3099 31.7463 29.9127 31.4817C29.5153 31.2172 29.4452 30.6992 29.4452 30.2483ZM34.482 30.2615C34.4204 29.96 34.2231 29.7421 33.9778 29.6485C34.1245 29.5606 34.2287 29.4107 34.2691 29.1767C34.3092 28.9426 34.2857 28.624 34.133 28.3875C33.9807 28.1511 33.6997 27.9731 33.4135 27.9731H32.3552V31.6065H33.4135C33.7333 31.6065 34.0645 31.4747 34.267 31.2113C34.4696 30.948 34.5439 30.5629 34.482 30.2615ZM33.0647 28.7351H33.3666C33.4509 28.7351 33.5453 28.7519 33.5937 28.8448C33.6418 28.9376 33.6418 29.0876 33.5932 29.1793C33.5447 29.2711 33.4505 29.2833 33.3666 29.2833H33.0647V28.7351ZM33.746 30.6558C33.6877 30.7681 33.5746 30.7839 33.4737 30.7839L33.0651 30.7837V30.1117H33.4737C33.5754 30.1117 33.6885 30.1333 33.7464 30.2468C33.8043 30.3603 33.8043 30.5436 33.746 30.6558ZM4.84519 36.2227V32.5828H4.07074V36.2227H4.84519ZM7.49268 34.8742V32.5828H8.26693V36.2227H7.40428L6.2563 33.9659V36.2227H5.48185V32.5828H6.32665L7.49268 34.8742ZM8.50951 33.2645V32.5766H10.3437V33.2645H9.81894V36.2227H9.0447V33.2645H8.50951ZM12.5276 35.4401L12.5308 36.2278H10.6436V32.5942H12.5308L12.5276 33.3571H11.4239V34.0114H12.5276V34.7858H11.4239V35.4401H12.5276ZM13.7875 36.2227H13.0485L13.045 32.5826H14.3092C14.4897 32.5826 14.6713 32.6214 14.8541 32.7356C15.0369 32.8497 15.2212 33.0304 15.3115 33.2763C15.4017 33.522 15.3982 33.8331 15.3445 34.0728C15.2907 34.3125 15.1868 34.4812 15.0593 34.6179C14.9358 34.752 14.7843 34.8574 14.6157 34.9267L15.5157 36.2256H14.7062L13.9417 35.134L13.7873 35.1309L13.7875 36.2227ZM13.7875 34.223H14.2946C14.4165 34.223 14.536 34.1475 14.5955 34.0089C14.6551 33.87 14.6551 33.6652 14.5955 33.5254C14.5362 33.3853 14.4175 33.3041 14.2944 33.3041H13.7873L13.7875 34.223ZM17.7222 34.8742V32.5828H18.4964V36.2227H17.6342L16.4858 33.9659V36.2227H15.7116V32.5828H16.5566L17.7222 34.8742ZM19.9051 35.2224L19.59 36.2225H18.8158L19.9621 32.5826H20.7968L21.9429 36.2225H21.1688L20.8538 35.2224H19.9051ZM20.3794 33.7165L20.1385 34.4818H20.6204L20.3794 33.7165ZM22.0728 33.2645V32.5766H23.9072V33.2645H23.3822V36.2227H22.6077V33.2645H22.0728ZM25.093 36.2227V32.5828H24.3185V36.2227H25.093ZM29.1084 33.7526C29.048 33.5584 28.9575 33.3718 28.8405 33.2047C28.7235 33.0377 28.5803 32.8904 28.4213 32.7721C27.9272 32.4116 27.3655 32.3311 26.8174 32.5054C26.6338 32.5663 26.4613 32.6563 26.3063 32.7721C26.1444 32.8931 26.0028 33.0392 25.8869 33.2047C25.6531 33.5412 25.5283 33.9414 25.5294 34.3511C25.5294 34.5542 25.5595 34.7588 25.6194 34.9552C25.6797 35.1519 25.7699 35.3381 25.8869 35.5073C26.0025 35.6734 26.1437 35.8202 26.3053 35.9421C26.799 36.3042 27.3619 36.3851 27.911 36.21C28.0948 36.1488 28.2676 36.0583 28.4226 35.9421C28.584 35.8202 28.725 35.6734 28.8405 35.5073C29.0808 35.1629 29.1993 34.7476 29.198 34.3511C29.198 34.1483 29.1684 33.9466 29.1084 33.7526ZM28.2472 35.0479C28.1781 35.1474 28.0937 35.2353 27.9972 35.3085C27.9046 35.3785 27.8012 35.4328 27.6911 35.4694C27.3628 35.5746 27.026 35.5258 26.7309 35.3085C26.6342 35.2356 26.5498 35.1476 26.4808 35.0479C26.4106 34.9464 26.3566 34.8346 26.3208 34.7165C26.2142 34.3521 26.2638 33.9848 26.4808 33.6663C26.551 33.566 26.6365 33.4776 26.7313 33.4065C26.824 33.3369 26.9274 33.2829 27.0374 33.2465C27.3648 33.1419 27.7008 33.1902 27.9963 33.4065C28.0912 33.4776 28.1771 33.566 28.2472 33.6663C28.3169 33.7663 28.3713 33.8781 28.4072 33.9948C28.5155 34.3573 28.4607 34.7337 28.2472 35.0479ZM31.5853 34.8742V32.5828H32.3598V36.2227H31.4973L30.3491 33.9659V36.2227H29.5745V32.5828H30.4195L31.5853 34.8742ZM33.8209 35.2224L33.5059 36.2225H32.7318L33.878 32.5826H34.7124L35.8589 36.2225H35.0845L34.7694 35.2224H33.8209ZM34.2955 33.7165L34.0543 34.4818H34.5362L34.2955 33.7165ZM37.8934 36.2278V35.5399H37.0864L37.082 32.5766H36.3063V36.2278H37.8934Z" fill="black"/>
</g>
<defs>
<clipPath id="clip0_1990_14035">
<rect width="40" height="40" fill="white" transform="translate(0.549805)"/>
</clipPath>
</defs>
</svg>
