<svg width="41" height="26" viewBox="0 0 41 26" fill="none" xmlns="http://www.w3.org/2000/svg">
<g clip-path="url(#clip0_1990_14042)">
<path d="M2.60109 0.179688H38.4985C39.6314 0.179688 40.5498 1.0981 40.5498 2.23097V23.7694C40.5498 24.9024 39.6314 25.8207 38.4985 25.8207H2.60109C1.46821 25.8207 0.549805 24.9024 0.549805 23.7694V2.23097C0.549805 1.0981 1.46821 0.179688 2.60109 0.179688Z" fill="#0E4C96"/>
<path d="M32.9724 18.7061C32.9724 20.8403 31.2427 22.5708 29.1077 22.5708H8.12671V7.29487C8.12671 5.1602 9.85661 3.42974 11.9916 3.42974L32.9721 3.42969L32.9721 18.7061L32.9724 18.7061Z" fill="white"/>
<path d="M26.1324 13.3358C26.7316 13.3488 27.3343 13.3093 27.9312 13.3563C28.5356 13.4691 28.6814 14.3842 28.1443 14.6839C27.7781 14.8814 27.3426 14.7574 26.9454 14.7923H26.1324L26.1324 13.3358ZM28.2777 11.6873C28.4108 12.1573 27.9578 12.5792 27.5051 12.5145H26.1324C26.1419 12.0713 26.1135 11.5904 26.1463 11.1705C26.6963 11.186 27.2514 11.1389 27.7981 11.1951C28.033 11.2541 28.2296 11.4472 28.2777 11.6873ZM31.5817 4.71811C31.6072 5.6156 31.5853 6.56052 31.5926 7.47621C31.5909 11.1991 31.5963 14.9219 31.5898 18.6449C31.5657 20.0402 30.3292 21.2523 28.9436 21.2802C27.5566 21.2859 26.1695 21.281 24.7825 21.2826V15.6544C26.2938 15.6465 27.806 15.6701 29.3167 15.6425C30.0176 15.5984 30.785 15.1361 30.8177 14.3648C30.9003 13.5903 30.1699 13.0545 29.4766 12.9699C29.21 12.963 29.2179 12.8922 29.4766 12.8613C30.1377 12.7184 30.6571 12.034 30.4625 11.3486C30.2966 10.6277 29.4999 10.3486 28.8371 10.35C27.4857 10.3408 26.134 10.3487 24.7826 10.3461C24.7914 9.29534 24.7644 8.2435 24.7973 7.19355C24.9043 5.8235 26.1719 4.6937 27.5381 4.71816L31.5817 4.71811Z" fill="url(#paint0_linear_1990_14042)"/>
<path d="M9.51081 7.33565C9.54537 5.94268 10.7872 4.74022 12.1711 4.71991C13.5528 4.71565 14.9347 4.71929 16.3166 4.71806C16.3128 9.37883 16.3241 14.0401 16.3108 18.7006C16.2576 20.0768 15.0293 21.2563 13.6606 21.2805C12.2762 21.2856 10.8916 21.2812 9.50717 21.2827V15.4647C10.8519 15.7824 12.2621 15.9177 13.634 15.7068C14.4541 15.5748 15.3513 15.1723 15.629 14.3215C15.8334 13.5938 15.7183 12.8279 15.7487 12.0809V10.3464H13.3744C13.3638 11.4935 13.3963 12.6427 13.3573 13.7887C13.2933 14.493 12.5959 14.9405 11.9316 14.9166C11.1077 14.9253 9.47532 14.3197 9.47532 14.3197C9.47122 12.1701 9.49922 9.47822 9.51081 7.33611V7.33565Z" fill="url(#paint1_linear_1990_14042)"/>
<path d="M17.2021 11.0457C17.0773 11.0723 17.177 10.6201 17.145 10.4485C17.1535 9.3639 17.1272 8.27811 17.1595 7.19426C17.2664 5.81842 18.5437 4.68575 19.9154 4.71796H23.9547C23.9509 9.37867 23.9622 14.04 23.949 18.7005C23.8957 20.0766 22.6673 21.2561 21.2987 21.2804C19.9142 21.2855 18.5296 21.2812 17.145 21.2826V14.9083C18.0906 15.6841 19.3758 15.8048 20.5539 15.8069C21.4419 15.8066 22.3248 15.6698 23.1872 15.4649V14.2971C22.2152 14.7815 21.0727 15.0892 19.9952 14.8109C19.2437 14.6237 18.6981 13.8974 18.7103 13.1218C18.6232 12.3152 19.0962 11.4636 19.8888 11.2238C20.8729 10.9157 21.9456 11.1513 22.8681 11.5519C23.0658 11.6554 23.2663 11.7837 23.1872 11.4533V10.5354C21.6444 10.1684 20.0025 10.0332 18.4524 10.4326C18.0037 10.5592 17.5667 10.7512 17.2021 11.0459V11.0457Z" fill="url(#paint2_linear_1990_14042)"/>
</g>
<defs>
<linearGradient id="paint0_linear_1990_14042" x1="24.7562" y1="13.0307" x2="31.57" y2="13.0307" gradientUnits="userSpaceOnUse">
<stop stop-color="#007B40"/>
<stop offset="1" stop-color="#55B330"/>
</linearGradient>
<linearGradient id="paint1_linear_1990_14042" x1="9.52338" y1="13.0305" x2="16.3317" y2="13.0305" gradientUnits="userSpaceOnUse">
<stop stop-color="#1D2970"/>
<stop offset="1" stop-color="#006DBA"/>
</linearGradient>
<linearGradient id="paint2_linear_1990_14042" x1="17.1506" y1="13.2122" x2="23.9622" y2="13.2122" gradientUnits="userSpaceOnUse">
<stop stop-color="#6E2B2F"/>
<stop offset="1" stop-color="#E30138"/>
</linearGradient>
<clipPath id="clip0_1990_14042">
<rect width="40" height="25.641" fill="white" transform="translate(0.549805 0.179688)"/>
</clipPath>
</defs>
</svg>
