<svg width="41" height="32" viewBox="0 0 41 32" fill="none" xmlns="http://www.w3.org/2000/svg">
<g clip-path="url(#clip0_1990_14009)">
<path d="M39.7118 31.1377V31.2177H39.7864C39.8004 31.218 39.8142 31.2144 39.8264 31.2075C39.8313 31.2041 39.8352 31.1995 39.8378 31.1942C39.8404 31.1888 39.8417 31.1829 39.8414 31.1769C39.8417 31.1711 39.8404 31.1653 39.8378 31.1601C39.8352 31.1549 39.8313 31.1504 39.8264 31.1471C39.8144 31.1399 39.8005 31.1363 39.7864 31.1369H39.7118V31.1377ZM39.7872 31.0811C39.8192 31.0792 39.8509 31.0884 39.8768 31.1071C39.8872 31.1157 39.8955 31.1265 39.9009 31.1388C39.9064 31.1511 39.9089 31.1645 39.9082 31.1779C39.9087 31.1895 39.9067 31.201 39.9024 31.2118C39.898 31.2225 39.8914 31.2322 39.883 31.2401C39.863 31.2575 39.8379 31.268 39.8114 31.2699L39.9114 31.3839H39.8344L39.7424 31.2707H39.7126V31.3839H39.6482V31.0813H39.7882L39.7872 31.0811ZM39.7672 31.4883C39.801 31.4887 39.8345 31.4818 39.8654 31.4683C39.8953 31.4555 39.9224 31.4371 39.9454 31.4141C39.9685 31.3912 39.9869 31.364 39.9996 31.3341C40.0259 31.2707 40.0259 31.1995 39.9996 31.1361C39.9867 31.1063 39.9683 31.0792 39.9454 31.0561C39.9224 31.0332 39.8953 31.0148 39.8654 31.0019C39.8343 30.9892 39.8009 30.9828 39.7672 30.9831C39.733 30.9828 39.699 30.9892 39.6672 31.0019C39.6367 31.0145 39.6089 31.033 39.5854 31.0561C39.55 31.0924 39.5261 31.1383 39.5166 31.1881C39.5071 31.2379 39.5125 31.2894 39.532 31.3361C39.5442 31.3662 39.5624 31.3934 39.5854 31.4161C39.6089 31.4393 39.6367 31.4577 39.6672 31.4703C39.6988 31.4838 39.7329 31.4906 39.7672 31.4903M39.7672 30.9103C39.8551 30.9103 39.9395 30.9447 40.0022 31.0063C40.0325 31.0359 40.0565 31.0712 40.073 31.1101C40.0901 31.1501 40.0989 31.1932 40.0989 31.2366C40.0989 31.2801 40.0901 31.3232 40.073 31.3631C40.0561 31.4019 40.0321 31.4371 40.0022 31.4669C39.9715 31.4964 39.9358 31.5201 39.8968 31.5369C39.8558 31.5543 39.8117 31.5632 39.7672 31.5629C39.7222 31.5633 39.6775 31.5544 39.636 31.5369C39.5966 31.5205 39.5605 31.4967 39.5298 31.4669C39.4999 31.436 39.4762 31.3996 39.46 31.3597C39.4429 31.3198 39.4341 31.2767 39.4341 31.2332C39.4341 31.1898 39.4429 31.1467 39.46 31.1067C39.4765 31.0678 39.5006 31.0325 39.5308 31.0029C39.5611 30.9726 39.5972 30.9488 39.637 30.9329C39.6785 30.9155 39.7232 30.9066 39.7682 30.9069M9.14323 29.7417C9.14323 29.1647 9.52123 28.6907 10.139 28.6907C10.7294 28.6907 11.1278 29.1443 11.1278 29.7417C11.1278 30.3391 10.7294 30.7927 10.139 30.7927C9.52123 30.7927 9.14323 30.3187 9.14323 29.7417ZM11.8008 29.7417V28.0997H11.087V28.4997C10.8606 28.2041 10.5172 28.0187 10.0502 28.0187C9.13023 28.0187 8.40823 28.7403 8.40823 29.7425C8.40823 30.7447 9.12983 31.4663 10.0502 31.4663C10.517 31.4663 10.8606 31.2807 11.087 30.9853V31.3839H11.8V29.7417H11.8008ZM35.9192 29.7417C35.9192 29.1647 36.2972 28.6907 36.9152 28.6907C37.5062 28.6907 37.904 29.1443 37.904 29.7417C37.904 30.3391 37.5062 30.7927 36.9152 30.7927C36.2974 30.7927 35.9192 30.3187 35.9192 29.7417ZM38.5776 29.7417V26.7817H37.8632V28.4997C37.6368 28.2041 37.2934 28.0187 36.8264 28.0187C35.9064 28.0187 35.1844 28.7403 35.1844 29.7425C35.1844 30.7447 35.906 31.4663 36.8264 31.4663C37.2934 31.4663 37.6368 31.2807 37.8632 30.9853V31.3839H38.5776V29.7417ZM20.66 28.6569C21.12 28.6569 21.4154 28.9453 21.4908 29.4531H19.7876C19.8638 28.9791 20.1516 28.6569 20.6602 28.6569M20.6744 28.0169C19.7124 28.0169 19.0394 28.7169 19.0394 29.7407C19.0394 30.7845 19.7394 31.4645 20.7222 31.4645C21.2166 31.4645 21.6694 31.3411 22.0678 31.0045L21.718 30.4755C21.4428 30.6955 21.0924 30.8189 20.763 30.8189C20.303 30.8189 19.8842 30.6059 19.7812 30.0149H22.2186C22.2256 29.9261 22.2328 29.8365 22.2328 29.7405C22.2256 28.7171 21.5928 28.0167 20.674 28.0167M29.292 29.7405C29.292 29.1635 29.67 28.6895 30.2878 28.6895C30.8782 28.6895 31.2766 29.1431 31.2766 29.7405C31.2766 30.3379 30.8782 30.7915 30.2878 30.7915C29.67 30.7915 29.2918 30.3175 29.2918 29.7405M31.9494 29.7405V28.0997H31.236V28.4997C31.0088 28.2041 30.6662 28.0187 30.1992 28.0187C29.2792 28.0187 28.5572 28.7403 28.5572 29.7425C28.5572 30.7447 29.2788 31.4663 30.1992 31.4663C30.6662 31.4663 31.0088 31.2807 31.236 30.9853V31.3839H31.9496V29.7417L31.9494 29.7405ZM25.261 29.7405C25.261 30.7363 25.9542 31.4643 27.0122 31.4643C27.5066 31.4643 27.836 31.3543 28.1922 31.0729L27.8494 30.4959C27.5814 30.6885 27.3 30.7915 26.9894 30.7915C26.4196 30.7845 26.0006 30.3725 26.0006 29.7405C26.0006 29.1085 26.4196 28.6967 26.9894 28.6895C27.2992 28.6895 27.5806 28.7925 27.8494 28.9851L28.1922 28.4081C27.8354 28.1267 27.506 28.0167 27.0122 28.0167C25.9542 28.0167 25.261 28.7445 25.261 29.7405ZM34.463 28.0167C34.0512 28.0167 33.783 28.2093 33.5976 28.4977V28.0997H32.8902V31.3821H33.6048V29.5421C33.6048 28.9989 33.8382 28.6971 34.3048 28.6971C34.4576 28.6949 34.6093 28.723 34.7512 28.7797L34.9712 28.1069C34.8132 28.0447 34.6072 28.0173 34.4626 28.0173M15.3298 28.3607C14.9864 28.1343 14.5132 28.0173 13.9912 28.0173C13.1596 28.0173 12.6242 28.4159 12.6242 29.0681C12.6242 29.6033 13.0228 29.9335 13.7568 30.0365L14.094 30.0845C14.4854 30.1395 14.6702 30.2425 14.6702 30.4279C14.6702 30.6817 14.4102 30.8265 13.922 30.8265C13.4276 30.8265 13.0708 30.6685 12.8302 30.4831L12.4948 31.0397C12.8862 31.3281 13.3806 31.4657 13.916 31.4657C14.864 31.4657 15.4134 31.0193 15.4134 30.3943C15.4134 29.8173 14.981 29.5155 14.2666 29.4125L13.9302 29.3637C13.6212 29.3237 13.3736 29.2615 13.3736 29.0415C13.3736 28.8015 13.607 28.6571 13.9986 28.6571C14.4176 28.6571 14.8232 28.8151 15.022 28.9385L15.331 28.3615L15.3298 28.3607ZM24.54 28.0179C24.1282 28.0179 23.86 28.2105 23.6754 28.4989V28.0997H22.968V31.3821H23.6818V29.5421C23.6818 28.9989 23.9152 28.6971 24.3818 28.6971C24.5346 28.6949 24.6863 28.723 24.8282 28.7797L25.0482 28.1069C24.8902 28.0447 24.6842 28.0173 24.5396 28.0173M18.4488 28.0997H17.2816V27.1039H16.56V28.0997H15.8942V28.7521H16.56V30.2495C16.56 31.0111 16.8556 31.4647 17.7 31.4647C18.0098 31.4647 18.3666 31.3687 18.593 31.2109L18.3868 30.5997C18.1738 30.7231 17.9404 30.7853 17.7548 30.7853C17.398 30.7853 17.2816 30.5653 17.2816 30.2359V28.7527H18.4488V28.0997ZM7.77703 31.3829V29.3229C7.77703 28.5471 7.28263 28.0251 6.48563 28.0181C6.06663 28.0111 5.63443 28.1415 5.33183 28.6021C5.10543 28.2381 4.74863 28.0181 4.24703 28.0181C3.89643 28.0181 3.55383 28.1211 3.28563 28.5055V28.0997H2.57123V31.3821H3.29123V29.5621C3.29123 28.9923 3.60723 28.6895 4.09523 28.6895C4.56923 28.6895 4.80903 28.9985 4.80903 29.5549V31.3817H5.53063V29.5617C5.53063 28.9919 5.86003 28.6891 6.33383 28.6891C6.82123 28.6891 7.05383 28.9981 7.05383 29.5545V31.3813L7.77703 31.3829Z" fill="white"/>
<path d="M40.1188 20.4644V19.9844H39.9938L39.8492 20.3138L39.7054 19.9844H39.58V20.4644H39.6688V20.1028L39.804 20.4148H39.896L40.0312 20.102V20.4644H40.1192H40.1188ZM39.3258 20.4644V20.0666H39.4858V19.9856H39.077V20.0666H39.237V20.4644H39.325H39.3258Z" fill="#F79410"/>
<path d="M25.9114 22.523H15.0942V3.08301H25.9116L25.9114 22.523Z" fill="#FF5F00"/>
<path d="M15.78 12.8034C15.78 8.85995 17.6264 5.34715 20.5016 3.08335C18.3252 1.36725 15.6334 0.43586 12.8618 0.439955C6.0344 0.439955 0.5 5.97515 0.5 12.8034C0.5 19.6316 6.0344 25.1668 12.8618 25.1668C15.6334 25.1709 18.3254 24.2395 20.5018 22.5234C17.6268 20.26 15.78 16.747 15.78 12.8034Z" fill="#EB001B"/>
<path d="M40.505 12.8034C40.505 19.6316 34.9706 25.1668 28.1432 25.1668C25.3713 25.1708 22.679 24.2395 20.5022 22.5234C23.3782 20.2596 25.2246 16.747 25.2246 12.8034C25.2246 8.85975 23.3782 5.34715 20.5022 3.08335C22.679 1.3673 25.3711 0.435931 28.143 0.439954C34.9704 0.439954 40.5048 5.97515 40.5048 12.8034" fill="#F79E1B"/>
</g>
<defs>
<clipPath id="clip0_1990_14009">
<rect width="40" height="31.12" fill="white" transform="translate(0.5 0.439941)"/>
</clipPath>
</defs>
</svg>
