<svg width="41" height="40" viewBox="0 0 41 40" fill="none" xmlns="http://www.w3.org/2000/svg">
<path d="M34.006 10.3344C34.0737 9.78398 34.1091 9.22359 34.1091 8.65492C34.1091 3.875 30.2342 0 25.4542 0H10.9899C10.0801 0 9.30331 0.657031 9.15237 1.55422L3.82268 33.232C3.63143 34.3687 4.50768 35.4045 5.66026 35.4045H10.9502C11.86 35.4045 12.6514 34.748 12.8023 33.8507C12.8023 33.8507 12.8111 33.7981 12.8271 33.7034H12.8271L12.0899 38.0852C11.9215 39.087 12.6938 40 13.7096 40H18.3375C19.1395 40 19.8242 39.4209 19.9571 38.6301L21.2719 30.816C21.4985 29.469 22.6647 28.4827 24.0306 28.4827H25.2464C31.8503 28.4827 37.2037 23.1291 37.2037 16.5253C37.2037 13.9699 35.9406 11.7111 34.006 10.3344Z" fill="#002987"/>
<path d="M34.0059 10.3345C33.1783 17.0672 27.44 22.2806 20.4836 22.2806H16.4473C15.5362 22.2806 14.7495 22.8874 14.5027 23.7453L12.09 38.0851C11.9215 39.087 12.6937 40.0001 13.7096 40.0001H18.3375C19.1395 40.0001 19.8241 39.421 19.9571 38.6302L21.2719 30.8161C21.4985 29.4691 22.6647 28.4828 24.0305 28.4828H25.2463C31.8502 28.4828 37.2037 23.1292 37.2037 16.5254C37.2037 13.97 35.9405 11.7112 34.0059 10.3345Z" fill="#0085CC"/>
<path d="M16.4473 22.2802H20.4836C27.4401 22.2802 33.1783 17.0669 34.0059 10.3342C32.7647 9.45094 31.2478 8.92969 29.6083 8.92969H19.0731C17.8737 8.92969 16.8495 9.79586 16.6505 10.9787L14.5026 23.7449C14.7494 22.887 15.5362 22.2802 16.4473 22.2802Z" fill="#00186A"/>
</svg>
