<svg width="41" height="14" viewBox="0 0 41 14" fill="none" xmlns="http://www.w3.org/2000/svg">
<path d="M26.5534 0.572266C23.7133 0.572266 21.1752 2.0325 21.1752 4.73041C21.1752 7.82444 25.6766 8.0381 25.6766 9.59245C25.6766 10.2469 24.9205 10.8328 23.6291 10.8328C21.7963 10.8328 20.4266 10.0142 20.4266 10.0142L19.8404 12.7367C19.8404 12.7367 21.4184 13.4281 23.5134 13.4281C26.6186 13.4281 29.062 11.8962 29.062 9.15213C29.062 5.88281 24.5419 5.67546 24.5419 4.23278C24.5419 3.72005 25.1626 3.15832 26.4503 3.15832C27.9032 3.15832 29.0886 3.75367 29.0886 3.75367L29.6622 1.1242C29.6622 1.1242 28.3724 0.572266 26.5534 0.572266ZM0.568774 0.770716L0.5 1.16762C0.5 1.16762 1.69486 1.38453 2.77102 1.81727C4.15669 2.3134 4.25535 2.6023 4.48876 3.49941L7.03172 13.2235H10.4406L15.6922 0.770716H12.2912L8.91672 9.2374L7.53972 2.06065C7.4134 1.2393 6.77375 0.770716 5.99081 0.770716H0.568774ZM17.0598 0.770716L14.3918 13.2235H17.635L20.2937 0.770716H17.0598ZM35.1483 0.770716C34.3663 0.770716 33.9519 1.18608 33.6478 1.91181L28.8963 13.2235H32.2974L32.9554 11.3382H37.0989L37.499 13.2235H40.5L37.882 0.770716H35.1483ZM35.5906 4.13506L36.5988 8.80797H33.8979L35.5906 4.13506Z" fill="#002987"/>
</svg>
