<svg width="60" height="60" viewBox="0 0 60 60" fill="none" xmlns="http://www.w3.org/2000/svg">
<g clip-path="url(#clip0_3874_48092)">
<path d="M56.6504 11.3436L59.7238 8.26972C59.8125 8.18302 59.883 8.0796 59.9314 7.96544C59.9798 7.85128 60.0051 7.72865 60.0058 7.60465C60.0065 7.48066 59.9825 7.35776 59.9354 7.24307C59.8883 7.12839 59.8188 7.02419 59.7311 6.93652C59.6435 6.84885 59.5393 6.77944 59.4246 6.73232C59.3099 6.6852 59.187 6.6613 59.063 6.66201C58.939 6.66271 58.8163 6.68801 58.7022 6.73643C58.588 6.78485 58.4846 6.85544 58.3979 6.9441L55.0648 10.2777C54.9774 10.3651 54.9082 10.469 54.8611 10.5833C54.814 10.6975 54.7899 10.82 54.7903 10.9436C54.7903 10.9731 54.7532 13.9436 53.0927 15.6045L52.0014 16.6959L50.5437 15.2379C50.3679 15.0621 50.1294 14.9633 49.8808 14.9633C49.6321 14.9633 49.3937 15.0621 49.2178 15.2379C49.042 15.4137 48.9432 15.6522 48.9432 15.9009C48.9432 16.1495 49.042 16.388 49.2178 16.5638L55.9474 23.2933L51.5911 27.6495C51.4673 27.7733 51.3806 27.9294 51.3409 28.1C51.3013 28.2705 51.3102 28.4488 51.3666 28.6146C51.4231 28.7804 51.5248 28.927 51.6604 29.0379C51.7959 29.1488 51.9598 29.2195 52.1335 29.2421C52.5756 29.298 52.9932 29.4769 53.3387 29.7585C53.6841 30.04 53.9436 30.4129 54.0876 30.8347C54.2315 31.2565 54.2542 31.7102 54.153 32.1442C54.0517 32.5783 53.8307 32.9751 53.515 33.2897C53.0663 33.7373 52.4584 33.9887 51.8246 33.9887C51.1908 33.9887 50.5829 33.7373 50.1342 33.2897C49.7643 32.9163 49.5297 32.4301 49.4674 31.9082C49.4449 31.7345 49.3742 31.5706 49.2633 31.435C49.1524 31.2995 49.0057 31.1977 48.8399 31.1412C48.6741 31.0848 48.4958 31.0759 48.3252 31.1156C48.1546 31.1553 47.9986 31.242 47.8747 31.3659L42.9997 36.2409L38.5869 31.8279C38.4631 31.7041 38.307 31.6174 38.1364 31.5777C37.9658 31.538 37.7875 31.5469 37.6217 31.6034C37.4559 31.6598 37.3092 31.7616 37.1983 31.8972C37.0874 32.0328 37.0167 32.1967 36.9942 32.3704C36.9374 32.8195 36.7557 33.2436 36.4696 33.5945C36.1836 33.9454 35.8048 34.2089 35.3764 34.3551C34.948 34.5013 34.4871 34.5243 34.0463 34.4214C33.6054 34.3185 33.2023 34.0939 32.8828 33.7732C32.4282 33.3175 32.173 32.7001 32.173 32.0564C32.173 31.4128 32.4282 30.7954 32.8828 30.3396C33.2621 29.9639 33.756 29.7255 34.2861 29.6623C34.4598 29.6398 34.6237 29.569 34.7592 29.4581C34.8948 29.3472 34.9965 29.2006 35.053 29.0348C35.1094 28.869 35.1183 28.6908 35.0787 28.5202C35.039 28.3496 34.9523 28.1936 34.8285 28.0697L29.8913 23.1326L40.7922 12.2317L38.3633 19.9328C38.2948 20.15 38.3077 20.3846 38.3996 20.593C38.4914 20.8013 38.6559 20.9691 38.8624 21.0651C38.9773 21.1184 41.6951 22.3509 43.4777 20.5448C44.6632 19.3439 46.2658 16.0477 46.8904 14.7079C48.1862 14.6141 51.1345 14.1367 52.7156 11.7675C52.8537 11.5607 52.9039 11.3075 52.8552 11.0637C52.8065 10.8199 52.663 10.6054 52.4562 10.4673C52.2494 10.3293 51.9962 10.2791 51.7524 10.3278C51.5085 10.3764 51.294 10.52 51.156 10.7268C49.7111 12.8918 46.3337 12.8556 46.3008 12.8548C46.1166 12.8513 45.9355 12.9018 45.7796 13C45.6238 13.0983 45.5002 13.24 45.424 13.4077C44.8507 14.6828 43.144 18.214 42.1435 19.2277C41.6747 19.7022 40.9743 19.6988 40.435 19.5981L43.7328 9.14043C43.7959 8.94025 43.7901 8.72466 43.7161 8.52821C43.6422 8.33175 43.5045 8.16578 43.3251 8.05689C43.1456 7.94799 42.9348 7.90247 42.7264 7.92761C42.518 7.95275 42.3241 8.0471 42.1757 8.19554L38.1225 12.2487L38.7381 10.242L42.2935 6.68617L49.4749 4.98121C49.644 4.94107 49.7986 4.85473 49.9214 4.73183L53.0526 1.60011C53.1421 1.51363 53.2135 1.41018 53.2627 1.29581C53.3118 1.18143 53.3376 1.05841 53.3387 0.933928C53.3398 0.809447 53.3161 0.685997 53.2689 0.570782C53.2218 0.455567 53.1522 0.350893 53.0642 0.262869C52.9762 0.174844 52.8715 0.105232 52.7563 0.0580936C52.641 0.0109553 52.5176 -0.0127651 52.3931 -0.0116834C52.2686 -0.0106017 52.1456 0.0152604 52.0312 0.0643939C51.9169 0.113527 51.8134 0.184948 51.7269 0.274489L48.7835 3.21824L41.6019 4.92355C41.4329 4.96366 41.2783 5.04996 41.1554 5.17281L37.2472 9.08183C37.1389 9.19016 37.0588 9.32338 37.0139 9.46984L35.2943 15.0777L27.9025 22.4693C27.7267 22.6451 27.6279 22.8836 27.6279 23.1322C27.6279 23.3808 27.7267 23.6193 27.9025 23.7951L32.4431 28.3357C32.119 28.5214 31.8211 28.7493 31.5571 29.0136C31.1575 29.4131 30.8405 29.8875 30.6242 30.4096C30.4079 30.9317 30.2966 31.4913 30.2966 32.0564C30.2966 32.6215 30.4079 33.1811 30.6241 33.7032C30.8404 34.2253 31.1573 34.6997 31.5569 35.0993C32.3639 35.9063 33.4584 36.3597 34.5997 36.3598C35.1648 36.3598 35.7244 36.2485 36.2465 36.0322C36.7686 35.816 37.243 35.499 37.6426 35.0994C37.907 34.8355 38.135 34.5375 38.3207 34.2134L42.3369 38.2296C42.424 38.3167 42.5273 38.3858 42.6411 38.4329C42.7549 38.48 42.8768 38.5043 42.9999 38.5043C43.1231 38.5043 43.245 38.48 43.3587 38.4329C43.4725 38.3858 43.5758 38.3167 43.6629 38.2296L48.1432 33.7492C48.326 34.0659 48.5497 34.3572 48.8084 34.6156C49.6094 35.4105 50.6927 35.8556 51.8212 35.8535C52.9497 35.8513 54.0314 35.4021 54.8294 34.6041C55.6273 33.8061 56.0766 32.7245 56.0787 31.596C56.0809 30.4675 55.6358 29.3841 54.8408 28.5831C54.5824 28.3244 54.2912 28.1008 53.9745 27.918L57.9359 23.9561C58.1117 23.7803 58.2104 23.5418 58.2104 23.2932C58.2104 23.0446 58.1117 22.8062 57.9359 22.6303L53.3272 18.0217L54.4187 16.9302C56.2401 15.1089 56.5853 12.3734 56.6504 11.3436Z" fill="#FB6E27"/>
<path d="M32.8098 37.047C32.685 36.9222 32.5274 36.8352 32.3554 36.7959C32.1833 36.7567 32.0036 36.7668 31.837 36.8251C31.6704 36.8835 31.5237 36.9876 31.4137 37.1257C31.3037 37.2637 31.2349 37.43 31.2152 37.6054C31.1679 38.0544 30.9943 38.4808 30.7148 38.8352C30.4352 39.1897 30.0609 39.4577 29.6354 39.6083C29.2098 39.759 28.7503 39.786 28.3099 39.6863C27.8696 39.5867 27.4665 39.3644 27.1473 39.0451C26.8281 38.7259 26.6058 38.3228 26.5061 37.8825C26.4065 37.4422 26.4335 36.9827 26.5841 36.5571C26.7347 36.1315 27.0028 35.7573 27.3572 35.4777C27.7117 35.1981 28.1381 35.0246 28.587 34.9773C28.7624 34.9576 28.9288 34.8888 29.0668 34.7788C29.2049 34.6688 29.3091 34.5221 29.3674 34.3555C29.4258 34.1889 29.4359 34.0092 29.3967 33.8371C29.3574 33.665 29.2704 33.5075 29.1455 33.3827L24.0315 28.2687C23.9444 28.1817 23.8411 28.1126 23.7273 28.0655C23.6136 28.0184 23.4917 27.9941 23.3686 27.9941C23.2454 27.9941 23.1235 28.0184 23.0098 28.0655C22.896 28.1126 22.7927 28.1817 22.7056 28.2687L18.744 32.2304C18.5612 31.9137 18.3376 31.6224 18.0788 31.364C17.3519 30.6381 16.3874 30.1989 15.3626 30.1271C14.3378 30.0554 13.3215 30.3559 12.5005 30.9734C11.6795 31.591 11.1089 32.4841 10.8937 33.4886C10.6784 34.4931 10.833 35.5416 11.3288 36.4413L9.46695 37.0163C9.32101 37.0612 9.18825 37.1411 9.08023 37.2491L5.17156 41.1573C5.04859 41.28 4.96228 41.4346 4.92231 41.6036L3.21758 48.7852L0.273829 51.7286C0.185895 51.8155 0.116002 51.9189 0.0681704 52.0328C0.0203389 52.1468 -0.00448664 52.2691 -0.00487811 52.3927C-0.00526958 52.5163 0.0187808 52.6387 0.0658893 52.753C0.112998 52.8672 0.182235 52.9711 0.269617 53.0585C0.356999 53.1459 0.460801 53.2151 0.575051 53.2623C0.689302 53.3094 0.811745 53.3335 0.935338 53.3331C1.05893 53.3328 1.18123 53.308 1.29521 53.2602C1.40918 53.2124 1.51258 53.1425 1.59945 53.0546L4.73117 49.9234C4.85401 49.8005 4.9403 49.646 4.98043 49.477L6.68574 42.2953L10.2423 38.7392L12.7545 37.9633C12.8069 37.9967 12.8589 38.0306 12.9127 38.0616L8.43231 42.5421C8.2816 42.6924 8.18656 42.8896 8.16283 43.1012C8.1391 43.3128 8.18808 43.5261 8.30173 43.7062C8.41538 43.8862 8.58693 44.0222 8.78814 44.0917C8.98935 44.1613 9.20825 44.1603 9.40883 44.0889L19.6031 40.4712C19.6977 41.006 19.691 41.6871 19.2264 42.1456C18.2129 43.1462 14.6816 44.8526 13.4064 45.4262C13.2389 45.502 13.0973 45.6253 12.999 45.7807C12.9007 45.9362 12.8502 46.117 12.8536 46.3009C12.8536 46.3347 12.8907 49.7134 10.7255 51.158C10.5187 51.2961 10.3752 51.5106 10.3265 51.7544C10.2779 51.9982 10.3281 52.2514 10.4661 52.4582C10.6041 52.6651 10.8186 52.8086 11.0625 52.8572C11.3063 52.9059 11.5595 52.8557 11.7663 52.7177C14.1357 51.1367 14.6131 48.1885 14.7068 46.8925C16.0466 46.268 19.3428 44.6653 20.5436 43.4799C22.3498 41.6973 21.1179 38.9799 21.0639 38.8646C20.9656 38.6529 20.7918 38.4855 20.5766 38.3952C20.3613 38.3049 20.1201 38.2981 19.9002 38.3762L12.6924 40.9337L15.296 38.3302C15.4198 38.2064 15.5065 38.0504 15.5461 37.8798C15.5858 37.7092 15.5769 37.531 15.5205 37.3652C15.4641 37.1994 15.3623 37.0528 15.2268 36.9419C15.0913 36.8309 14.9274 36.7602 14.7538 36.7376C14.2318 36.6753 13.7457 36.4406 13.3722 36.0707C13.1502 35.8487 12.9741 35.5852 12.854 35.2952C12.7339 35.0051 12.672 34.6942 12.672 34.3803C12.672 34.0664 12.7339 33.7555 12.854 33.4655C12.9741 33.1754 13.1502 32.9119 13.3722 32.6899C13.5942 32.4679 13.8578 32.2918 14.1478 32.1717C14.4378 32.0515 14.7487 31.9897 15.0627 31.9897C15.3766 31.9897 15.6875 32.0515 15.9775 32.1717C16.2676 32.2918 16.5311 32.4679 16.7531 32.6899C17.123 33.0633 17.3576 33.5495 17.4198 34.0714C17.4423 34.2451 17.513 34.409 17.6239 34.5446C17.7348 34.6801 17.8815 34.7819 18.0473 34.8384C18.2131 34.8948 18.3914 34.9037 18.562 34.864C18.7326 34.8243 18.8886 34.7376 19.0125 34.6137L23.3686 30.2579L26.7448 33.6342C26.4125 33.8209 26.1074 34.0525 25.8382 34.3223C25.4396 34.7179 25.123 35.1882 24.9067 35.7064C24.6903 36.2246 24.5784 36.7804 24.5773 37.3419C24.5762 37.9034 24.686 38.4597 24.9004 38.9787C25.1148 39.4977 25.4296 39.9692 25.8266 40.3663C26.2237 40.7633 26.6953 41.0781 27.2143 41.2925C27.7333 41.5069 28.2895 41.6167 28.851 41.6156C29.4126 41.6146 29.9684 41.5026 30.4865 41.2863C31.0047 41.0699 31.4751 40.7533 31.8706 40.3548C32.1404 40.0855 32.372 39.7804 32.5588 39.4481L36.4771 43.3665L33.1784 46.6653C32.9957 46.3486 32.772 46.0572 32.5133 45.7988C32.1172 45.4027 31.6469 45.0885 31.1294 44.8742C30.6119 44.6598 30.0572 44.5495 29.497 44.5495C28.9368 44.5495 28.3822 44.6598 27.8646 44.8742C27.3471 45.0886 26.8769 45.4028 26.4808 45.7989C26.0847 46.195 25.7705 46.6652 25.5561 47.1828C25.3417 47.7003 25.2314 48.255 25.2314 48.8152C25.2314 49.3753 25.3418 49.93 25.5561 50.4475C25.7705 50.9651 26.0847 51.4353 26.4808 51.8314C26.7392 52.0901 27.0305 52.3137 27.3472 52.4964L23.5297 56.3139L16.5245 49.3087C16.4379 49.2195 16.3345 49.1485 16.2202 49.0996C16.106 49.0508 15.9831 49.0251 15.8589 49.0242C15.7346 49.0232 15.6114 49.047 15.4964 49.0941C15.3814 49.1412 15.2769 49.2107 15.189 49.2985C15.1011 49.3864 15.0316 49.4908 14.9844 49.6058C14.9372 49.7208 14.9134 49.8439 14.9142 49.9682C14.9151 50.0925 14.9407 50.2153 14.9895 50.3296C15.0382 50.4439 15.1092 50.5474 15.1984 50.634L16.6314 52.0671L15.6037 53.0947C13.9286 54.7695 10.9705 54.7923 10.9428 54.7923H10.9398C10.6912 54.7923 10.4527 54.891 10.277 55.0668L6.94367 58.3996C6.85501 58.4863 6.78442 58.5897 6.736 58.7039C6.68758 58.818 6.66229 58.9407 6.66158 59.0647C6.66088 59.1887 6.68478 59.3116 6.7319 59.4263C6.77902 59.5409 6.84842 59.6452 6.93609 59.7328C7.02377 59.8205 7.12796 59.89 7.24265 59.9371C7.35734 59.9842 7.48023 60.0082 7.60423 60.0075C7.72822 60.0068 7.85085 59.9815 7.96501 59.9331C8.07917 59.8847 8.1826 59.8141 8.2693 59.7255L11.3429 56.6523C12.3725 56.587 15.1079 56.2421 16.9292 54.4207L17.9571 53.3929L22.8664 58.3023C22.9535 58.3893 23.0568 58.4584 23.1706 58.5055C23.2843 58.5526 23.4062 58.5769 23.5293 58.5769C23.6525 58.5769 23.7744 58.5526 23.8881 58.5055C24.0019 58.4584 24.1052 58.3893 24.1923 58.3023L29.7301 52.7643C29.8539 52.6405 29.9406 52.4844 29.9802 52.3138C30.0199 52.1433 30.011 51.965 29.9545 51.7992C29.8981 51.6334 29.7963 51.4868 29.6607 51.3759C29.5252 51.265 29.3613 51.1943 29.1876 51.1718C28.7432 51.1167 28.3232 50.938 27.9754 50.656C27.6277 50.3739 27.3661 49.9998 27.2205 49.5764C27.075 49.1529 27.0513 48.6971 27.1521 48.2608C27.253 47.8245 27.4743 47.4254 27.791 47.1087C28.1076 46.7921 28.5068 46.5708 28.9431 46.47C29.3794 46.3692 29.8352 46.3929 30.2587 46.5385C30.6821 46.6841 31.0562 46.9457 31.3382 47.2935C31.6202 47.6413 31.7989 48.0613 31.8539 48.5057C31.8764 48.6794 31.9471 48.8433 32.0581 48.9789C32.169 49.1144 32.3156 49.2162 32.4814 49.2726C32.6472 49.329 32.8255 49.3379 32.9961 49.2982C33.1667 49.2585 33.3227 49.1718 33.4466 49.048L38.4656 44.0289C38.5526 43.9419 38.6217 43.8385 38.6688 43.7248C38.7159 43.611 38.7402 43.4891 38.7402 43.366C38.7402 43.2429 38.7159 43.121 38.6688 43.0072C38.6217 42.8935 38.5526 42.7901 38.4656 42.7031L32.8098 37.047Z" fill="#FB6E27"/>
</g>
<defs>
<clipPath id="clip0_3874_48092">
<rect width="60" height="60" fill="white"/>
</clipPath>
</defs>
</svg>
