<svg width="60" height="60" viewBox="0 0 60 60" fill="none" xmlns="http://www.w3.org/2000/svg">
<g clip-path="url(#clip0_3874_48101)">
<path d="M31.4086 38.5414C31.7433 36.5504 30.7017 34.8192 28.755 34.1311C28.4885 34.0369 28.2158 33.9381 27.9439 33.835V29.3632C28.9365 29.3709 29.6046 29.6351 29.6287 29.6448C30.0735 29.8321 30.5875 29.6255 30.778 29.1809C30.9692 28.7347 30.7622 28.2181 30.3161 28.027C30.2597 28.0029 29.3246 27.6125 27.944 27.6045V26.854C27.944 26.3685 27.5507 25.9751 27.0652 25.9751C26.5797 25.9751 26.1863 26.3685 26.1863 26.854V27.8061C26.0467 27.8394 25.9055 27.8768 25.7622 27.9199C24.4813 28.3058 23.524 29.4024 23.2642 30.7818C23.0273 32.0387 23.4294 33.2503 24.3137 33.9439C24.7869 34.315 25.3767 34.6548 26.1863 35.0145V40.4565C25.4742 40.4073 24.9868 40.2378 24.1834 39.7124C23.777 39.4467 23.2324 39.5605 22.9668 39.9668C22.701 40.3729 22.8149 40.9176 23.2212 41.1834C24.3765 41.9391 25.1639 42.1608 26.1863 42.216V43.212C26.1863 43.6975 26.5797 44.0909 27.0652 44.0909C27.5507 44.0909 27.944 43.6975 27.944 43.212V42.1471C29.9662 41.7586 31.1474 40.0951 31.4086 38.5414ZM25.3985 32.5609C25.0325 32.2739 24.8765 31.7169 24.9914 31.1073C25.0955 30.5547 25.4645 29.8894 26.1862 29.632V33.0611C25.8891 32.9016 25.6205 32.735 25.3985 32.5609ZM29.6752 38.2498C29.5338 39.0905 28.9453 39.9842 27.944 40.3277V35.7077C28.0186 35.7346 28.0921 35.7612 28.1692 35.7883C29.8506 36.3828 29.7469 37.8227 29.6752 38.2498Z" fill="#FB6E27"/>
<path d="M42.2154 46.4457C42.0762 46.3965 41.9347 46.3455 41.793 46.293V43.4888C42.313 43.5261 42.6522 43.6558 42.6717 43.6635C43.1169 43.8502 43.6293 43.6428 43.8192 43.1988C44.0103 42.7525 43.8034 42.2359 43.3573 42.0448C43.3175 42.0278 42.7085 41.7736 41.793 41.728V41.4228C41.793 40.9373 41.3996 40.5439 40.9141 40.5439C40.4286 40.5439 40.0352 40.9373 40.0352 41.4228V41.9207C39.9913 41.9328 39.9473 41.9449 39.903 41.9582C38.8904 42.2634 38.1344 43.1274 37.9298 44.2131C37.7418 45.2106 38.0665 46.1763 38.7769 46.7334C39.105 46.9908 39.5041 47.2268 40.0352 47.4716V50.9696C39.6791 50.9128 39.4004 50.784 38.9675 50.5009C38.5614 50.2349 38.0166 50.349 37.7509 50.7553C37.4852 51.1615 37.5991 51.7061 38.0053 51.9719C38.7742 52.4748 39.3357 52.6709 40.0352 52.7381V53.2317C40.0352 53.7172 40.4286 54.1106 40.9141 54.1106C41.3996 54.1106 41.793 53.7172 41.793 53.2317V52.6546C43.1937 52.2871 44.0914 51.0856 44.2906 49.9004C44.5489 48.364 43.7149 46.9757 42.2154 46.4457ZM39.8615 45.3501C39.6724 45.2017 39.5921 44.8832 39.6572 44.5384C39.7008 44.307 39.8224 44.0445 40.0352 43.8545V45.4744C39.9738 45.4336 39.9151 45.3922 39.8615 45.3501ZM42.5573 49.609C42.4848 50.0394 42.2256 50.491 41.793 50.7618V48.1694C42.632 48.5515 42.6102 49.2939 42.5573 49.609Z" fill="#FB6E27"/>
<path d="M59.9982 49.0796C59.9982 47.8192 58.9728 46.7937 57.7123 46.7937H54.2893V22.4775C54.2893 20.8187 52.9398 19.4692 51.281 19.4692H3.00812C1.34949 19.4692 0 20.8187 0 22.4775V29.8362C0 30.3217 0.393388 30.7151 0.878882 30.7151C1.36438 30.7151 1.75776 30.3217 1.75776 29.8362V22.4775C1.75776 21.788 2.31861 21.227 3.00812 21.227H14.9384C14.4944 25.8776 10.5671 29.5273 5.80226 29.5273C5.31677 29.5273 4.92338 29.9207 4.92338 30.4062V39.6595C4.92338 40.145 5.31677 40.5384 5.80226 40.5384C10.5671 40.5384 14.4944 44.1881 14.9384 48.8386H3.00812C2.31861 48.8386 1.75776 48.2776 1.75776 47.5881V33.3502C1.75776 32.8647 1.36438 32.4713 0.878882 32.4713C0.393388 32.4713 0 32.8647 0 33.3502V47.5881C0 49.2468 1.34949 50.5963 3.00812 50.5963H31.3997C32.7619 54.5739 36.5379 57.4413 40.9714 57.4413C41.1235 57.4413 41.2745 57.4373 41.425 57.4306V57.7139C41.425 58.9744 42.4505 59.9999 43.7109 59.9999H50.7231C51.2086 59.9999 51.602 59.6065 51.602 59.121C51.602 58.6355 51.2086 58.2421 50.7231 58.2421H43.7109C43.4197 58.2421 43.1828 58.0052 43.1828 57.7139V57.1971C45.1789 56.7501 46.9541 55.7116 48.3138 54.2757H57.7124C58.0036 54.2757 58.2406 54.5125 58.2406 54.8037V57.7139C58.2406 58.0051 58.0038 58.2421 57.7124 58.2421H54.2372C53.7517 58.2421 53.3583 58.6355 53.3583 59.121C53.3583 59.6065 53.7517 59.9999 54.2372 59.9999H57.7124C58.9729 59.9999 59.9984 58.9744 59.9984 57.7139V54.8037C59.9984 54.273 59.815 53.7851 59.5103 53.3968C59.815 53.0084 59.9984 52.5206 59.9984 51.9898V49.0796H59.9982ZM52.5316 22.4775V46.7938H51.0716C50.9463 44.3934 49.9803 42.2119 48.463 40.5391C48.4709 40.5391 48.4789 40.5385 48.4869 40.5385C48.9724 40.5385 49.3658 40.1451 49.3658 39.6596V30.4063C49.3658 29.9208 48.9724 29.5274 48.4869 29.5274C43.722 29.5274 39.7948 25.8776 39.3508 21.2271H51.2811C51.9706 21.227 52.5316 21.788 52.5316 22.4775ZM16.7013 48.8386C16.275 43.5077 12.012 39.2416 6.68115 38.8157V31.25C12.012 30.824 16.275 26.5578 16.7013 21.227H37.5879C38.0142 26.5578 42.2772 30.824 47.608 31.25V38.8157C47.2764 38.8421 46.9463 38.8841 46.6193 38.9403C45.0054 37.8499 43.0614 37.2127 40.9714 37.2127C35.3943 37.2127 30.8571 41.75 30.8571 47.327C30.8571 47.8406 30.8959 48.3452 30.9701 48.8384H16.7013V48.8386ZM40.9714 55.6835C36.3637 55.6835 32.6148 51.9348 32.6148 47.327C32.6148 42.7192 36.3636 38.9705 40.9714 38.9705C45.5792 38.9705 49.3279 42.7192 49.3279 47.327C49.3279 51.9348 45.5792 55.6835 40.9714 55.6835ZM49.6488 52.5179C50.3614 51.3313 50.8372 49.9873 51.0114 48.5514H57.7124C58.0036 48.5514 58.2406 48.7883 58.2406 49.0796V51.9898C58.2406 52.281 58.0038 52.5179 57.7124 52.5179H49.6488Z" fill="#FB6E27"/>
<path d="M16.7112 12.5965L17.734 11.5574V15.9968C17.734 16.4823 18.1274 16.8757 18.6129 16.8757C19.0983 16.8757 19.4917 16.4823 19.4917 15.9968V11.5575L20.5145 12.5967C20.6867 12.7715 20.9136 12.859 21.141 12.859C21.3635 12.859 21.5863 12.775 21.7575 12.6066C22.1034 12.2661 22.1079 11.7097 21.7675 11.3638L19.2394 8.79509C19.0742 8.62717 18.8485 8.53271 18.613 8.53271C18.3774 8.53271 18.1517 8.62728 17.9865 8.79509L15.4585 11.3638C15.1181 11.7097 15.1225 12.2661 15.4684 12.6066C15.8143 12.947 16.3708 12.9425 16.7112 12.5965Z" fill="#FB6E27"/>
<path d="M39.4838 12.5967L40.5065 11.5575V15.9969C40.5065 16.4824 40.8999 16.8758 41.3854 16.8758C41.8709 16.8758 42.2643 16.4824 42.2643 15.9969V11.5576L43.2871 12.5968C43.4592 12.7716 43.6862 12.8592 43.9136 12.8592C44.1361 12.8592 44.3589 12.7751 44.5301 12.6067C44.876 12.2662 44.8805 11.7098 44.54 11.3639L42.0119 8.79509C41.8467 8.62717 41.621 8.53271 41.3854 8.53271C41.1499 8.53271 40.9242 8.62728 40.759 8.79509L38.2309 11.3638C37.8905 11.7097 37.895 12.2661 38.2409 12.6066C38.5868 12.9472 39.1433 12.9426 39.4838 12.5967Z" fill="#FB6E27"/>
<path d="M24.2538 8.48561H25.6683V14.7077C25.6683 15.5266 26.3345 16.1928 27.1534 16.1928H32.8411C33.66 16.1928 34.3262 15.5266 34.3262 14.7077V8.48561H35.7409C36.3503 8.48561 36.8912 8.12023 37.1187 7.55481C37.3461 6.9894 37.2091 6.35121 36.7695 5.92935L31.0258 0.41536C30.4489 -0.13857 29.5456 -0.138336 28.9689 0.41536L27.3031 2.01446C26.9531 2.35054 26.9416 2.90693 27.2778 3.25708C27.614 3.60699 28.1703 3.61871 28.5204 3.28239L29.9973 1.86458L35.0631 6.72773H34.0535C33.2346 6.72773 32.5685 7.39392 32.5685 8.21269V14.4349H27.4261V8.2128C27.4261 7.39404 26.7599 6.72784 25.941 6.72784H24.9314L25.9849 5.71642C26.3351 5.38022 26.3464 4.82395 26.0102 4.4738C25.6742 4.12366 25.1178 4.11229 24.7676 4.44849L23.2254 5.92923C22.7857 6.35133 22.6485 6.9894 22.876 7.55481C23.1036 8.12023 23.6443 8.48561 24.2538 8.48561Z" fill="#FB6E27"/>
</g>
<defs>
<clipPath id="clip0_3874_48101">
<rect width="60" height="60" fill="white"/>
</clipPath>
</defs>
</svg>
