<svg width="60" height="60" viewBox="0 0 60 60" fill="none" xmlns="http://www.w3.org/2000/svg">
<g clip-path="url(#clip0_3874_48115)">
<path d="M35.5798 10.6589L37.018 8.91295C37.6667 8.12569 37.9592 7.09057 37.8194 6.07303C37.382 2.87405 33.3535 1.78315 31.2971 4.27877L26.0273 10.6414H23.8594C22.9195 10.6414 22.0676 11.0209 21.4496 11.6353C20.9491 11.1594 20.2734 10.8658 19.5285 10.8658H16.0411C14.6629 10.8658 13.542 11.9867 13.542 13.3649V25.8655C13.542 27.2438 14.6629 28.3647 16.0411 28.3647H19.5285C20.1889 28.3647 20.7952 28.1344 21.2733 27.7478C21.8996 28.4727 22.8266 28.9322 23.8594 28.9322H34.2592C37.6878 28.9322 40.4773 26.1428 40.4773 22.7141V15.9638C40.4772 13.1722 38.3164 10.8763 35.5798 10.6589ZM20.4343 25.5801C20.4343 26.0794 20.0277 26.4848 19.5284 26.4848H16.041C15.7002 26.4848 15.4218 26.2075 15.4218 25.8655V13.3649C15.4218 13.023 15.7002 12.7457 16.041 12.7457H19.5284C20.0277 12.7457 20.4344 13.151 20.4344 13.6504C20.4343 17.4818 20.4343 21.8598 20.4343 25.5801ZM38.5971 22.7142C38.5971 25.1065 36.6514 27.0523 34.2591 27.0523H23.8593C23.0075 27.0523 22.3142 26.359 22.3142 25.5072V14.0663C22.3142 13.2144 23.0075 12.5212 23.8593 12.5212H26.1246C26.6263 12.5212 27.0964 12.2991 27.4136 11.9137L32.7468 5.47596C33.7688 4.23307 35.7404 4.75303 35.9569 6.3278C36.0251 6.82713 35.8829 7.33362 35.5668 7.71776L33.8571 9.7928C33.5054 10.1446 33.3331 10.9205 33.6468 11.5729C33.9276 12.158 34.5057 12.521 35.1543 12.521C37.0519 12.521 38.597 14.0662 38.597 15.9638V22.7142H38.5971Z" fill="#FB6E27"/>
<path d="M37.9673 0.12207H16.0515C7.20035 0.12207 0 7.3223 0 16.1735C0 21.8909 3.05027 27.1572 7.99699 30.0441V34.5362C7.99699 35.0238 8.3918 35.4174 8.87824 35.4174C9.36586 35.4174 9.75949 35.0238 9.75949 34.5362V29.5284C9.75949 29.2053 9.58207 28.9068 9.29777 28.7529C4.64953 26.2395 1.76262 21.4186 1.76262 16.1735C1.76262 8.2952 8.17219 1.88445 16.0516 1.88445H37.9675C48.975 1.88445 55.8286 13.8712 50.3271 23.3221C50.0815 23.7416 50.2249 24.2821 50.6443 24.5265C51.0649 24.7709 51.6055 24.6287 51.8498 24.2081C58.0256 13.6099 50.3527 0.12207 37.9673 0.12207Z" fill="#FB6E27"/>
<path d="M59.0832 38.4216C58.9023 37.9704 58.3888 37.7507 57.9376 37.9316C57.5005 38.1055 57.2807 38.5908 57.43 39.0314C57.4312 39.0326 57.4312 39.0349 57.4324 39.0373C60.012 46.5493 56.0199 54.7459 48.4872 57.3318C40.9904 59.9062 32.7845 55.9379 30.1927 48.3866C26.5503 37.78 35.9199 27.3499 46.7142 29.6103C50.5106 30.4023 53.9181 32.7193 56.0048 36.0445C56.2633 36.4557 56.8073 36.5803 57.2197 36.3218C57.6321 36.0633 57.7566 35.5193 57.497 35.1069C55.4573 31.8573 52.2797 29.3979 48.513 28.2485C48.8984 27.9136 49.2673 27.5587 49.621 27.1852C49.9559 26.8315 49.9394 26.2745 49.5857 25.9397C49.2321 25.6048 48.6751 25.6213 48.3403 25.975C47.7199 26.6306 47.0431 27.2228 46.3193 27.7433C42.0876 27.077 37.88 28.1379 34.5541 30.4635H19.1325C18.7835 30.4635 18.4674 30.668 18.3264 30.9864L13.5431 41.7693C12.6704 43.736 9.75957 43.0907 9.75957 40.9679V38.061C9.75957 37.5745 9.36594 37.1797 8.87832 37.1797C8.39188 37.1797 7.99707 37.5745 7.99707 38.061V40.9679C7.99707 44.9568 13.5002 46.2064 15.1539 42.4848L19.7047 32.226H32.4392C28.0694 36.553 26.4869 43.0243 28.5254 48.9589C30.7673 55.4907 36.91 59.8781 43.8107 59.8781C55.0815 59.878 62.7261 48.6375 59.0832 38.4216Z" fill="#FB6E27"/>
<path d="M40.4675 38.7753C41.2753 38.7753 41.9301 38.1205 41.9301 37.3127C41.9301 36.5049 41.2753 35.8501 40.4675 35.8501C39.6597 35.8501 39.0049 36.5049 39.0049 37.3127C39.0049 38.1205 39.6597 38.7753 40.4675 38.7753Z" fill="#FB6E27"/>
<path d="M47.156 38.7753C47.9638 38.7753 48.6186 38.1205 48.6186 37.3127C48.6186 36.5049 47.9638 35.8501 47.156 35.8501C46.3482 35.8501 45.6934 36.5049 45.6934 37.3127C45.6934 38.1205 46.3482 38.7753 47.156 38.7753Z" fill="#FB6E27"/>
<path d="M51.6939 39.6416C51.2071 39.6416 50.8126 40.0362 50.8126 40.5229C50.8126 44.3832 47.672 47.5239 43.8115 47.5239C39.951 47.5239 36.8103 44.3832 36.8103 40.5229C36.8103 40.0362 36.4159 39.6416 35.9291 39.6416C35.4423 39.6416 35.0479 40.0362 35.0479 40.5229C35.0479 45.3551 38.9793 49.2864 43.8115 49.2864C48.6437 49.2864 52.5751 45.3551 52.5751 40.5229C52.5751 40.0362 52.1807 39.6416 51.6939 39.6416Z" fill="#FB6E27"/>
</g>
<defs>
<clipPath id="clip0_3874_48115">
<rect width="60" height="60" fill="white"/>
</clipPath>
</defs>
</svg>
