<svg width="50" height="50" viewBox="0 0 50 50" fill="none" xmlns="http://www.w3.org/2000/svg">
<g id="hearing 1">
<g id="Group">
<g id="Group_2">
<g id="Group_3">
<path id="Vector (Stroke)" fill-rule="evenodd" clip-rule="evenodd" d="M34.5822 12.8489C34.9548 13.0063 35.1294 13.4359 34.972 13.8086C33.7881 16.6119 33.1328 19.6917 33.1328 22.9241C33.1328 26.1458 33.7839 29.217 34.9613 32.0139C35.1182 32.3867 34.9432 32.8161 34.5704 32.9731C34.1976 33.13 33.7681 32.955 33.6112 32.5822C32.3595 29.609 31.668 26.3448 31.668 22.9241C31.668 19.4921 32.364 16.2187 33.6225 13.2387C33.7799 12.866 34.2096 12.6915 34.5822 12.8489Z" fill="white"/>
<path id="Vector (Stroke)_2" fill-rule="evenodd" clip-rule="evenodd" d="M37.627 14.1537C37.9997 14.3108 38.1746 14.7403 38.0175 15.1131C37.0047 17.5168 36.4453 20.1551 36.4453 22.9241C36.4453 25.6833 37.0015 28.3132 38.0069 30.7096C38.1634 31.0826 37.9879 31.5118 37.6149 31.6683C37.2419 31.8248 36.8127 31.6493 36.6562 31.2763C35.577 28.7041 34.9805 25.8819 34.9805 22.9241C34.9805 19.9561 35.5804 17.1246 36.6676 14.5443C36.8247 14.1715 37.2542 13.9967 37.627 14.1537Z" fill="white"/>
<path id="Vector (Stroke)_3" fill-rule="evenodd" clip-rule="evenodd" d="M40.67 15.4583C41.043 15.6148 41.2186 16.044 41.0621 16.417C40.2224 18.4192 39.7578 20.6174 39.7578 22.9241C39.7578 25.2213 40.2182 27.4098 41.0515 29.4056C41.2074 29.7789 41.0312 30.2078 40.6579 30.3637C40.2846 30.5196 39.8557 30.3433 39.6998 29.9701C38.7932 27.7989 38.293 25.4187 38.293 22.9241C38.293 20.419 38.7978 18.0285 39.7113 15.8504C39.8678 15.4774 40.297 15.3019 40.67 15.4583Z" fill="white"/>
<path id="Vector (Stroke)_4" fill-rule="evenodd" clip-rule="evenodd" d="M43.7102 16.7617C44.0837 16.9171 44.2603 17.3459 44.1049 17.7193C43.4381 19.3207 43.0703 21.079 43.0703 22.9241C43.0703 24.7607 43.4349 26.5096 44.0945 28.1053C44.2491 28.4791 44.0713 28.9074 43.6975 29.0619C43.3237 29.2165 42.8953 29.0387 42.7408 28.6649C42.0092 26.8951 41.6055 24.9563 41.6055 22.9241C41.6055 20.8828 42.0127 18.9334 42.7526 17.1563C42.908 16.7829 43.3368 16.6062 43.7102 16.7617Z" fill="white"/>
</g>
<path id="Vector (Stroke)_5" fill-rule="evenodd" clip-rule="evenodd" d="M16.7306 5.5396C12.697 4.10052 8.72441 5.94182 5.73257 8.19311C3.03932 10.2197 1.46484 13.409 1.46484 16.7879V40.752C1.46484 42.0306 1.76322 42.9477 2.20678 43.5834C2.64689 44.2142 3.26563 44.6199 4.00803 44.8215C5.52339 45.2331 7.56446 44.7849 9.36314 43.5506C9.69667 43.3218 10.1526 43.4066 10.3815 43.7401C10.6103 44.0737 10.5255 44.5296 10.1919 44.7585C8.15351 46.1572 5.67203 46.7913 3.6241 46.2351C2.58486 45.9529 1.66177 45.3622 1.00548 44.4217C0.352629 43.486 0 42.2569 0 40.752V16.7879C0 12.9544 1.78626 9.32941 4.8518 7.02263L4.85181 7.02263C7.95547 4.68721 12.4705 2.46444 17.2229 4.15993C18.503 4.6166 19.6502 5.23926 20.6673 5.9909C20.9926 6.2313 21.0615 6.68991 20.8211 7.01522C20.5807 7.34054 20.1221 7.40938 19.7967 7.16898C18.8932 6.50129 17.8732 5.94719 16.7307 5.53961L16.7306 5.5396Z" fill="white"/>
<path id="Vector (Stroke)_6" fill-rule="evenodd" clip-rule="evenodd" d="M22.2952 8.46109C22.6138 8.21179 23.0741 8.26792 23.3234 8.58647C26.0237 12.0368 27.1031 16.6166 26.8076 20.6625C26.5149 24.6716 24.8412 28.3992 21.7483 29.8606C18.2821 31.4984 16.4807 32.9041 15.5447 34.0477C14.6399 35.1533 14.5187 36.0432 14.5187 36.7792C14.5187 38.873 13.8393 40.7159 12.7839 42.2104C12.5505 42.5408 12.0935 42.6195 11.7631 42.3861C11.4327 42.1528 11.354 41.6958 11.5873 41.3654C12.4838 40.0959 13.0539 38.5443 13.0539 36.7792C13.0539 35.7844 13.2467 34.5427 14.4111 33.1199C15.5444 31.7352 17.5676 30.2159 21.1225 28.5362C23.518 27.4044 25.0706 24.3364 25.3467 20.5558C25.6201 16.8121 24.6109 12.6083 22.1699 9.48928C21.9206 9.17073 21.9767 8.71039 22.2952 8.46109Z" fill="white"/>
<path id="Vector (Stroke)_7" fill-rule="evenodd" clip-rule="evenodd" d="M7.22475 10.168C11.4655 6.73428 15.147 7.56346 15.9459 7.84818C20.8754 9.60478 22.7641 14.651 22.96 18.6217L22.2285 18.6578L22.96 18.6217C22.96 18.6217 22.96 18.6217 22.96 18.6217C23.0558 20.5616 22.767 22.2527 22.2629 23.5611C21.7714 24.8366 21.0281 25.8623 20.1253 26.2883C19.7595 26.4609 19.323 26.3043 19.1504 25.9384C18.9778 25.5726 19.1344 25.1361 19.5002 24.9635C19.9049 24.7725 20.4608 24.1639 20.896 23.0344C21.3185 21.9378 21.5838 20.4534 21.497 18.6939L21.497 18.6939C21.3144 14.9945 19.5742 10.6962 15.4541 9.22802L15.4541 9.228C15.0282 9.0762 11.9087 8.26026 8.14654 11.3064L8.14653 11.3064C7.02848 12.2117 6.17571 13.3627 5.7539 14.6743L5.05664 14.4501L5.75389 14.6743C5.53703 15.3488 5.96724 16.0508 6.65037 16.1628L6.6504 16.1628C7.67827 16.3312 9.04312 16.7331 9.91966 17.7514C10.8596 18.8434 11.0704 20.429 10.2102 22.5548C9.51688 24.2683 9.72241 25.5791 10.3452 26.5106C10.9863 27.4696 12.1521 28.1496 13.5938 28.3999C13.9924 28.4691 14.2594 28.8482 14.1902 29.2468C14.121 29.6453 13.7418 29.9123 13.3433 29.8431C11.6176 29.5435 10.047 28.7002 9.12741 27.3247C8.1895 25.9218 8.01007 24.0868 8.8523 22.0054C9.58296 20.1996 9.27592 19.2489 8.80946 18.707C8.27958 18.0914 7.34938 17.7617 6.41349 17.6083C4.83081 17.349 3.87333 15.7374 4.35938 14.2259L4.35939 14.2259C4.88172 12.6017 5.92191 11.2229 7.22475 10.168ZM7.22475 10.168L7.68564 10.7372L7.22475 10.168Z" fill="white"/>
<path id="Vector (Stroke)_8" fill-rule="evenodd" clip-rule="evenodd" d="M10.0846 23.6004C9.89957 23.9567 9.82129 24.2566 9.82129 24.4719C9.82129 25.7362 10.363 26.695 11.4194 27.1473C11.8558 27.3342 12.6198 27.1885 13.3862 26.5231C14.1201 25.886 14.6501 24.9294 14.6501 23.9306C14.6501 23.375 14.4112 22.7447 14.0068 22.2542C13.6012 21.7623 13.1063 21.498 12.643 21.498C12.4423 21.498 12.1611 21.5765 11.8225 21.7704C11.4912 21.9601 11.1485 22.2359 10.838 22.563C10.5279 22.8899 10.2657 23.2514 10.0846 23.6004ZM11.0946 20.4992C11.5622 20.2314 12.0981 20.0332 12.643 20.0332C13.6707 20.0332 14.5456 20.605 15.137 21.3223C15.7296 22.041 16.1149 22.9931 16.1149 23.9306C16.1149 25.4371 15.3321 26.7736 14.3466 27.6292C13.3937 28.4565 12.032 29.0031 10.8428 28.4939L10.8428 28.4939C9.13821 27.764 8.35645 26.1935 8.35645 24.4719C8.35645 23.9406 8.53604 23.404 8.78446 22.9255C9.03671 22.4396 9.3835 21.9678 9.77546 21.5547C10.1671 21.142 10.6198 20.7711 11.0946 20.4992Z" fill="white"/>
<path id="Vector (Stroke)_9" fill-rule="evenodd" clip-rule="evenodd" d="M47.7051 22.1914C47.2466 22.1914 46.875 22.563 46.875 23.0215C46.875 23.4799 47.2466 23.8516 47.7051 23.8516C48.1635 23.8516 48.5352 23.4799 48.5352 23.0215C48.5352 22.563 48.1635 22.1914 47.7051 22.1914ZM45.4102 23.0215C45.4102 21.754 46.4376 20.7266 47.7051 20.7266C48.9725 20.7266 50 21.754 50 23.0215C50 24.2889 48.9725 25.3164 47.7051 25.3164C46.4376 25.3164 45.4102 24.2889 45.4102 23.0215Z" fill="white"/>
<path id="Vector (Stroke)_10" fill-rule="evenodd" clip-rule="evenodd" d="M4.61635 32.3882C4.21748 32.4485 3.84472 32.1748 3.7831 31.7758C3.72136 31.376 3.99538 31.0019 4.39515 30.9402L4.50694 31.664C4.39515 30.9402 4.3955 30.9401 4.39586 30.94L4.39667 30.9399L4.39856 30.9396L4.40343 30.9389C4.40716 30.9384 4.41185 30.9377 4.41749 30.9369C4.42876 30.9353 4.44379 30.9333 4.46241 30.9311C4.49964 30.9265 4.55127 30.9208 4.61582 30.9151C4.74479 30.9038 4.92612 30.8927 5.14778 30.8916C5.58947 30.8893 6.20048 30.9267 6.88051 31.0867C8.2502 31.4089 9.91563 32.2363 10.9945 34.2224C11.1876 34.5779 11.0559 35.0225 10.7005 35.2156C10.345 35.4087 9.90036 35.2771 9.70728 34.9216C8.87647 33.3921 7.61993 32.7655 6.54506 32.5126C6.00281 32.385 5.5109 32.3546 5.15524 32.3564C4.97822 32.3573 4.83727 32.3662 4.74362 32.3744C4.69686 32.3785 4.6621 32.3824 4.64077 32.385C4.63011 32.3863 4.62282 32.3873 4.61908 32.3878L4.61635 32.3882Z" fill="white"/>
</g>
</g>
</g>
</svg>
