<svg width="51" height="50" viewBox="0 0 51 50" fill="none" xmlns="http://www.w3.org/2000/svg">
<g id="microphone 1">
<g id="Group">
<path id="Vector (Stroke)" fill-rule="evenodd" clip-rule="evenodd" d="M23.8535 40.5199C24.258 40.5199 24.5859 40.8478 24.5859 41.2523V46.3081C24.5859 46.7126 24.258 47.0405 23.8535 47.0405C23.449 47.0405 23.1211 46.7126 23.1211 46.3081V41.2523C23.1211 40.8478 23.449 40.5199 23.8535 40.5199Z" fill="white"/>
<path id="Vector (Stroke)_2" fill-rule="evenodd" clip-rule="evenodd" d="M26.8125 40.5199C27.217 40.5199 27.5449 40.8478 27.5449 41.2523V46.3081C27.5449 46.7126 27.217 47.0405 26.8125 47.0405C26.408 47.0405 26.0801 46.7126 26.0801 46.3081V41.2523C26.0801 40.8478 26.408 40.5199 26.8125 40.5199Z" fill="white"/>
<path id="Vector (Stroke)_3" fill-rule="evenodd" clip-rule="evenodd" d="M25.333 1.46484C20.8342 1.46484 17.1875 5.11154 17.1875 9.61035V11.6357C17.1875 12.0402 16.8596 12.3682 16.4551 12.3682C16.0506 12.3682 15.7227 12.0402 15.7227 11.6357V9.61035C15.7227 4.30253 20.0252 0 25.333 0C27.9862 0 30.39 1.07691 32.1281 2.81495C33.8675 4.55325 34.9434 6.95621 34.9434 9.61035V26.9727C34.9434 27.3772 34.6154 27.7051 34.2109 27.7051C33.8064 27.7051 33.4785 27.3772 33.4785 26.9727V9.61035C33.4785 7.36019 32.5681 5.32566 31.0926 3.85107L31.0925 3.85091C29.6177 2.37615 27.5821 1.46484 25.333 1.46484Z" fill="white"/>
<path id="Vector (Stroke)_4" fill-rule="evenodd" clip-rule="evenodd" d="M16.4551 14.3213C16.8596 14.3213 17.1875 14.6492 17.1875 15.0537V26.9727C17.1875 27.3772 16.8596 27.7051 16.4551 27.7051C16.0506 27.7051 15.7227 27.3772 15.7227 26.9727V15.0537C15.7227 14.6492 16.0506 14.3213 16.4551 14.3213Z" fill="white"/>
<path id="Vector (Stroke)_5" fill-rule="evenodd" clip-rule="evenodd" d="M13.749 27.7617C13.749 26.9217 14.4305 26.2402 15.2705 26.2402H35.3955C36.2356 26.2402 36.917 26.9217 36.917 27.7617V29.1436C36.917 29.9836 36.2356 30.665 35.3955 30.665H30.001C29.5965 30.665 29.2686 30.3371 29.2686 29.9326C29.2686 29.5281 29.5965 29.2002 30.001 29.2002H35.3955C35.4265 29.2002 35.4521 29.1746 35.4521 29.1436V27.7617C35.4521 27.7307 35.4266 27.7051 35.3955 27.7051H15.2705C15.2395 27.7051 15.2139 27.7307 15.2139 27.7617V29.1436C15.2139 29.1746 15.2395 29.2002 15.2705 29.2002H26.583C26.9875 29.2002 27.3154 29.5281 27.3154 29.9326C27.3154 30.3371 26.9875 30.665 26.583 30.665H15.2705C14.4305 30.665 13.749 29.9836 13.749 29.1436V27.7617Z" fill="white"/>
<path id="Vector (Stroke)_6" fill-rule="evenodd" clip-rule="evenodd" d="M25.3332 34.6108C24.9205 34.6108 24.5859 34.9454 24.5859 35.3581C24.5859 35.7708 24.9205 36.1054 25.3332 36.1054C25.7459 36.1054 26.0805 35.7708 26.0805 35.3581C26.0805 34.9454 25.7459 34.6108 25.3332 34.6108ZM23.1211 35.3581C23.1211 34.1364 24.1115 33.146 25.3332 33.146C26.5549 33.146 27.5453 34.1364 27.5453 35.3581C27.5453 36.5798 26.5549 37.5702 25.3332 37.5702C24.1115 37.5702 23.1211 36.5798 23.1211 35.3581Z" fill="white"/>
<path id="Vector (Stroke)_7" fill-rule="evenodd" clip-rule="evenodd" d="M16.4551 29.2C16.8596 29.2 17.1875 29.5279 17.1875 29.9324V32.4972C17.1875 36.9961 20.8346 40.6432 25.3335 40.6432C29.8324 40.6432 33.4795 36.9961 33.4795 32.4972V29.9324C33.4795 29.5279 33.8074 29.2 34.2119 29.2C34.6164 29.2 34.9443 29.5279 34.9443 29.9324V32.4972C34.9443 37.8051 30.6414 42.1081 25.3335 42.1081C20.0256 42.1081 15.7227 37.8051 15.7227 32.4972V29.9324C15.7227 29.5279 16.0506 29.2 16.4551 29.2Z" fill="white"/>
<path id="Vector (Stroke)_8" fill-rule="evenodd" clip-rule="evenodd" d="M16.4551 47.041C15.7693 47.041 15.2139 47.5964 15.2139 48.2812V48.5352H35.4521V48.2812C35.4521 47.5964 34.8967 47.041 34.2109 47.041H20.9277C20.5232 47.041 20.1953 46.7131 20.1953 46.3086C20.1953 45.9041 20.5232 45.5762 20.9277 45.5762H34.2109C35.7048 45.5762 36.917 46.7864 36.917 48.2812V49.2676C36.917 49.6721 36.5891 50 36.1846 50H14.4814C14.0769 50 13.749 49.6721 13.749 49.2676V48.2812C13.749 46.7864 14.9612 45.5762 16.4551 45.5762H17.5098C17.9143 45.5762 18.2422 45.9041 18.2422 46.3086C18.2422 46.7131 17.9143 47.041 17.5098 47.041H16.4551Z" fill="white"/>
<path id="Vector (Stroke)_9" fill-rule="evenodd" clip-rule="evenodd" d="M11.7764 49.2676C11.7764 48.8631 12.1043 48.5352 12.5088 48.5352H38.1574C38.5619 48.5352 38.8898 48.8631 38.8898 49.2676C38.8898 49.6721 38.5619 50 38.1574 50H12.5088C12.1043 50 11.7764 49.6721 11.7764 49.2676Z" fill="white"/>
<path id="Vector (Stroke)_10" fill-rule="evenodd" clip-rule="evenodd" d="M38.7819 11.5558C39.0679 11.2698 39.5317 11.2698 39.8177 11.5558C42.9885 14.7266 42.9885 19.8841 39.8177 23.0549C39.5317 23.3409 39.0679 23.3409 38.7819 23.0549C38.4959 22.7689 38.4959 22.3051 38.7819 22.0191C41.3806 19.4204 41.3806 15.1904 38.7819 12.5916C38.4959 12.3056 38.4959 11.8419 38.7819 11.5558Z" fill="white"/>
<path id="Vector (Stroke)_11" fill-rule="evenodd" clip-rule="evenodd" d="M36.6901 13.6485C36.9761 13.3625 37.4399 13.3625 37.7259 13.6485C39.7428 15.6654 39.7428 18.9454 37.7259 20.9622C37.4399 21.2482 36.9761 21.2482 36.6901 20.9622C36.4041 20.6762 36.4041 20.2124 36.6901 19.9264C38.1349 18.4817 38.1349 16.1291 36.6901 14.6843C36.4041 14.3983 36.4041 13.9345 36.6901 13.6485Z" fill="white"/>
<path id="Vector (Stroke)_12" fill-rule="evenodd" clip-rule="evenodd" d="M11.8836 11.5558C12.1697 11.8419 12.1697 12.3056 11.8836 12.5916C9.28489 15.1904 9.28489 19.4204 11.8836 22.0191C12.1697 22.3051 12.1697 22.7689 11.8836 23.0549C11.5976 23.3409 11.1339 23.3409 10.8478 23.0549C7.67703 19.8841 7.67703 14.7266 10.8478 11.5558C11.1339 11.2698 11.5976 11.2698 11.8836 11.5558Z" fill="white"/>
<path id="Vector (Stroke)_13" fill-rule="evenodd" clip-rule="evenodd" d="M13.9762 13.6485C14.2622 13.9345 14.2622 14.3983 13.9762 14.6843C12.5314 16.1291 12.5314 18.4817 13.9762 19.9264C14.2622 20.2124 14.2622 20.6762 13.9762 20.9622C13.6902 21.2482 13.2265 21.2482 12.9404 20.9622C10.9235 18.9454 10.9235 15.6654 12.9404 13.6485C13.2264 13.3625 13.6902 13.3625 13.9762 13.6485Z" fill="white"/>
</g>
</g>
</svg>
