<svg width="51" height="50" viewBox="0 0 51 50" fill="none" xmlns="http://www.w3.org/2000/svg">
<g id="noise 2" clip-path="url(#clip0_369_403)">
<g id="Group">
<path id="Vector" d="M25.667 16.8594C28.8105 16.8594 31.3682 14.3019 31.3682 11.1582C31.3682 10.6183 31.293 10.0856 31.1447 9.5751C31.032 9.18662 30.6257 8.96318 30.2372 9.07598C29.8486 9.18877 29.6252 9.59512 29.7381 9.98359C29.8478 10.3614 29.9033 10.7566 29.9033 11.1582C29.9033 13.4941 28.0029 15.3945 25.667 15.3945C23.3311 15.3945 21.4307 13.4941 21.4307 11.1582C21.4307 8.82227 23.3311 6.92187 25.667 6.92187C26.5257 6.92187 27.3523 7.17734 28.0575 7.66074C28.3912 7.88945 28.8471 7.8043 29.0758 7.4707C29.3045 7.13701 29.2194 6.68115 28.8857 6.45244C27.9356 5.80127 26.8226 5.45703 25.667 5.45703C22.5233 5.45703 19.9658 8.01455 19.9658 11.1582C19.9658 14.3019 22.5233 16.8594 25.667 16.8594Z" fill="white"/>
<path id="Vector_2" d="M30.9252 17.5543H20.4088C17.6768 17.5543 15.4541 19.777 15.4541 22.509V33.9821C15.4541 35.6159 16.7833 36.9451 18.4172 36.9451C18.9635 36.9451 19.4753 36.7959 19.9151 36.5371V41.6016C19.9151 42.0061 20.2431 42.334 20.6476 42.334C21.0521 42.334 21.38 42.0061 21.38 41.6016V33.9952C21.38 33.9908 21.3803 33.9865 21.3803 33.9821V23.645C21.3803 23.2406 21.0523 22.9126 20.6479 22.9126C20.2434 22.9126 19.9154 23.2406 19.9154 23.645L19.9151 33.9886C19.9115 34.8117 19.2411 35.4803 18.4172 35.4803C17.591 35.4803 16.9189 34.8082 16.9189 33.9821V22.509C16.9189 20.5847 18.4845 19.0192 20.4088 19.0192H30.9252C32.8495 19.0192 34.415 20.5847 34.415 22.509V33.9821C34.415 34.8082 33.7429 35.4803 32.9167 35.4803C32.0905 35.4803 31.4185 34.8082 31.4185 33.9821V23.645C31.4185 23.2406 31.0906 22.9126 30.686 22.9126C30.2814 22.9126 29.9536 23.2406 29.9536 23.645L29.9532 46.7578C29.9532 47.2328 29.7686 47.6791 29.4335 48.0144C29.0977 48.3502 28.6513 48.5352 28.177 48.5352C27.197 48.5352 26.3996 47.7378 26.3996 46.7578C26.3996 46.7572 26.3995 46.7566 26.3995 46.756V33.4199C26.3995 33.0155 26.0717 32.6875 25.6671 32.6875C25.2626 32.6875 24.9347 33.0155 24.9347 33.4199V46.7597C24.9336 47.7389 24.1368 48.5352 23.1574 48.5352C22.1774 48.5352 21.3801 47.7378 21.3801 46.7578V45.0137C21.3801 44.6092 21.0521 44.2813 20.6477 44.2813C20.2432 44.2813 19.9152 44.6092 19.9152 45.0137V46.7578C19.9152 48.5456 21.3697 50 23.1574 50C24.1681 50 25.0722 49.5353 25.6672 48.8081C26.2623 49.5352 27.1664 50 28.177 50C29.0426 50 29.8566 49.6627 30.4693 49.0501C31.0813 48.4381 31.4182 47.624 31.4182 46.7578V36.5366C31.8582 36.7958 32.3703 36.9451 32.9169 36.9451C34.5508 36.9451 35.8801 35.6159 35.8801 33.9821V22.509C35.8799 19.777 33.6572 17.5543 30.9252 17.5543Z" fill="white"/>
<path id="Vector_3" d="M41.37 13.8514C41.37 10.0309 42.8531 6.44382 45.5462 3.75085C46.4027 2.89412 46.4027 1.50017 45.5462 0.643433C45.1312 0.228394 44.5794 -0.00012207 43.9925 -0.00012207C43.4055 -0.00012207 42.8537 0.228491 42.4388 0.643433C38.9158 4.16638 36.9756 8.85711 36.9756 13.8513C36.9756 18.8457 38.9158 23.5363 42.4388 27.0594C42.8538 27.4744 43.4056 27.7029 43.9925 27.7029C44.5795 27.7029 45.1312 27.4743 45.5462 27.0594C46.4027 26.2026 46.4027 24.8087 45.5461 23.9519C42.853 21.2591 41.37 17.6719 41.37 13.8514ZM44.5103 26.0236C44.372 26.162 44.188 26.2382 43.9924 26.2382C43.7967 26.2382 43.6128 26.162 43.4745 26.0237C40.2281 22.7774 38.4402 18.4546 38.4402 13.8515C38.4402 9.24851 40.2281 4.92576 43.4745 1.67937C43.6128 1.54099 43.7968 1.46492 43.9924 1.46492C44.1881 1.46492 44.372 1.54109 44.5103 1.67937C44.7959 1.96492 44.7959 2.42966 44.5103 2.71521C41.5406 5.68484 39.9052 9.63982 39.9052 13.8515C39.9052 18.0633 41.5406 22.0182 44.5103 24.9879C44.7959 25.2733 44.7959 25.7381 44.5103 26.0236Z" fill="white"/>
<path id="Vector_4" d="M47.6942 13.8515C47.6942 11.7274 48.5215 9.7303 50.0234 8.22825C50.4385 7.81321 50.6671 7.26145 50.6671 6.67444C50.6671 6.08752 50.4385 5.53577 50.0235 5.12073C49.6085 4.70569 49.0567 4.47717 48.4698 4.47717C47.8829 4.47717 47.3312 4.70569 46.9161 5.12073C44.5841 7.45276 43.2998 10.5533 43.2998 13.8514C43.2998 17.1494 44.5841 20.25 46.9161 22.5821C47.3312 22.9971 47.8829 23.2256 48.4698 23.2256C49.0567 23.2256 49.6085 22.997 50.0234 22.5821C50.4385 22.167 50.6671 21.6153 50.6671 21.0282C50.6671 20.4413 50.4385 19.8896 50.0235 19.4745C48.5214 17.9727 47.6942 15.9756 47.6942 13.8515ZM48.9876 21.5464C48.8493 21.6848 48.6653 21.761 48.4697 21.761C48.2741 21.761 48.0901 21.6848 47.9519 21.5464C45.8964 19.491 44.7645 16.7583 44.7645 13.8516C44.7645 10.9448 45.8964 8.21204 47.9519 6.15666C48.0901 6.01838 48.274 5.94221 48.4697 5.94221C48.6654 5.94221 48.8493 6.01838 48.9877 6.15676C49.126 6.29514 49.2021 6.47903 49.2021 6.67463C49.2021 6.87024 49.126 7.05422 48.9876 7.1926C47.2089 8.97131 46.2294 11.3363 46.2294 13.8517C46.2294 16.3671 47.2089 18.732 48.9877 20.5108C49.126 20.6491 49.2021 20.833 49.2021 21.0286C49.2021 21.224 49.126 21.408 48.9876 21.5464Z" fill="white"/>
<path id="Vector_5" d="M7.34082 0C6.75391 0 6.20215 0.228516 5.78711 0.643555C5.37207 1.05859 5.14355 1.61035 5.14355 2.19727C5.14355 2.78418 5.37207 3.33594 5.78711 3.75098C8.48008 6.44395 9.96318 10.0311 9.96318 13.8516C9.96318 17.6721 8.48008 21.2592 5.78711 23.9521C5.37207 24.3671 5.14355 24.9188 5.14355 25.5058C5.14355 26.0927 5.37207 26.6445 5.78711 27.0595C6.20215 27.4744 6.75391 27.703 7.34082 27.703C7.92764 27.703 8.47949 27.4745 8.89443 27.0595C12.4175 23.5365 14.3576 18.8459 14.3576 13.8515C14.3576 8.85713 12.4174 4.1665 8.89443 0.643555C8.47959 0.228613 7.92773 0 7.34082 0ZM7.85869 26.0236C7.72031 26.162 7.53643 26.2381 7.34082 26.2381C7.14522 26.2381 6.96123 26.1619 6.82295 26.0235C6.5374 25.738 6.5374 25.2732 6.82295 24.9877C9.79258 22.0181 11.428 18.0632 11.428 13.8514C11.428 9.63955 9.79258 5.68477 6.82295 2.71514C6.5374 2.42959 6.5374 1.96484 6.82295 1.6793C6.96123 1.54102 7.14522 1.46484 7.34082 1.46484C7.53643 1.46484 7.72041 1.54102 7.85869 1.67939C11.105 4.92568 12.8929 9.24854 12.8929 13.8516C12.8929 18.4546 11.1051 22.7773 7.85869 26.0236Z" fill="white"/>
<path id="Vector_6" d="M4.41809 5.12092C4.00335 4.70608 3.45149 4.47766 2.86399 4.47766C2.27659 4.47766 1.72463 4.70608 1.30959 5.12131C0.453931 5.97844 0.454126 7.372 1.30999 8.22795C2.81213 9.7301 3.63938 11.7273 3.63938 13.8516C3.63938 14.4494 3.57356 15.0433 3.44368 15.6165C3.35422 16.0111 3.60159 16.4032 3.99612 16.4927C4.39085 16.5822 4.78293 16.3348 4.87229 15.9403C5.0262 15.261 5.10422 14.5583 5.10422 13.8517C5.10422 11.3361 4.12463 8.97102 2.34573 7.19221C2.06047 6.90696 2.06067 6.44221 2.34573 6.15666C2.48381 6.01858 2.6678 5.9425 2.86389 5.9425C3.05999 5.9425 3.24397 6.01858 3.38215 6.15666C5.43723 8.21174 6.56897 10.9446 6.56897 13.8516C6.56897 16.7578 5.43713 19.4906 3.38215 21.5466C3.24377 21.685 3.05969 21.7613 2.86389 21.7613C2.66809 21.7613 2.48411 21.685 2.34612 21.547C2.06067 21.261 2.06067 20.7957 2.34573 20.5101C2.71858 20.1372 3.06047 19.7337 3.36184 19.3108C3.59661 18.9814 3.51985 18.524 3.19036 18.2893C2.86086 18.0545 2.40354 18.1313 2.16887 18.4608C1.91458 18.8177 1.62551 19.1587 1.3095 19.4747C0.454224 20.3314 0.454224 21.7252 1.30989 22.5823C1.72493 22.9975 2.27688 23.2261 2.86389 23.2261C3.4509 23.2261 4.00286 22.9975 4.41809 22.5823C6.74973 20.2495 8.03381 17.1489 8.03381 13.8516C8.03391 10.5531 6.74973 7.45256 4.41809 5.12092Z" fill="white"/>
</g>
</g>
<defs>
<clipPath id="clip0_369_403">
<rect width="50" height="50" fill="white" transform="translate(0.666992)"/>
</clipPath>
</defs>
</svg>
