<svg width="24" height="24" viewBox="0 0 24 24" fill="none" xmlns="http://www.w3.org/2000/svg">
<path d="M20.9 7.1709C19.8824 5.9922 18.0865 5.7549 15.52 5.7549L12.1426 5.75C10.8226 5.75 9.7087 5.761 8.7644 5.8282C7.8918 2.4779 7.2185 2.25 3 2.25C2.80109 2.25 2.61032 2.32902 2.46967 2.46967C2.32902 2.61032 2.25 2.80109 2.25 3C2.25 3.19891 2.32902 3.38968 2.46967 3.53033C2.61032 3.67098 2.80109 3.75 3 3.75C6.2239 3.75 6.6714 3.756 7.2713 6.0278C6.49175 6.12847 5.77699 6.51394 5.2646 7.11C4.4263 8.2252 4.6924 9.9068 5.4766 12.62C6.6338 16.622 7.7397 18.244 11.168 18.244C11.7704 18.2395 12.3721 18.2005 12.97 18.127C19.8074 17.3281 20.9949 16.1641 21.5267 12.5781C21.8818 10.1807 21.9116 8.3438 20.9 7.1709ZM20.0431 12.3574C19.6764 14.8281 19.525 15.8506 12.796 16.6367C8.9708 17.0811 8.1485 16.4609 6.9181 12.2041C6.3976 10.4041 5.9825 8.6514 6.4635 8.0117C6.77686 7.70314 7.18752 7.5128 7.6255 7.4731L8.5211 11.1768C8.56074 11.3402 8.65416 11.4856 8.78635 11.5895C8.91854 11.6935 9.08183 11.75 9.25 11.75C9.30959 11.75 9.36896 11.7428 9.4268 11.7285C9.52258 11.7054 9.61287 11.6637 9.69251 11.6057C9.77215 11.5477 9.83956 11.4746 9.8909 11.3905C9.94223 11.3064 9.97648 11.213 9.99169 11.1157C10.0069 11.0183 10.0027 10.9189 9.9795 10.8232L9.1281 7.3043C9.9709 7.2574 10.9844 7.25 12.1421 7.25L15.519 7.2549C17.9849 7.2549 19.2148 7.5149 19.7642 8.1514C20.3037 8.7764 20.3873 10.0352 20.0431 12.3574Z" fill="white"/>
<path d="M16.75 21.75C17.4404 21.75 18 21.1904 18 20.5C18 19.8096 17.4404 19.25 16.75 19.25C16.0596 19.25 15.5 19.8096 15.5 20.5C15.5 21.1904 16.0596 21.75 16.75 21.75Z" fill="white"/>
<path d="M9.75 21.75C10.4404 21.75 11 21.1904 11 20.5C11 19.8096 10.4404 19.25 9.75 19.25C9.05964 19.25 8.5 19.8096 8.5 20.5C8.5 21.1904 9.05964 21.75 9.75 21.75Z" fill="white"/>
</svg>
