<svg width="20" height="20" viewBox="0 0 20 20" fill="none" xmlns="http://www.w3.org/2000/svg">
<g id="close (2) 1" clip-path="url(#clip0_628_3929)">
<g id="Group">
<path id="Vector" d="M11.7688 10.0002L19.6335 2.13541C20.1222 1.64719 20.1222 0.855049 19.6335 0.366838C19.1449 -0.121791 18.3536 -0.121791 17.865 0.366838L10.0002 8.23159L2.13504 0.366838C1.64641 -0.121791 0.8551 -0.121791 0.366471 0.366838C-0.122157 0.855049 -0.122157 1.64719 0.366471 2.13541L8.23164 10.0002L0.366471 17.8649C-0.122157 18.3531 -0.122157 19.1453 0.366471 19.6335C0.610786 19.8774 0.930979 19.9995 1.25076 19.9995C1.57053 19.9995 1.89073 19.8774 2.13504 19.6331L10.0002 11.7683L17.865 19.6331C18.1093 19.8774 18.4295 19.9995 18.7492 19.9995C19.069 19.9995 19.3892 19.8774 19.6335 19.6331C20.1222 19.1448 20.1222 18.3527 19.6335 17.8645L11.7688 10.0002Z" fill="white"/>
</g>
</g>
<defs>
<clipPath id="clip0_628_3929">
<rect width="20" height="20" fill="white"/>
</clipPath>
</defs>
</svg>
