<svg width="16" height="16" viewBox="0 0 16 16" fill="none" xmlns="http://www.w3.org/2000/svg">
<g id="close (2) 1" clip-path="url(#clip0_1329_7294)">
<g id="Group">
<path id="Vector" d="M9.41502 8.0002L15.7068 1.7084C16.0977 1.31783 16.0977 0.684113 15.7068 0.293543C15.3159 -0.0973595 14.6829 -0.0973595 14.292 0.293543L8.00017 6.58534L1.70803 0.293543C1.31713 -0.0973595 0.68408 -0.0973595 0.293177 0.293543C-0.0977257 0.684113 -0.0977257 1.31783 0.293177 1.7084L6.58531 8.0002L0.293177 14.292C-0.0977257 14.6826 -0.0977257 15.3163 0.293177 15.7069C0.488629 15.902 0.744783 15.9997 1.0006 15.9997C1.25643 15.9997 1.51258 15.902 1.70803 15.7065L8.00017 9.41472L14.292 15.7065C14.4874 15.902 14.7436 15.9997 14.9994 15.9997C15.2552 15.9997 15.5114 15.902 15.7068 15.7065C16.0977 15.316 16.0977 14.6822 15.7068 14.2917L9.41502 8.0002Z" fill="#BEC1C7"/>
</g>
</g>
<defs>
<clipPath id="clip0_1329_7294">
<rect width="16" height="16" fill="white"/>
</clipPath>
</defs>
</svg>
