<svg width="54" height="54" viewBox="0 0 54 54" fill="none" xmlns="http://www.w3.org/2000/svg">
<g id="Icon 398 1">
<g id="Group">
<path id="Vector" d="M53.4791 29.1566V35.1949C53.4791 37.4377 52.0901 39.3355 50.1801 40.0256V43.131C50.1801 47.2716 46.7074 50.7221 42.5402 50.7221H38.7203C38.1994 52.2748 36.8103 53.3099 35.074 53.3099H31.2541C30.2123 53.3099 29.3441 52.9649 28.4759 52.2748C27.7814 51.5847 27.4341 50.5495 27.4341 49.5144C27.4341 48.1342 28.3023 46.754 29.6914 46.0639C30.2123 45.8914 30.7332 45.7189 31.2541 45.7189H35.2476C36.2894 45.7189 37.3312 46.0639 38.0258 46.754C38.373 47.0991 38.7203 47.6166 38.8939 48.1342H42.7139C45.492 48.1342 47.9229 45.8914 47.9229 42.9585V40.3706C46.1865 40.1981 44.6238 38.6454 44.6238 36.9202V27.0863C44.6238 25.361 46.0129 23.8083 47.7492 23.6358C47.2283 18.6326 45.1447 14.147 41.6721 10.524C37.6785 6.55593 32.6431 4.48565 27.0869 4.48565C15.9743 4.48565 6.94538 12.9393 6.42448 23.8083C8.16082 23.9809 9.54989 25.5336 9.54989 27.2588V37.0927C9.54989 38.9904 7.98718 40.5432 6.07722 40.5432C3.12545 40.5432 0.69458 38.1278 0.69458 35.1949V29.1566C0.69458 26.9138 2.08365 25.016 3.99362 24.1534C4.16725 11.9042 14.4116 2.07031 26.9132 2.07031C33.164 2.07031 38.8939 4.48565 43.2348 8.79875C47.402 12.9393 49.8328 18.4601 50.0065 24.3259C52.0901 25.016 53.4791 26.9138 53.4791 29.1566Z" fill="#125A66"/>
</g>
<path id="Vector_2" d="M51.0482 25.0159H46.881V38.3002H51.0482V25.0159Z" fill="#125A66"/>
<path id="Vector_3" d="M37.6784 47.6167H28.4758V51.4122H37.6784V47.6167Z" fill="#125A66"/>
<g id="Group_2">
<path id="Vector_4" d="M38.8939 15.6997C37.8521 14.6645 36.463 14.147 35.0739 14.147H18.7524C15.8006 14.147 13.3698 16.5623 13.3698 19.4952V30.3642C13.3698 33.2971 15.8006 35.7125 18.7524 35.7125H18.926V38.4729C18.926 39.508 19.6206 40.5431 20.4887 40.8882C20.836 41.0607 21.1833 41.0607 21.5305 41.0607C22.2251 41.0607 22.9196 40.7157 23.4405 40.1981L28.1286 35.5399H35.2476C38.1993 35.5399 40.6302 33.1246 40.6302 30.1917V19.3227C40.4566 18.115 39.9357 16.7348 38.8939 15.6997ZM32.9903 26.5687C31.9485 26.5687 31.0804 25.7061 31.0804 24.6709C31.0804 23.6358 31.9485 22.7732 32.9903 22.7732C34.0321 22.7732 34.9003 23.6358 34.9003 24.6709C34.7267 25.7061 33.8585 26.5687 32.9903 26.5687ZM26.7395 26.5687C25.6977 26.5687 24.8296 25.7061 24.8296 24.6709C24.8296 23.6358 25.6977 22.7732 26.7395 22.7732C27.7813 22.7732 28.6495 23.6358 28.6495 24.6709C28.6495 25.7061 27.7813 26.5687 26.7395 26.5687ZM20.6624 26.5687C19.6206 26.5687 18.7524 25.7061 18.7524 24.6709C18.7524 23.6358 19.6206 22.7732 20.6624 22.7732C21.7042 22.7732 22.5723 23.6358 22.5723 24.6709C22.5723 25.7061 21.7042 26.5687 20.6624 26.5687Z" fill="#125A66"/>
</g>
</g>
</svg>
