<svg width="31" height="31" viewBox="0 0 31 31" fill="none" xmlns="http://www.w3.org/2000/svg">
<g clip-path="url(#clip0_787_16413)">
<path d="M28.8232 13.5155C28.7046 10.134 27.3352 6.97204 24.9308 4.5676C22.4106 2.04691 19.0611 0.65918 15.5 0.65918C8.30753 0.65918 2.4306 6.38401 2.17727 13.5155C1.07968 14.0032 0.311462 15.1018 0.311462 16.3786V19.8961C0.311462 21.6234 1.71663 23.0291 3.4444 23.0291C4.56234 23.0291 5.47151 22.1199 5.47151 21.002V15.2723C5.47151 14.2226 4.66648 13.3668 3.64299 13.265C4.02081 7.05196 9.19296 2.1123 15.5 2.1123C18.6736 2.1123 21.6579 3.3494 23.9039 5.59545C25.9664 7.65791 27.1734 10.3462 27.3551 13.2655C26.3326 13.3682 25.529 14.2236 25.529 15.2723V21.0015C25.529 22.0598 26.3466 22.9211 27.3822 23.0107V24.4585C27.3822 26.0889 26.0555 27.4151 24.4251 27.4151H22.2352C22.1277 27.108 21.9591 26.8242 21.7228 26.5887C21.3086 26.1727 20.7564 25.9436 20.1684 25.9436H17.9112C17.5872 25.9436 17.2762 26.0123 16.9914 26.1451C16.2145 26.502 15.7126 27.2858 15.7126 28.1416C15.7126 28.7297 15.9418 29.2819 16.3569 29.695C16.772 30.1111 17.3242 30.3402 17.9112 30.3402H20.1684C21.1042 30.3402 21.9291 29.7352 22.2367 28.8682H24.4251C26.8571 28.8682 28.8353 26.89 28.8353 24.4585V22.752C29.9261 22.2613 30.6886 21.1666 30.6886 19.8952V16.3776C30.6886 15.1018 29.9203 14.0032 28.8232 13.5155ZM4.0179 15.2723V21.0015C4.0179 21.3178 3.7607 21.5755 3.44392 21.5755C2.51779 21.5755 1.7641 20.8218 1.7641 19.8956V16.3781C1.7641 15.4515 2.51779 14.6983 3.44392 14.6983C3.7607 14.6983 4.0179 14.956 4.0179 15.2723ZM20.8974 28.2976C20.8252 28.6396 20.5181 28.8881 20.1679 28.8881H17.9107C17.7122 28.8881 17.5257 28.8106 17.3833 28.6682C17.2428 28.5282 17.1653 28.3412 17.1653 28.1426C17.1653 27.8525 17.3353 27.5875 17.6017 27.465C17.6966 27.4204 17.8008 27.3976 17.9107 27.3976H20.1679C20.3665 27.3976 20.553 27.4747 20.6949 27.6171C20.8354 27.7571 20.9129 27.944 20.9129 28.1426C20.9134 28.1959 20.9076 28.2492 20.8974 28.2976ZM29.2354 19.8956C29.2354 20.8218 28.4817 21.5755 27.5556 21.5755C27.2393 21.5755 26.9816 21.3183 26.9816 21.0015V15.2723C26.9816 14.956 27.2388 14.6983 27.5556 14.6983C28.4817 14.6983 29.2354 15.452 29.2354 16.3781V19.8956Z" fill="#212121"/>
<path d="M20.2048 20.1461C21.9025 20.1461 23.2835 18.7647 23.2835 17.0674V10.7943C23.2835 9.97373 22.9628 9.20067 22.3806 8.61845C21.7984 8.03623 21.0258 7.71558 20.2048 7.71558H10.7953C9.09757 7.71558 7.71661 9.09653 7.71661 10.7943V17.0674C7.71661 18.7651 9.09757 20.1461 10.7953 20.1461H10.8529V21.7717C10.8529 22.3917 11.2225 22.9419 11.7941 23.1739C11.9786 23.248 12.1704 23.2848 12.3603 23.2848C12.7561 23.2848 13.1416 23.1279 13.424 22.8358L16.1283 20.1461H20.2048ZM15.3169 18.9042L12.3903 21.8148C12.3773 21.8283 12.3676 21.8385 12.34 21.8264C12.3066 21.8128 12.3066 21.791 12.3066 21.7717V19.4195C12.3066 19.0185 11.9815 18.693 11.58 18.693H10.7958C9.89921 18.693 9.17022 17.9635 9.17022 17.0674V10.7943C9.17022 9.89769 9.89921 9.1687 10.7958 9.1687H20.2053C20.6383 9.1687 21.0456 9.33823 21.3537 9.64581C21.6618 9.95387 21.8308 10.3617 21.8308 10.7943V17.0674C21.8308 17.964 21.1013 18.693 20.2053 18.693H15.8294C15.6371 18.693 15.4531 18.769 15.3169 18.9042Z" fill="#212121"/>
<path d="M11.9704 12.9749C11.3794 12.9749 10.8984 13.4563 10.8984 14.0468C10.8984 14.6372 11.3799 15.1187 11.9704 15.1187C12.5618 15.1187 13.0432 14.6372 13.0432 14.0468C13.0432 13.4563 12.5623 12.9749 11.9704 12.9749Z" fill="#212121"/>
<path d="M15.4995 12.9749C14.9086 12.9749 14.4276 13.4563 14.4276 14.0468C14.4276 14.6372 14.9091 15.1187 15.4995 15.1187C16.0914 15.1187 16.5724 14.6372 16.5724 14.0468C16.5724 13.4563 16.0914 12.9749 15.4995 12.9749Z" fill="#212121"/>
<path d="M19.0287 12.9749C18.4378 12.9749 17.9568 13.4563 17.9568 14.0468C17.9568 14.6372 18.4383 15.1187 19.0287 15.1187C19.6201 15.1187 20.1016 14.6372 20.1016 14.0468C20.1016 13.4563 19.6201 12.9749 19.0287 12.9749Z" fill="#212121"/>
</g>
<defs>
<clipPath id="clip0_787_16413">
<rect width="31" height="31" fill="white"/>
</clipPath>
</defs>
</svg>
