<svg width="54" height="54" viewBox="0 0 54 54" fill="none" xmlns="http://www.w3.org/2000/svg">
<path d="M53.4789 29.1566V35.1949C53.4789 37.4377 52.0898 39.3355 50.1799 40.0256V43.131C50.1799 47.2716 46.7072 50.7221 42.54 50.7221H38.7201C38.1992 52.2748 36.8101 53.3099 35.0738 53.3099H31.2538C30.212 53.3099 29.3439 52.9649 28.4757 52.2748C27.7812 51.5847 27.4339 50.5495 27.4339 49.5144C27.4339 48.1342 28.3021 46.754 29.6911 46.0639C30.212 45.8914 30.7329 45.7189 31.2538 45.7189H35.2474C36.2892 45.7189 37.331 46.0639 38.0255 46.754C38.3728 47.0991 38.7201 47.6166 38.8937 48.1342H42.7136C45.4918 48.1342 47.9226 45.8914 47.9226 42.9585V40.3706C46.1863 40.1981 44.6236 38.6454 44.6236 36.9202V27.0863C44.6236 25.361 46.0127 23.8083 47.749 23.6358C47.2281 18.6326 45.1445 14.147 41.6718 10.524C37.6783 6.55593 32.6429 4.48565 27.0866 4.48565C15.9741 4.48565 6.94514 12.9393 6.42424 23.8083C8.16057 23.9809 9.54964 25.5336 9.54964 27.2588V37.0927C9.54964 38.9904 7.98694 40.5432 6.07697 40.5432C3.1252 40.5432 0.694336 38.1278 0.694336 35.1949V29.1566C0.694336 26.9138 2.0834 25.016 3.99337 24.1534C4.167 11.9042 14.4114 2.07031 26.913 2.07031C33.1638 2.07031 38.8937 4.48565 43.2345 8.79875C47.4017 12.9393 49.8326 18.4601 50.0062 24.3259C52.0898 25.016 53.4789 26.9138 53.4789 29.1566Z" fill="#125A66"/>
<path d="M51.0481 25.0159H46.8809V38.3002H51.0481V25.0159Z" fill="#125A66"/>
<path d="M37.6786 47.6167H28.4761V51.4122H37.6786V47.6167Z" fill="#125A66"/>
<path d="M38.8937 15.6997C37.8519 14.6645 36.4629 14.147 35.0738 14.147H18.7523C15.8005 14.147 13.3696 16.5623 13.3696 19.4952V30.3642C13.3696 33.2971 15.8005 35.7125 18.7523 35.7125H18.9259V38.4729C18.9259 39.508 19.6204 40.5431 20.4886 40.8882C20.8359 41.0607 21.1831 41.0607 21.5304 41.0607C22.2249 41.0607 22.9195 40.7157 23.4404 40.1981L28.1285 35.5399H35.2474C38.1992 35.5399 40.6301 33.1246 40.6301 30.1917V19.3227C40.4564 18.115 39.9355 16.7348 38.8937 15.6997ZM32.9902 26.5687C31.9484 26.5687 31.0802 25.7061 31.0802 24.6709C31.0802 23.6358 31.9484 22.7732 32.9902 22.7732C34.032 22.7732 34.9002 23.6358 34.9002 24.6709C34.7265 25.7061 33.8584 26.5687 32.9902 26.5687ZM26.7394 26.5687C25.6976 26.5687 24.8294 25.7061 24.8294 24.6709C24.8294 23.6358 25.6976 22.7732 26.7394 22.7732C27.7812 22.7732 28.6494 23.6358 28.6494 24.6709C28.6494 25.7061 27.7812 26.5687 26.7394 26.5687ZM20.6622 26.5687C19.6204 26.5687 18.7523 25.7061 18.7523 24.6709C18.7523 23.6358 19.6204 22.7732 20.6622 22.7732C21.704 22.7732 22.5722 23.6358 22.5722 24.6709C22.5722 25.7061 21.704 26.5687 20.6622 26.5687Z" fill="#125A66"/>
</svg>
