<svg width="21" height="20" viewBox="0 0 21 20" fill="none" xmlns="http://www.w3.org/2000/svg">
<g clip-path="url(#clip0_785_2279)">
<path d="M4.40625 9.21875H1.28125C0.849766 9.21875 0.5 8.86898 0.5 8.4375C0.5 8.00602 0.849766 7.65625 1.28125 7.65625H4.40625C4.83773 7.65625 5.1875 8.00602 5.1875 8.4375C5.1875 8.86898 4.83773 9.21875 4.40625 9.21875Z" fill="white"/>
<path d="M5.96875 6.09375H1.28125C0.849766 6.09375 0.5 5.74398 0.5 5.3125C0.5 4.88102 0.849766 4.53125 1.28125 4.53125H5.96875C6.40023 4.53125 6.75 4.88102 6.75 5.3125C6.75 5.74398 6.40023 6.09375 5.96875 6.09375Z" fill="white"/>
<path d="M2.84375 12.3438H1.28125C0.849766 12.3438 0.5 11.994 0.5 11.5625C0.5 11.131 0.849766 10.7812 1.28125 10.7812H2.84375C3.27523 10.7812 3.625 11.131 3.625 11.5625C3.625 11.994 3.27523 12.3438 2.84375 12.3438Z" fill="white"/>
<path d="M18.1562 6.09375C17.7134 6.09375 14.3348 6.09375 13.8208 6.09375L13.8597 5.74387C13.9822 4.64098 13.628 3.53418 12.888 2.70734C12.1479 1.88047 11.087 1.40625 9.9773 1.40625H2.84375C2.41227 1.40625 2.0625 1.75602 2.0625 2.1875C2.0625 2.61898 2.41227 2.96875 2.84375 2.96875H9.9773C10.6431 2.96875 11.2796 3.25328 11.7237 3.74941C12.1677 4.24555 12.3803 4.90961 12.3067 5.57133C12.2074 6.46531 11.2485 15.0955 11.207 15.4688H8.17812C7.85563 14.5595 6.98723 13.9062 5.96875 13.9062C4.95027 13.9062 4.08191 14.5595 3.75938 15.4688H2.84375C2.41297 15.4688 2.0625 15.1183 2.0625 14.6875C2.0625 14.256 1.71273 13.9062 1.28125 13.9062C0.849766 13.9062 0.5 14.256 0.5 14.6875C0.5 15.9798 1.55141 17.0312 2.84375 17.0312H3.75938C4.08188 17.9405 4.95027 18.5938 5.96875 18.5938C6.98723 18.5938 7.85559 17.9405 8.17812 17.0312H11.2594C11.5819 17.9405 12.4503 18.5938 13.4688 18.5938C14.4873 18.5938 15.3556 17.9405 15.6782 17.0312H17.375C18.5546 17.0312 19.5545 16.1495 19.7006 14.9802L20.4819 8.73012C20.4939 8.63387 20.5 8.53543 20.5 8.4375C20.5 7.14516 19.4486 6.09375 18.1562 6.09375ZM18.9375 8.4375C18.9375 8.4709 18.9355 8.50422 18.9314 8.53637L18.6508 10.7812H17.3172C17.092 10.7812 16.8852 10.6888 16.735 10.521C16.5848 10.3532 16.5159 10.1375 16.5407 9.91371L16.7916 7.65625H18.1562C18.587 7.65625 18.9375 8.00672 18.9375 8.4375ZM5.96875 17.0312C5.53797 17.0312 5.1875 16.6808 5.1875 16.25C5.1875 15.8192 5.53797 15.4688 5.96875 15.4688C6.39953 15.4688 6.75 15.8192 6.75 16.25C6.75 16.6808 6.39953 17.0312 5.96875 17.0312ZM13.4688 17.0312C13.048 17.0312 12.7048 16.6967 12.689 16.2798C12.7777 15.4821 13.3695 15.4688 13.4688 15.4688C13.8995 15.4688 14.25 15.8192 14.25 16.25C14.25 16.6808 13.8995 17.0312 13.4688 17.0312ZM17.375 15.4688H15.6781C15.3556 14.5595 14.4872 13.9062 13.4688 13.9062C13.2891 13.9062 13.1143 13.9273 12.9461 13.9657L13.6472 7.65625H15.2194L14.9877 9.74113C14.9142 10.4029 15.1267 11.067 15.5708 11.5631C16.0148 12.0592 16.6514 12.3438 17.3172 12.3438H18.4555L18.1502 14.7864C18.1016 15.1754 17.7683 15.4688 17.375 15.4688Z" fill="white"/>
</g>
<defs>
<clipPath id="clip0_785_2279">
<rect width="20" height="20" fill="white" transform="translate(0.5)"/>
</clipPath>
</defs>
</svg>
