<svg width="16" height="16" viewBox="0 0 16 16" fill="none" xmlns="http://www.w3.org/2000/svg">
<g id="Group 392">
<path id="Arrow 1" d="M8.70711 8.70711C9.09763 8.31658 9.09763 7.68342 8.70711 7.29289L2.34315 0.928931C1.95262 0.538406 1.31946 0.538406 0.928934 0.928931C0.53841 1.31945 0.538409 1.95262 0.928934 2.34314L6.58579 8L0.928931 13.6569C0.538406 14.0474 0.538406 14.6805 0.92893 15.0711C1.31945 15.4616 1.95262 15.4616 2.34314 15.0711L8.70711 8.70711ZM7 9L8 9L8 7L7 7L7 9Z" fill="#125A66"/>
<path id="Arrow 2" d="M15.7071 8.70711C16.0976 8.31658 16.0976 7.68342 15.7071 7.29289L9.34315 0.928931C8.95262 0.538406 8.31946 0.538406 7.92893 0.928931C7.53841 1.31945 7.53841 1.95262 7.92893 2.34314L13.5858 8L7.92893 13.6569C7.53841 14.0474 7.53841 14.6805 7.92893 15.0711C8.31945 15.4616 8.95262 15.4616 9.34314 15.0711L15.7071 8.70711ZM14 9L15 9L15 7L14 7L14 9Z" fill="#125A66"/>
</g>
</svg>
