<svg width="51" height="50" viewBox="0 0 51 50" fill="none" xmlns="http://www.w3.org/2000/svg">
<g id="earn 1" clip-path="url(#clip0_1352_8399)">
<g id="Group">
<path id="Vector" d="M26.842 32.1178C27.1209 30.4586 26.2529 29.016 24.6306 28.4426C24.4085 28.3641 24.1813 28.2817 23.9547 28.1958V24.4693C24.7819 24.4757 25.3386 24.6959 25.3587 24.704C25.7294 24.86 26.1577 24.6879 26.3165 24.3174C26.4758 23.9455 26.3033 23.5151 25.9315 23.3558C25.8846 23.3357 25.1053 23.0104 23.9548 23.0037V22.3783C23.9548 21.9737 23.627 21.6459 23.2224 21.6459C22.8179 21.6459 22.49 21.9737 22.49 22.3783V23.1717C22.3737 23.1994 22.2561 23.2306 22.1366 23.2665C21.0692 23.5881 20.2714 24.5019 20.0549 25.6514C19.8576 26.6989 20.1926 27.7085 20.9295 28.2865C21.3239 28.5958 21.8153 28.879 22.49 29.1787V33.7137C21.8966 33.6727 21.4905 33.5315 20.8209 33.0936C20.4823 32.8722 20.0285 32.9671 19.8071 33.3056C19.5856 33.6441 19.6805 34.098 20.0191 34.3195C20.9819 34.9492 21.638 35.134 22.49 35.18V36.0099C22.49 36.4145 22.8179 36.7423 23.2224 36.7423C23.627 36.7423 23.9548 36.4145 23.9548 36.0099V35.1226C25.6399 34.7988 26.6243 33.4125 26.842 32.1178ZM21.8335 27.134C21.5285 26.8949 21.3986 26.4307 21.4943 25.9227C21.5811 25.4622 21.8886 24.9078 22.4899 24.6933V27.5509C22.2424 27.418 22.0186 27.2791 21.8335 27.134ZM25.3975 31.8748C25.2796 32.5754 24.7892 33.3202 23.9548 33.6064V29.7564C24.0169 29.7788 24.0782 29.8009 24.1424 29.8236C25.5437 30.319 25.4572 31.5188 25.3975 31.8748Z" fill="#212121"/>
<path id="Vector_2" d="M35.8478 38.7047C35.7318 38.6637 35.6138 38.6213 35.4958 38.5775V36.2407C35.9292 36.2717 36.2118 36.3798 36.2281 36.3863C36.5991 36.5418 37.026 36.369 37.1843 35.999C37.3436 35.6271 37.1711 35.1965 36.7994 35.0374C36.7663 35.0232 36.2587 34.8113 35.4958 34.7733V34.519C35.4958 34.1144 35.168 33.7866 34.7634 33.7866C34.3588 33.7866 34.031 34.1144 34.031 34.519V34.934C33.9944 34.944 33.9577 34.9541 33.9208 34.9652C33.077 35.2195 32.4469 35.9395 32.2764 36.8443C32.1198 37.6755 32.3904 38.4802 32.9824 38.9445C33.2558 39.159 33.5884 39.3557 34.031 39.5597V42.4747C33.7342 42.4273 33.502 42.32 33.1413 42.084C32.8028 41.8624 32.3488 41.9575 32.1274 42.2961C31.9059 42.6346 32.0009 43.0884 32.3394 43.3099C32.9801 43.729 33.4481 43.8924 34.031 43.9485V44.3598C34.031 44.7643 34.3588 45.0922 34.7634 45.0922C35.168 45.0922 35.4958 44.7643 35.4958 44.3598V43.8788C36.663 43.5726 37.4112 42.5713 37.5772 41.5837C37.7924 40.3033 37.0974 39.1464 35.8478 38.7047ZM33.8863 37.7918C33.7286 37.6681 33.6617 37.4026 33.7159 37.1153C33.7523 36.9225 33.8536 36.7037 34.031 36.5454V37.8953C33.9798 37.8613 33.9309 37.8268 33.8863 37.7918ZM36.1327 41.3408C36.0723 41.6995 35.8563 42.0758 35.4958 42.3015V40.1411C36.195 40.4596 36.1768 41.0782 36.1327 41.3408Z" fill="#212121"/>
<path id="Vector_3" d="M50.6665 40.8998C50.6665 39.8494 49.8119 38.9949 48.7616 38.9949H45.909V18.7314C45.909 17.3491 44.7844 16.2245 43.4022 16.2245H3.17474C1.79255 16.2245 0.667969 17.3491 0.667969 18.7314V24.8636C0.667969 25.2682 0.995792 25.596 1.40037 25.596C1.80495 25.596 2.13277 25.2682 2.13277 24.8636V18.7314C2.13277 18.1568 2.60014 17.6893 3.17474 17.6893H13.1167C12.7466 21.5648 9.47388 24.6062 5.50319 24.6062C5.09861 24.6062 4.77079 24.934 4.77079 25.3386V33.0497C4.77079 33.4543 5.09861 33.7821 5.50319 33.7821C9.47388 33.7821 12.7466 36.8235 13.1167 40.6989H3.17474C2.60014 40.6989 2.13277 40.2314 2.13277 39.6569V27.7919C2.13277 27.3874 1.80495 27.0595 1.40037 27.0595C0.995792 27.0595 0.667969 27.3874 0.667969 27.7919V39.6569C0.667969 41.0391 1.79255 42.1637 3.17474 42.1637H26.8343C27.9696 45.4784 31.1163 47.8679 34.8108 47.8679C34.9375 47.8679 35.0634 47.8645 35.1888 47.859V48.095C35.1888 49.1455 36.0434 50 37.0937 50H42.9372C43.3418 50 43.6696 49.6722 43.6696 49.2676C43.6696 48.863 43.3418 48.5352 42.9372 48.5352H37.0937C36.8511 48.5352 36.6536 48.3378 36.6536 48.095V47.6644C38.317 47.2919 39.7964 46.4265 40.9295 45.2298H48.7617C49.0043 45.2298 49.2018 45.4272 49.2018 45.6699V48.095C49.2018 48.3377 49.0044 48.5352 48.7617 48.5352H45.8657C45.4611 48.5352 45.1333 48.863 45.1333 49.2676C45.1333 49.6722 45.4611 50 45.8657 50H48.7617C49.812 50 50.6666 49.1455 50.6666 48.095V45.6699C50.6666 45.2276 50.5138 44.8211 50.2599 44.4974C50.5138 44.1738 50.6666 43.7673 50.6666 43.3249V40.8998H50.6665ZM44.4443 18.7314V38.995H43.2276C43.1233 36.9946 42.3182 35.1767 41.0538 33.7827C41.0604 33.7827 41.0671 33.7822 41.0737 33.7822C41.4783 33.7822 41.8061 33.4544 41.8061 33.0498V25.3387C41.8061 24.9341 41.4783 24.6063 41.0737 24.6063C37.103 24.6063 33.8303 21.5648 33.4603 17.6894H43.4022C43.9768 17.6893 44.4443 18.1568 44.4443 18.7314ZM14.5858 40.6989C14.2305 36.2566 10.6779 32.7015 6.23559 32.3465V26.0418C10.6779 25.6868 14.2305 22.1317 14.5858 17.6893H31.9912C32.3465 22.1317 35.8989 25.6868 40.3413 26.0418V32.3465C40.0649 32.3686 39.7898 32.4035 39.5174 32.4504C38.1725 31.5417 36.5524 31.0107 34.8108 31.0107C30.1633 31.0107 26.3822 34.7918 26.3822 39.4393C26.3822 39.8673 26.4145 40.2878 26.4763 40.6988H14.5858V40.6989ZM34.8108 46.4031C30.971 46.4031 27.847 43.2791 27.847 39.4393C27.847 35.5994 30.9709 32.4755 34.8108 32.4755C38.6506 32.4755 41.7746 35.5994 41.7746 39.4393C41.7746 43.2791 38.6506 46.4031 34.8108 46.4031ZM42.0419 43.765C42.6358 42.7762 43.0323 41.6562 43.1775 40.4597H48.7617C49.0043 40.4597 49.2018 40.657 49.2018 40.8998V43.3249C49.2018 43.5676 49.0044 43.765 48.7617 43.765H42.0419Z" fill="#212121"/>
<path id="Vector_4" d="M14.5941 10.4971L15.4464 9.63113V13.3306C15.4464 13.7352 15.7743 14.063 16.1788 14.063C16.5834 14.063 16.9112 13.7352 16.9112 13.3306V9.63123L17.7636 10.4972C17.907 10.6429 18.0962 10.7159 18.2856 10.7159C18.4711 10.7159 18.6567 10.6459 18.7994 10.5055C19.0876 10.2217 19.0914 9.75808 18.8077 9.46981L16.701 7.32924C16.5633 7.1893 16.3752 7.1106 16.1789 7.1106C15.9827 7.1106 15.7946 7.1894 15.6569 7.32924L13.5502 9.46981C13.2665 9.75808 13.2702 10.2217 13.5585 10.5055C13.8467 10.7892 14.3104 10.7854 14.5941 10.4971Z" fill="#212121"/>
<path id="Vector_5" d="M33.5708 10.4971L34.4231 9.63111V13.3306C34.4231 13.7352 34.7509 14.063 35.1555 14.063C35.5601 14.063 35.8879 13.7352 35.8879 13.3306V9.63121L36.7402 10.4972C36.8837 10.6429 37.0728 10.7158 37.2623 10.7158C37.4477 10.7158 37.6334 10.6458 37.776 10.5055C38.0643 10.2217 38.068 9.75806 37.7843 9.46978L35.6776 7.32912C35.5399 7.18918 35.3518 7.11047 35.1555 7.11047C34.9592 7.11047 34.7711 7.18928 34.6334 7.32912L32.5268 9.46969C32.2431 9.75796 32.2468 10.2216 32.5351 10.5054C32.8233 10.7892 33.2871 10.7854 33.5708 10.4971Z" fill="#212121"/>
<path id="Vector_6" d="M20.8791 7.07134H22.0579V12.2565C22.0579 12.9389 22.613 13.494 23.2955 13.494H28.0353C28.7177 13.494 29.2728 12.9389 29.2728 12.2565V7.07134H30.4517C30.9596 7.07134 31.4103 6.76686 31.5999 6.29568C31.7894 5.8245 31.6752 5.29268 31.3089 4.94112L26.5225 0.346133C26.0418 -0.115475 25.289 -0.11528 24.8084 0.346133L23.4203 1.67871C23.1286 1.95878 23.119 2.42244 23.3992 2.71423C23.6793 3.00583 24.1429 3.01559 24.4347 2.73533L25.6654 1.55381L29.8869 5.60644H29.0456C28.3632 5.60644 27.808 6.1616 27.808 6.8439V12.0291H23.5227V6.844C23.5227 6.1617 22.9675 5.60654 22.2851 5.60654H21.4438L22.3217 4.76369C22.6135 4.48352 22.623 4.01996 22.3428 3.72817C22.0628 3.43638 21.5991 3.42691 21.3073 3.70708L20.0221 4.94103C19.6557 5.29278 19.5414 5.8245 19.731 6.29568C19.9206 6.76686 20.3712 7.07134 20.8791 7.07134Z" fill="#212121"/>
</g>
</g>
<defs>
<clipPath id="clip0_1352_8399">
<rect width="50" height="50" fill="white" transform="translate(0.667969)"/>
</clipPath>
</defs>
</svg>
