<svg width="16" height="17" viewBox="0 0 16 17" fill="none" xmlns="http://www.w3.org/2000/svg">
<g id="envelope 1" clip-path="url(#clip0_515_5725)">
<path id="Vector" d="M12.6667 1.16663H3.33333C2.4496 1.16768 1.60237 1.51921 0.97748 2.14411C0.352588 2.769 0.00105857 3.61623 0 4.49996L0 12.5C0.00105857 13.3837 0.352588 14.2309 0.97748 14.8558C1.60237 15.4807 2.4496 15.8322 3.33333 15.8333H12.6667C13.5504 15.8322 14.3976 15.4807 15.0225 14.8558C15.6474 14.2309 15.9989 13.3837 16 12.5V4.49996C15.9989 3.61623 15.6474 2.769 15.0225 2.14411C14.3976 1.51921 13.5504 1.16768 12.6667 1.16663ZM3.33333 2.49996H12.6667C13.0659 2.50074 13.4557 2.62097 13.786 2.84516C14.1163 3.06935 14.3719 3.38726 14.52 3.75796L9.41467 8.86396C9.03895 9.23817 8.53028 9.44827 8 9.44827C7.46972 9.44827 6.96105 9.23817 6.58533 8.86396L1.48 3.75796C1.6281 3.38726 1.88374 3.06935 2.21403 2.84516C2.54432 2.62097 2.93414 2.50074 3.33333 2.49996ZM12.6667 14.5H3.33333C2.8029 14.5 2.29419 14.2892 1.91912 13.9142C1.54405 13.5391 1.33333 13.0304 1.33333 12.5V5.49996L5.64267 9.80663C6.26842 10.4308 7.11617 10.7813 8 10.7813C8.88383 10.7813 9.73158 10.4308 10.3573 9.80663L14.6667 5.49996V12.5C14.6667 13.0304 14.456 13.5391 14.0809 13.9142C13.7058 14.2892 13.1971 14.5 12.6667 14.5Z" fill="#212121"/>
</g>
<defs>
<clipPath id="clip0_515_5725">
<rect width="16" height="16" fill="white" transform="translate(0 0.5)"/>
</clipPath>
</defs>
</svg>
