<svg width="17" height="17" viewBox="0 0 17 17" fill="none" xmlns="http://www.w3.org/2000/svg">
<g id="eye&#194;&#160;&#226;&#128;&#148; &#208;&#186;&#208;&#190;&#208;&#191;&#208;&#184;&#209;&#143; 1">
<g id="Group">
<g id="Group_2">
<path id="Vector" d="M8.5 3.40125C5.42108 3.40125 2.34671 5.10215 0 8.49943C4.69342 15.2985 12.3066 15.2985 17 8.49943C14.6533 5.10215 11.5789 3.40125 8.5 3.40125ZM8.5 11.9012C6.62172 11.9012 5.09363 10.3777 5.09363 8.49938C5.09363 6.6211 6.62172 5.09301 8.5 5.09301C10.3783 5.09301 11.9018 6.6211 11.9018 8.49938C11.9018 10.3777 10.3783 11.9012 8.5 11.9012Z" fill="#BEC1C7"/>
</g>
</g>
<g id="Group_3">
<g id="Group_4">
<path id="Vector_2" d="M8.50023 10.2003C9.43961 10.2003 10.2011 9.43882 10.2011 8.49943C10.2011 7.56005 9.43961 6.79852 8.50023 6.79852C7.56084 6.79852 6.79932 7.56005 6.79932 8.49943C6.79932 9.43882 7.56084 10.2003 8.50023 10.2003Z" fill="#BEC1C7"/>
</g>
</g>
</g>
</svg>
