<svg width="30" height="30" viewBox="0 0 30 30" fill="none" xmlns="http://www.w3.org/2000/svg">
<g clip-path="url(#clip0_895_4438)">
<path d="M13.6364 11.5911V12.9547H12.2727V15.0002H13.6364V21.1365H16.3636V15.0002H18.1773L18.4091 12.9547H16.3636V11.7615C16.3636 11.2093 16.4182 10.9161 17.2704 10.9161H18.4091V8.86377H16.5818C14.4 8.86383 13.6364 9.88652 13.6364 11.5911Z" fill="#212121"/>
<path d="M15 0C6.71572 0 0 6.71572 0 15C0 23.2843 6.71572 30 15 30C23.2843 30 30 23.2843 30 15C30 6.71572 23.2843 0 15 0ZM15 28.6363C7.46883 28.6363 1.36365 22.5312 1.36365 15C1.36365 7.46883 7.46883 1.36365 15 1.36365C22.5312 1.36365 28.6363 7.46883 28.6363 15C28.6363 22.5312 22.5312 28.6363 15 28.6363Z" fill="#212121"/>
</g>
<defs>
<clipPath id="clip0_895_4438">
<rect width="30" height="30" fill="white"/>
</clipPath>
</defs>
</svg>
