<svg width="20" height="21" viewBox="0 0 20 21" fill="none" xmlns="http://www.w3.org/2000/svg">
<g id="Filter">
<g id="Group">
<path id="Vector" d="M4.16699 10.5V3.83337M15.8337 17.1667V14.6667M4.16699 17.1667V13.8334M15.8337 11.3334V3.83337M10.0003 6.33337V3.83337M10.0003 17.1667V9.66671" stroke="black" stroke-linecap="round"/>
<path id="Vector_2" d="M4.16667 13.8333C5.08714 13.8333 5.83333 13.0871 5.83333 12.1667C5.83333 11.2462 5.08714 10.5 4.16667 10.5C3.24619 10.5 2.5 11.2462 2.5 12.1667C2.5 13.0871 3.24619 13.8333 4.16667 13.8333Z" stroke="black" stroke-linecap="round"/>
<path id="Vector_3" d="M9.99967 9.66671C10.9201 9.66671 11.6663 8.92052 11.6663 8.00004C11.6663 7.07957 10.9201 6.33337 9.99967 6.33337C9.0792 6.33337 8.33301 7.07957 8.33301 8.00004C8.33301 8.92052 9.0792 9.66671 9.99967 9.66671Z" stroke="black" stroke-linecap="round"/>
<path id="Vector_4" d="M15.8337 14.6667C16.7541 14.6667 17.5003 13.9205 17.5003 13C17.5003 12.0796 16.7541 11.3334 15.8337 11.3334C14.9132 11.3334 14.167 12.0796 14.167 13C14.167 13.9205 14.9132 14.6667 15.8337 14.6667Z" stroke="black" stroke-linecap="round"/>
</g>
</g>
</svg>
