<svg width="51" height="50" viewBox="0 0 51 50" fill="none" xmlns="http://www.w3.org/2000/svg">
<g id="good 1" clip-path="url(#clip0_1352_8376)">
<g id="Group">
<g id="Group_2">
<path id="Vector" d="M29.982 8.88256L31.1806 7.42758C31.7211 6.77153 31.9648 5.90893 31.8483 5.06098C31.4839 2.39516 28.1268 1.48608 26.4131 3.56577L22.0216 8.86792H20.215C19.4317 8.86792 18.7219 9.18422 18.2068 9.69624C17.7897 9.29965 17.2267 9.05493 16.606 9.05493H13.6998C12.5513 9.05493 11.6172 9.98901 11.6172 11.1375V21.5547C11.6172 22.7033 12.5513 23.6374 13.6998 23.6374H16.606C17.1563 23.6374 17.6615 23.4455 18.06 23.1233C18.5818 23.7274 19.3544 24.1103 20.215 24.1103H28.8815C31.7387 24.1103 34.0633 21.7858 34.0633 18.9286V13.3033C34.0632 10.977 32.2625 9.06372 29.982 8.88256ZM17.3607 21.3168C17.3607 21.733 17.022 22.0707 16.6059 22.0707H13.6997C13.4157 22.0707 13.1837 21.8397 13.1837 21.5547V11.1375C13.1837 10.8526 13.4157 10.6215 13.6997 10.6215H16.6059C17.022 10.6215 17.3608 10.9593 17.3608 11.3754C17.3607 14.5683 17.3607 18.2166 17.3607 21.3168ZM32.4965 18.9287C32.4965 20.9222 30.875 22.5437 28.8814 22.5437H20.2149C19.5051 22.5437 18.9273 21.966 18.9273 21.2561V11.722C18.9273 11.0122 19.5051 10.4344 20.2149 10.4344H22.1027C22.5208 10.4344 22.9125 10.2494 23.1769 9.92817L27.6212 4.56342C28.4729 3.52768 30.1158 3.96098 30.2963 5.27329C30.3531 5.6894 30.2346 6.11147 29.9712 6.43159L28.5465 8.16079C28.2533 8.45395 28.1098 9.10053 28.3712 9.64419C28.6052 10.1318 29.0869 10.4343 29.6274 10.4343C31.2088 10.4343 32.4964 11.7219 32.4964 13.3033V18.9287H32.4965Z" fill="#212121"/>
</g>
</g>
<g id="Group_3">
<g id="Group_4">
<path id="Vector_2" d="M31.9715 0.101562H13.7083C6.33232 0.101562 0.332031 6.10176 0.332031 13.4777C0.332031 18.2423 2.87393 22.6309 6.99619 25.0366V28.78C6.99619 29.1863 7.3252 29.5144 7.73057 29.5144C8.13691 29.5144 8.46494 29.1863 8.46494 28.78V24.6068C8.46494 24.3376 8.31709 24.0889 8.08018 23.9605C4.20664 21.8661 1.80088 17.8486 1.80088 13.4777C1.80088 6.9125 7.14219 1.57021 13.7084 1.57021H31.9716C41.1445 1.57021 46.8559 11.5592 42.2713 19.435C42.0666 19.7845 42.1861 20.235 42.5356 20.4386C42.8861 20.6423 43.3366 20.5237 43.5402 20.1732C48.6867 11.3414 42.2926 0.101562 31.9715 0.101562Z" fill="#212121"/>
</g>
</g>
<g id="Group_5">
<g id="Group_6">
<path id="Vector_3" d="M49.5679 32.0181C49.4171 31.6421 48.9892 31.459 48.6132 31.6098C48.2489 31.7547 48.0658 32.1591 48.1902 32.5263C48.1912 32.5273 48.1912 32.5293 48.1922 32.5312C50.3419 38.7913 47.0151 45.6217 40.7379 47.7766C34.4905 49.922 27.6522 46.6151 25.4925 40.3223C22.4571 31.4835 30.2651 22.7918 39.2604 24.6755C42.424 25.3354 45.2636 27.2663 47.0025 30.0373C47.218 30.3799 47.6713 30.4838 48.0149 30.2683C48.3586 30.0529 48.4624 29.5996 48.246 29.2559C46.5463 26.5479 43.8982 24.4984 40.7594 23.5406C41.0806 23.2615 41.388 22.9658 41.6827 22.6545C41.9618 22.3597 41.9481 21.8956 41.6533 21.6166C41.3586 21.3375 40.8944 21.3512 40.6154 21.646C40.0984 22.1923 39.5345 22.6858 38.9313 23.1196C35.4049 22.5643 31.8985 23.4484 29.127 25.3864H16.2756C15.9848 25.3864 15.7214 25.5568 15.6039 25.8221L11.6178 34.8079C10.8905 36.4468 8.46484 35.909 8.46484 34.1401V31.7176C8.46484 31.3123 8.13682 30.9833 7.73047 30.9833C7.3251 30.9833 6.99609 31.3123 6.99609 31.7176V34.1401C6.99609 37.4641 11.582 38.5055 12.9602 35.4042L16.7524 26.8551H27.3646C23.723 30.461 22.4043 35.8538 24.103 40.7993C25.9713 46.2424 31.0902 49.8986 36.8408 49.8986C46.2331 49.8985 52.6036 40.5314 49.5679 32.0181Z" fill="#212121"/>
</g>
</g>
<g id="Group_7">
<g id="Group_8">
<path id="Vector_4" d="M34.0548 32.3129C34.7279 32.3129 35.2736 31.7672 35.2736 31.0941C35.2736 30.4209 34.7279 29.8752 34.0548 29.8752C33.3816 29.8752 32.8359 30.4209 32.8359 31.0941C32.8359 31.7672 33.3816 32.3129 34.0548 32.3129Z" fill="#212121"/>
</g>
</g>
<g id="Group_9">
<g id="Group_10">
<path id="Vector_5" d="M39.629 32.3129C40.3022 32.3129 40.8479 31.7672 40.8479 31.0941C40.8479 30.4209 40.3022 29.8752 39.629 29.8752C38.9559 29.8752 38.4102 30.4209 38.4102 31.0941C38.4102 31.7672 38.9559 32.3129 39.629 32.3129Z" fill="#212121"/>
</g>
</g>
<g id="Group_11">
<g id="Group_12">
<path id="Vector_6" d="M43.4107 33.0345C43.0051 33.0345 42.6764 33.3634 42.6764 33.7689C42.6764 36.9859 40.0592 39.6031 36.8421 39.6031C33.625 39.6031 31.0078 36.9859 31.0078 33.7689C31.0078 33.3634 30.6791 33.0345 30.2734 33.0345C29.8678 33.0345 29.5391 33.3634 29.5391 33.7689C29.5391 37.7958 32.8152 41.0719 36.8421 41.0719C40.8689 41.0719 44.1451 37.7958 44.1451 33.7689C44.1451 33.3634 43.8164 33.0345 43.4107 33.0345Z" fill="#212121"/>
</g>
</g>
</g>
<defs>
<clipPath id="clip0_1352_8376">
<rect width="50" height="50" fill="white" transform="translate(0.332031)"/>
</clipPath>
</defs>
</svg>
