<svg width="29" height="28" viewBox="0 0 29 28" fill="none" xmlns="http://www.w3.org/2000/svg">
<g id="carbon:email">
<path id="Vector" d="M25 5.25H4C3.53587 5.25 3.09075 5.43437 2.76256 5.76256C2.43437 6.09075 2.25 6.53587 2.25 7V21C2.25 21.4641 2.43437 21.9092 2.76256 22.2374C3.09075 22.5656 3.53587 22.75 4 22.75H25C25.4641 22.75 25.9092 22.5656 26.2374 22.2374C26.5656 21.9092 26.75 21.4641 26.75 21V7C26.75 6.53587 26.5656 6.09075 26.2374 5.76256C25.9092 5.43437 25.4641 5.25 25 5.25ZM23.075 7L14.5 12.9325L5.925 7H23.075ZM4 21V7.79625L14.0013 14.7175C14.1477 14.8191 14.3217 14.8736 14.5 14.8736C14.6783 14.8736 14.8523 14.8191 14.9987 14.7175L25 7.79625V21H4Z" fill="#222222"/>
</g>
</svg>
