<svg width="29" height="28" viewBox="0 0 29 28" fill="none" xmlns="http://www.w3.org/2000/svg">
<g id="solar:phone-linear">
<path id="Vector" d="M18.7332 17.3729L19.2652 16.8444L18.0297 15.6031L17.5001 16.1316L18.7332 17.3729ZM21.0491 16.6227L23.2786 17.8349L24.1127 16.2972L21.8844 15.0862L21.0491 16.6227ZM23.7067 20.2429L22.0501 21.8914L23.2832 23.1316L24.9399 21.4842L23.7067 20.2429ZM21.0398 22.4211C19.3481 22.5797 14.9731 22.4386 10.2341 17.7276L8.99975 18.9677C14.1704 24.1092 19.0926 24.3612 21.2031 24.1641L21.0398 22.4211ZM10.2341 17.7276C5.71792 13.2359 4.96892 9.4594 4.87558 7.82023L3.12792 7.9194C3.24458 9.98206 4.17208 14.1681 8.99975 18.9677L10.2341 17.7276ZM11.8382 10.5176L12.1731 10.1839L10.9411 8.94373L10.6062 9.27623L11.8382 10.5176ZM12.4391 5.94306L10.9691 3.9784L9.56792 5.0284L11.0379 6.9919L12.4391 5.94306ZM6.02125 3.55023L4.18958 5.37023L5.42392 6.61156L7.25442 4.79156L6.02125 3.55023ZM11.2222 9.8969C10.6039 9.27623 10.6039 9.27623 10.6039 9.27856H10.6016L10.5981 9.28323C10.543 9.33945 10.4934 9.40078 10.4499 9.4664C10.3869 9.55973 10.3181 9.68223 10.2597 9.8374C10.1177 10.2379 10.0823 10.6685 10.1571 11.0869C10.3134 12.0961 11.0087 13.4296 12.7891 15.2006L14.0234 13.9592C12.3562 12.3026 11.9596 11.2946 11.8861 10.8186C11.8511 10.5922 11.8872 10.4802 11.8977 10.4546C11.9036 10.4382 11.9059 10.4371 11.8977 10.4476C11.8875 10.4637 11.8757 10.479 11.8627 10.4931L11.8511 10.5047C11.8473 10.5084 11.8434 10.5119 11.8394 10.5152L11.2222 9.8969ZM12.7891 15.2006C14.5706 16.9716 15.9111 17.6622 16.9214 17.8162C17.4382 17.8956 17.8547 17.8326 18.1709 17.7147C18.3477 17.6493 18.5131 17.5564 18.6609 17.4394C18.681 17.4226 18.7004 17.4051 18.7192 17.3869L18.7274 17.3799L18.7309 17.3764L18.7321 17.3741C18.7321 17.3741 18.7332 17.3729 18.1161 16.7522C17.4978 16.1316 17.5012 16.1304 17.5012 16.1304L17.5036 16.1281L17.5059 16.1257L17.5129 16.1199L17.5246 16.1082C17.5386 16.0956 17.5534 16.084 17.5689 16.0732C17.5806 16.0651 17.5771 16.0686 17.5607 16.0756C17.5316 16.0861 17.4172 16.1222 17.1874 16.0872C16.7044 16.0126 15.6894 15.6159 14.0234 13.9592L12.7891 15.2006ZM10.9691 3.97723C9.77908 2.39056 7.44108 2.13856 6.02125 3.55023L7.25442 4.79156C7.87508 4.1744 8.97642 4.23856 9.56792 5.0284L10.9691 3.97723ZM4.87675 7.8214C4.85342 7.41773 5.03892 6.9954 5.42392 6.61273L4.18842 5.3714C3.56192 5.9944 3.06842 6.8764 3.12792 7.9194L4.87675 7.8214ZM22.0501 21.8914C21.7304 22.2111 21.3851 22.3907 21.0409 22.4222L21.2031 24.1641C22.0606 24.0836 22.7617 23.6519 23.2844 23.1327L22.0501 21.8914ZM12.1731 10.1839C13.3222 9.04173 13.4074 7.2369 12.4402 5.94423L11.0391 6.99306C11.5092 7.6219 11.4392 8.44673 10.9399 8.9449L12.1731 10.1839ZM23.2797 17.8361C24.2329 18.3541 24.3811 19.5744 23.7079 20.2441L24.9422 21.4842C26.5056 19.9291 26.0237 17.3356 24.1139 16.2984L23.2797 17.8361ZM19.2652 16.8456C19.7132 16.3999 20.4342 16.2902 21.0502 16.6239L21.8856 15.0874C20.6209 14.3991 19.0529 14.5892 18.0309 15.6042L19.2652 16.8456Z" fill="#222222"/>
</g>
</svg>
