<svg width="30" height="30" viewBox="0 0 30 30" fill="none" xmlns="http://www.w3.org/2000/svg">
<g clip-path="url(#clip0_895_4432)">
<path d="M15 0C6.71572 0 0 6.71572 0 15C0 23.2843 6.71572 30 15 30C23.2843 30 30 23.2843 30 15C30 6.71572 23.2843 0 15 0ZM15 28.6363C7.46883 28.6363 1.36365 22.5312 1.36365 15C1.36365 7.46883 7.46883 1.36365 15 1.36365C22.5312 1.36365 28.6363 7.46883 28.6363 15C28.6363 22.5312 22.5312 28.6363 15 28.6363Z" fill="#212121"/>
<path d="M19.0909 8.18164H10.9091C9.40292 8.18164 8.18188 9.40268 8.18188 10.9089V19.0907C8.18188 20.5969 9.40292 21.8179 10.9091 21.8179H19.0909C20.5971 21.8179 21.8182 20.5969 21.8182 19.0907V10.9089C21.8182 9.40268 20.5972 8.18164 19.0909 8.18164ZM17.7273 10.2271H19.7727V12.2725H17.7273V10.2271ZM15 12.2726C16.5062 12.2726 17.7273 13.4936 17.7273 14.9998C17.7273 16.5061 16.5062 17.7271 15 17.7271C13.4938 17.7271 12.2728 16.5061 12.2728 14.9998C12.2728 13.4936 13.4938 12.2726 15 12.2726ZM20.4546 19.0907C20.4546 19.8438 19.844 20.4544 19.0909 20.4544H10.9091C10.156 20.4544 9.54548 19.8438 9.54548 19.0907V14.318H10.9773C10.5678 16.5399 12.0371 18.6731 14.259 19.0826C16.4809 19.4921 18.6141 18.0228 19.0236 15.8009C19.0723 15.5367 19.0949 15.2684 19.0909 14.9998C19.0875 14.771 19.0647 14.543 19.0227 14.318H20.4545V19.0907H20.4546Z" fill="#212121"/>
</g>
<defs>
<clipPath id="clip0_895_4432">
<rect width="30" height="30" fill="white"/>
</clipPath>
</defs>
</svg>
