<svg width="36" height="36" viewBox="0 0 36 36" fill="none" xmlns="http://www.w3.org/2000/svg">
<g filter="url(#filter0_b_1521_11339)">
<rect width="36" height="36" fill="#57606F" fill-opacity="0.39"/>
</g>
<g clip-path="url(#clip0_1521_11339)">
<path fill-rule="evenodd" clip-rule="evenodd" d="M24.1363 12.8266L12.8278 24.1352H16.0717C16.4483 24.1352 16.7535 24.4404 16.7535 24.817C16.7535 25.1935 16.4482 25.4988 16.0717 25.4988H11.1818C10.8052 25.4988 10.5 25.1935 10.5 24.817V19.9271C10.5 19.5505 10.8052 19.2452 11.1818 19.2452C11.5584 19.2452 11.8636 19.5505 11.8636 19.9271V23.171L23.1749 11.8598H19.9282C19.5532 11.8598 19.2491 11.5557 19.2491 11.1806C19.2491 10.8056 19.5532 10.5015 19.9282 10.5015H24.8182C25.1942 10.5015 25.4991 10.8056 25.5 11.1806V16.0705C25.5 16.4471 25.1947 16.7523 24.8182 16.7523C24.4416 16.7523 24.1363 16.4471 24.1363 16.0705V12.8266Z" fill="white"/>
</g>
<defs>
<filter id="filter0_b_1521_11339" x="-20" y="-20" width="76" height="76" filterUnits="userSpaceOnUse" color-interpolation-filters="sRGB">
<feFlood flood-opacity="0" result="BackgroundImageFix"/>
<feGaussianBlur in="BackgroundImageFix" stdDeviation="10"/>
<feComposite in2="SourceAlpha" operator="in" result="effect1_backgroundBlur_1521_11339"/>
<feBlend mode="normal" in="SourceGraphic" in2="effect1_backgroundBlur_1521_11339" result="shape"/>
</filter>
<clipPath id="clip0_1521_11339">
<rect width="16" height="16" fill="white" transform="translate(10 10)"/>
</clipPath>
</defs>
</svg>
