<svg width="16" height="16" viewBox="0 0 16 16" fill="none" xmlns="http://www.w3.org/2000/svg">
<g id="maximize 1" clip-path="url(#clip0_1521_11341)">
<path id="Vector" fill-rule="evenodd" clip-rule="evenodd" d="M14.1363 2.82656L2.82778 14.1352H6.07172C6.44828 14.1352 6.75353 14.4404 6.75353 14.817C6.75353 15.1935 6.44825 15.4988 6.07172 15.4988H1.18181C0.80525 15.4988 0.5 15.1935 0.5 14.817V9.92706C0.5 9.55049 0.80525 9.24524 1.18181 9.24524C1.55838 9.24524 1.86362 9.55053 1.86362 9.92706V13.171L13.1749 1.85978H9.92825C9.55316 1.85978 9.24909 1.55568 9.24909 1.18062C9.24909 0.805559 9.55316 0.501465 9.92825 0.501465H14.8182C15.1942 0.501465 15.4991 0.805559 15.5 1.18062V6.07053C15.5 6.44709 15.1947 6.75234 14.8182 6.75234C14.4416 6.75234 14.1363 6.44706 14.1363 6.07053V2.82656Z" fill="white"/>
</g>
<defs>
<clipPath id="clip0_1521_11341">
<rect width="16" height="16" fill="white"/>
</clipPath>
</defs>
</svg>
