<svg width="16" height="17" viewBox="0 0 16 17" fill="none" xmlns="http://www.w3.org/2000/svg">
<g id="mobile-button 1" clip-path="url(#clip0_515_5780)">
<path id="Vector" d="M10.0013 16.5H6.0013C4.1633 16.5 2.66797 15.0047 2.66797 13.1667V3.83333C2.66797 1.99533 4.1633 0.5 6.0013 0.5H10.0013C11.8393 0.5 13.3346 1.99533 13.3346 3.83333V13.1667C13.3346 15.0047 11.8393 16.5 10.0013 16.5ZM6.0013 1.83333C4.89864 1.83333 4.0013 2.73067 4.0013 3.83333V13.1667C4.0013 14.2693 4.89864 15.1667 6.0013 15.1667H10.0013C11.104 15.1667 12.0013 14.2693 12.0013 13.1667V3.83333C12.0013 2.73067 11.104 1.83333 10.0013 1.83333H6.0013ZM9.33464 13.1667C9.33464 12.7987 9.03597 12.5 8.66797 12.5H7.33464C6.96664 12.5 6.66797 12.7987 6.66797 13.1667C6.66797 13.5347 6.96664 13.8333 7.33464 13.8333H8.66797C9.03597 13.8333 9.33464 13.5347 9.33464 13.1667Z" fill="#212121"/>
</g>
<defs>
<clipPath id="clip0_515_5780">
<rect width="16" height="16" fill="white" transform="translate(0 0.5)"/>
</clipPath>
</defs>
</svg>
