<svg width="16" height="16" viewBox="0 0 16 16" fill="none" xmlns="http://www.w3.org/2000/svg">
<g id="mobile-button 1">
<path id="Vector" d="M10.0013 16H6.0013C4.1633 16 2.66797 14.5047 2.66797 12.6667V3.33333C2.66797 1.49533 4.1633 0 6.0013 0H10.0013C11.8393 0 13.3346 1.49533 13.3346 3.33333V12.6667C13.3346 14.5047 11.8393 16 10.0013 16ZM6.0013 1.33333C4.89864 1.33333 4.0013 2.23067 4.0013 3.33333V12.6667C4.0013 13.7693 4.89864 14.6667 6.0013 14.6667H10.0013C11.104 14.6667 12.0013 13.7693 12.0013 12.6667V3.33333C12.0013 2.23067 11.104 1.33333 10.0013 1.33333H6.0013ZM9.33464 12.6667C9.33464 12.2987 9.03597 12 8.66797 12H7.33464C6.96664 12 6.66797 12.2987 6.66797 12.6667C6.66797 13.0347 6.96664 13.3333 7.33464 13.3333H8.66797C9.03597 13.3333 9.33464 13.0347 9.33464 12.6667Z" fill="#212121"/>
</g>
</svg>
