<svg width="61" height="60" viewBox="0 0 61 60" fill="none" xmlns="http://www.w3.org/2000/svg">
<circle cx="30.5" cy="30" r="30" fill="#222222"/>
<path d="M34.7332 33.3729L35.2652 32.8444L34.0297 31.6031L33.5001 32.1316L34.7332 33.3729ZM37.0491 32.6227L39.2786 33.8349L40.1127 32.2972L37.8844 31.0862L37.0491 32.6227ZM39.7067 36.2429L38.0501 37.8914L39.2832 39.1316L40.9399 37.4842L39.7067 36.2429ZM37.0398 38.4211C35.3481 38.5797 30.9731 38.4386 26.2341 33.7276L24.9997 34.9677C30.1704 40.1092 35.0926 40.3612 37.2031 40.1641L37.0398 38.4211ZM26.2341 33.7276C21.7179 29.2359 20.9689 25.4594 20.8756 23.8202L19.1279 23.9194C19.2446 25.9821 20.1721 30.1681 24.9997 34.9677L26.2341 33.7276ZM27.8382 26.5176L28.1731 26.1839L26.9411 24.9437L26.6062 25.2762L27.8382 26.5176ZM28.4391 21.9431L26.9691 19.9784L25.5679 21.0284L27.0379 22.9919L28.4391 21.9431ZM22.0212 19.5502L20.1896 21.3702L21.4239 22.6116L23.2544 20.7916L22.0212 19.5502ZM27.2222 25.8969C26.6039 25.2762 26.6039 25.2762 26.6039 25.2786H26.6016L26.5981 25.2832C26.543 25.3395 26.4934 25.4008 26.4499 25.4664C26.3869 25.5597 26.3181 25.6822 26.2597 25.8374C26.1177 26.2379 26.0823 26.6685 26.1571 27.0869C26.3134 28.0961 27.0087 29.4296 28.7891 31.2006L30.0234 29.9592C28.3562 28.3026 27.9596 27.2946 27.8861 26.8186C27.8511 26.5922 27.8872 26.4802 27.8977 26.4546C27.9036 26.4382 27.9059 26.4371 27.8977 26.4476C27.8875 26.4637 27.8757 26.479 27.8627 26.4931L27.8511 26.5047C27.8473 26.5084 27.8434 26.5119 27.8394 26.5152L27.2222 25.8969ZM28.7891 31.2006C30.5706 32.9716 31.9111 33.6622 32.9214 33.8162C33.4382 33.8956 33.8547 33.8326 34.1709 33.7147C34.3477 33.6493 34.5131 33.5564 34.6609 33.4394C34.681 33.4226 34.7004 33.4051 34.7192 33.3869L34.7274 33.3799L34.7309 33.3764L34.7321 33.3741C34.7321 33.3741 34.7332 33.3729 34.1161 32.7522C33.4978 32.1316 33.5012 32.1304 33.5012 32.1304L33.5036 32.1281L33.5059 32.1257L33.5129 32.1199L33.5246 32.1082C33.5386 32.0956 33.5534 32.084 33.5689 32.0732C33.5806 32.0651 33.5771 32.0686 33.5607 32.0756C33.5316 32.0861 33.4172 32.1222 33.1874 32.0872C32.7044 32.0126 31.6894 31.6159 30.0234 29.9592L28.7891 31.2006ZM26.9691 19.9772C25.7791 18.3906 23.4411 18.1386 22.0212 19.5502L23.2544 20.7916C23.8751 20.1744 24.9764 20.2386 25.5679 21.0284L26.9691 19.9772ZM20.8767 23.8214C20.8534 23.4177 21.0389 22.9954 21.4239 22.6127L20.1884 21.3714C19.5619 21.9944 19.0684 22.8764 19.1279 23.9194L20.8767 23.8214ZM38.0501 37.8914C37.7304 38.2111 37.3851 38.3907 37.0409 38.4222L37.2031 40.1641C38.0606 40.0836 38.7617 39.6519 39.2844 39.1327L38.0501 37.8914ZM28.1731 26.1839C29.3222 25.0417 29.4074 23.2369 28.4402 21.9442L27.0391 22.9931C27.5092 23.6219 27.4392 24.4467 26.9399 24.9449L28.1731 26.1839ZM39.2797 33.8361C40.2329 34.3541 40.3811 35.5744 39.7079 36.2441L40.9422 37.4842C42.5056 35.9291 42.0237 33.3356 40.1139 32.2984L39.2797 33.8361ZM35.2652 32.8456C35.7132 32.3999 36.4342 32.2902 37.0502 32.6239L37.8856 31.0874C36.6209 30.3991 35.0529 30.5892 34.0309 31.6042L35.2652 32.8456Z" fill="#FEFEFE"/>
</svg>
