<svg width="61" height="60" viewBox="0 0 61 60" fill="none" xmlns="http://www.w3.org/2000/svg">
<circle cx="30.5" cy="30" r="30" fill="#F3F3F3"/>
<path d="M41 21.25H20C19.5359 21.25 19.0908 21.4344 18.7626 21.7626C18.4344 22.0908 18.25 22.5359 18.25 23V37C18.25 37.4641 18.4344 37.9092 18.7626 38.2374C19.0908 38.5656 19.5359 38.75 20 38.75H41C41.4641 38.75 41.9092 38.5656 42.2374 38.2374C42.5656 37.9092 42.75 37.4641 42.75 37V23C42.75 22.5359 42.5656 22.0908 42.2374 21.7626C41.9092 21.4344 41.4641 21.25 41 21.25ZM39.075 23L30.5 28.9325L21.925 23H39.075ZM20 37V23.7962L30.0013 30.7175C30.1477 30.8191 30.3217 30.8736 30.5 30.8736C30.6783 30.8736 30.8523 30.8191 30.9987 30.7175L41 23.7962V37H20Z" fill="#222222"/>
</svg>
