<svg width="50" height="50" viewBox="0 0 50 50" fill="none" xmlns="http://www.w3.org/2000/svg">
<g id="partnership 1" clip-path="url(#clip0_1352_8369)">
<path id="Vector" d="M47.2089 9.45308L49.77 6.89156C49.8439 6.81931 49.9027 6.73312 49.943 6.63799C49.9833 6.54285 50.0044 6.44066 50.005 6.33733C50.0055 6.234 49.9856 6.13159 49.9463 6.03602C49.907 5.94044 49.8492 5.85362 49.7761 5.78056C49.703 5.7075 49.6162 5.64966 49.5206 5.61039C49.425 5.57112 49.3226 5.55121 49.2193 5.55179C49.116 5.55238 49.0138 5.57346 48.9187 5.61381C48.8235 5.65416 48.7374 5.71299 48.6651 5.78687L45.8875 8.5649C45.8147 8.63774 45.757 8.72427 45.7177 8.8195C45.6785 8.91473 45.6584 9.01678 45.6588 9.11978C45.6588 9.14439 45.6278 11.6198 44.2441 13.0039L43.3346 13.9133L42.1199 12.6984C41.9734 12.5519 41.7747 12.4696 41.5675 12.4696C41.3603 12.4696 41.1615 12.5519 41.015 12.6984C40.8685 12.8449 40.7862 13.0436 40.7862 13.2508C40.7862 13.458 40.8685 13.6568 41.015 13.8033L46.623 19.4112L42.9928 23.0414C42.8896 23.1446 42.8173 23.2746 42.7843 23.4167C42.7512 23.5589 42.7586 23.7075 42.8057 23.8456C42.8527 23.9837 42.9375 24.106 43.0505 24.1984C43.1634 24.2908 43.3 24.3497 43.4447 24.3685C43.8132 24.4151 44.1611 24.5642 44.449 24.7988C44.7369 25.0335 44.9532 25.3442 45.0731 25.6957C45.1931 26.0472 45.212 26.4253 45.1276 26.787C45.0433 27.1487 44.8591 27.4794 44.596 27.7416C44.2221 28.1146 43.7155 28.324 43.1873 28.324C42.6592 28.324 42.1526 28.1146 41.7787 27.7416C41.4704 27.4304 41.2749 27.0252 41.223 26.5903C41.2043 26.4455 41.1453 26.3089 41.0529 26.196C40.9605 26.083 40.8383 25.9982 40.7001 25.9512C40.5619 25.9041 40.4133 25.8967 40.2712 25.9298C40.129 25.9629 39.999 26.0351 39.8958 26.1383L35.8333 30.2008L32.1559 26.5234C32.0527 26.4202 31.9227 26.3479 31.7805 26.3149C31.6383 26.2818 31.4898 26.2892 31.3516 26.3363C31.2134 26.3833 31.0912 26.4681 30.9988 26.5811C30.9064 26.6941 30.8474 26.8307 30.8287 26.9754C30.7813 27.3497 30.6299 27.7031 30.3915 27.9955C30.1532 28.2879 29.8375 28.5076 29.4805 28.6294C29.1235 28.7512 28.7394 28.7703 28.372 28.6846C28.0047 28.5989 27.6688 28.4117 27.4025 28.1445C27.0237 27.7647 26.811 27.2502 26.811 26.7138C26.811 26.1774 27.0237 25.6629 27.4025 25.2832C27.7186 24.9701 28.1302 24.7714 28.572 24.7187C28.7167 24.6999 28.8533 24.641 28.9662 24.5486C29.0791 24.4562 29.1639 24.3339 29.211 24.1958C29.258 24.0576 29.2654 23.9091 29.2324 23.7669C29.1993 23.6248 29.1271 23.4948 29.0239 23.3916L24.9096 19.2773L33.9936 10.1932L31.9696 16.6108C31.9125 16.7918 31.9233 16.9873 31.9998 17.1609C32.0763 17.3346 32.2134 17.4744 32.3855 17.5544C32.4812 17.5988 34.7461 18.6258 36.2316 17.1208C37.2195 16.1201 38.555 13.3732 39.0755 12.2567C40.1553 12.1786 42.6123 11.7807 43.9299 9.8064C44.0449 9.63405 44.0867 9.42307 44.0462 9.21988C44.0056 9.01668 43.886 8.83791 43.7137 8.72291C43.5413 8.6079 43.3303 8.56606 43.1271 8.60661C42.9239 8.64716 42.7452 8.76676 42.6302 8.93912C41.4261 10.7433 38.6116 10.7131 38.5842 10.7125C38.4307 10.7095 38.2797 10.7516 38.1499 10.8335C38.02 10.9153 37.917 11.0334 37.8535 11.1732C37.3758 12.2358 35.9535 15.1785 35.1197 16.0232C34.7291 16.4186 34.1454 16.4158 33.696 16.3319L36.4441 7.61714C36.4968 7.45033 36.4919 7.27068 36.4303 7.10696C36.3687 6.94325 36.2539 6.80494 36.1044 6.71419C35.9548 6.62345 35.7792 6.58551 35.6055 6.60646C35.4318 6.62741 35.2702 6.70604 35.1466 6.82974L31.7689 10.2074L32.2819 8.53511L35.2447 5.57193L41.2293 4.15113C41.3702 4.11768 41.499 4.04573 41.6013 3.94332L44.2106 1.33355C44.2852 1.26148 44.3448 1.17528 44.3857 1.07996C44.4266 0.984644 44.4482 0.882129 44.4491 0.778395C44.45 0.674661 44.4302 0.571787 44.391 0.475774C44.3517 0.379761 44.2937 0.292533 44.2203 0.219179C44.147 0.145826 44.0597 0.0878154 43.9637 0.0485334C43.8677 0.00925148 43.7648 -0.0105155 43.6611 -0.00961406C43.5574 -0.00871264 43.4548 0.0128391 43.3595 0.0537836C43.2642 0.0947282 43.178 0.154246 43.1059 0.228863L40.6531 2.68199L34.6684 4.10308C34.5276 4.13651 34.3987 4.20842 34.2964 4.3108L31.0395 7.56832C30.9493 7.65859 30.8825 7.76961 30.8451 7.89166L29.4121 12.5649L23.2522 18.7246C23.1057 18.8711 23.0234 19.0698 23.0234 19.277C23.0234 19.4841 23.1057 19.6828 23.2522 19.8294L27.0361 23.6132C26.766 23.7679 26.5177 23.9579 26.2977 24.1781C25.9647 24.5111 25.7006 24.9064 25.5203 25.3415C25.3401 25.7765 25.2473 26.2428 25.2473 26.7138C25.2473 27.1847 25.3401 27.651 25.5203 28.0861C25.7005 28.5212 25.9646 28.9165 26.2976 29.2495C26.9701 29.9221 27.8822 30.2999 28.8333 30.2999C29.3042 30.2999 29.7705 30.2072 30.2056 30.027C30.6407 29.8468 31.036 29.5826 31.369 29.2497C31.5893 29.0297 31.7793 28.7814 31.9341 28.5113L35.2809 31.8582C35.3535 31.9307 35.4396 31.9883 35.5344 32.0276C35.6292 32.0668 35.7308 32.087 35.8334 32.087C35.936 32.087 36.0376 32.0668 36.1324 32.0276C36.2272 31.9883 36.3134 31.9307 36.3859 31.8582L40.1195 28.1245C40.2718 28.3884 40.4582 28.6311 40.6738 28.8464C41.3413 29.5089 42.2441 29.8798 43.1845 29.878C44.1249 29.8762 45.0263 29.5019 45.6913 28.8369C46.3563 28.1719 46.7306 27.2705 46.7324 26.3301C46.7342 25.3897 46.3633 24.4869 45.7009 23.8194C45.4855 23.6038 45.2428 23.4174 44.9789 23.2651L48.2801 19.9635C48.4266 19.817 48.5088 19.6183 48.5088 19.4111C48.5088 19.204 48.4266 19.0053 48.2801 18.8587L44.4395 15.0182L45.3491 14.1086C46.8669 12.5909 47.1546 10.3113 47.2089 9.45308Z" fill="#212121"/>
<path id="Vector_2" d="M27.3416 30.8724C27.2376 30.7684 27.1064 30.6959 26.963 30.6632C26.8196 30.6305 26.6698 30.6389 26.531 30.6875C26.3922 30.7361 26.2699 30.823 26.1782 30.938C26.0866 31.053 26.0292 31.1916 26.0128 31.3378C25.9734 31.7119 25.8288 32.0672 25.5958 32.3626C25.3628 32.658 25.051 32.8814 24.6963 33.0069C24.3417 33.1324 23.9587 33.1549 23.5918 33.0719C23.2249 32.9888 22.889 32.8035 22.6229 32.5375C22.3569 32.2715 22.1717 31.9356 22.0886 31.5687C22.0055 31.2018 22.0281 30.8188 22.1536 30.4642C22.2791 30.1095 22.5025 29.7976 22.7979 29.5647C23.0932 29.3317 23.4486 29.1871 23.8227 29.1476C23.9689 29.1313 24.1075 29.0739 24.2225 28.9823C24.3376 28.8906 24.4244 28.7683 24.473 28.6295C24.5216 28.4907 24.5301 28.3409 24.4974 28.1975C24.4647 28.0541 24.3921 27.9228 24.2881 27.8188L20.0264 23.5572C19.9539 23.4847 19.8677 23.4271 19.7729 23.3878C19.6782 23.3486 19.5766 23.3284 19.474 23.3284C19.3714 23.3284 19.2698 23.3486 19.175 23.3878C19.0802 23.4271 18.9941 23.4847 18.9215 23.5572L15.6202 26.8586C15.4679 26.5946 15.2815 26.3519 15.0659 26.1366C14.4601 25.5317 13.6563 25.1657 12.8023 25.1059C11.9483 25.0461 11.1014 25.2965 10.4172 25.8111C9.73308 26.3257 9.25762 27.07 9.07824 27.9071C8.89887 28.7442 9.02763 29.6179 9.44085 30.3677L7.88929 30.8469C7.76767 30.8843 7.65704 30.9509 7.56703 31.0408L4.3098 34.2976C4.20733 34.3999 4.13539 34.5287 4.10208 34.6696L2.68148 40.6543L0.228353 43.1071C0.155075 43.1795 0.0968309 43.2656 0.0569714 43.3606C0.0171119 43.4556 -0.00357611 43.5575 -0.00390233 43.6605C-0.00422855 43.7635 0.0158134 43.8655 0.0550706 43.9607C0.0943277 44.056 0.152025 44.1425 0.224843 44.2153C0.297662 44.2881 0.384163 44.3459 0.479372 44.3851C0.574581 44.4244 0.676617 44.4445 0.779611 44.4442C0.882605 44.4439 0.984523 44.4232 1.0795 44.3834C1.17448 44.3436 1.26065 44.2853 1.33304 44.2121L3.94281 41.6027C4.04517 41.5004 4.11708 41.3716 4.15052 41.2307L5.57162 35.246L8.53539 32.2826L10.6289 31.636C10.6726 31.6638 10.716 31.6921 10.7608 31.7179L7.02708 35.4516C6.90149 35.577 6.82229 35.7413 6.80252 35.9176C6.78274 36.0939 6.82357 36.2717 6.91827 36.4217C7.01298 36.5717 7.15594 36.6851 7.32361 36.743C7.49129 36.801 7.67371 36.8002 7.84085 36.7407L16.3361 33.726C16.4149 34.1716 16.4093 34.7391 16.0222 35.1213C15.1776 35.9551 12.2348 37.3771 11.1722 37.8551C11.0326 37.9183 10.9145 38.021 10.8327 38.1505C10.7508 38.28 10.7086 38.4307 10.7115 38.584C10.7115 38.6122 10.7424 41.4277 8.93812 42.6316C8.76577 42.7466 8.64616 42.9254 8.60561 43.1286C8.56507 43.3318 8.6069 43.5428 8.72191 43.7151C8.83692 43.8875 9.01568 44.0071 9.21888 44.0476C9.42207 44.0882 9.63305 44.0463 9.80541 43.9313C11.7799 42.6138 12.1778 40.157 12.2558 39.077C13.3723 38.5566 16.1192 37.221 17.1199 36.2332C18.625 34.7476 17.5984 32.4832 17.5535 32.3871C17.4715 32.2107 17.3267 32.0712 17.1473 31.9959C16.9679 31.9207 16.7669 31.915 16.5836 31.9801L10.5772 34.1113L12.7468 31.9418C12.85 31.8386 12.9222 31.7086 12.9553 31.5664C12.9884 31.4243 12.981 31.2757 12.9339 31.1376C12.8869 30.9994 12.8021 30.8772 12.6892 30.7848C12.5762 30.6924 12.4397 30.6334 12.295 30.6146C11.86 30.5627 11.4549 30.3671 11.1437 30.0589C10.9587 29.8739 10.812 29.6543 10.7118 29.4126C10.6117 29.1708 10.5602 28.9118 10.5602 28.6502C10.5602 28.3886 10.6117 28.1295 10.7118 27.8878C10.812 27.6461 10.9587 27.4265 11.1437 27.2415C11.3287 27.0565 11.5483 26.9097 11.79 26.8096C12.0317 26.7095 12.2908 26.658 12.5524 26.658C12.814 26.658 13.0731 26.7095 13.3148 26.8096C13.5565 26.9097 13.7761 27.0565 13.9611 27.2415C14.2693 27.5527 14.4648 27.9578 14.5166 28.3928C14.5354 28.5375 14.5943 28.6741 14.6868 28.7871C14.7792 28.9 14.9014 28.9848 15.0396 29.0319C15.1777 29.0789 15.3263 29.0863 15.4685 29.0532C15.6106 29.0202 15.7407 28.9479 15.8439 28.8447L19.474 25.2148L22.2875 28.0284C22.0106 28.184 21.7564 28.377 21.532 28.6018C21.1998 28.9315 20.936 29.3234 20.7557 29.7552C20.5754 30.1871 20.4821 30.6502 20.4812 31.1182C20.4803 31.5861 20.5719 32.0496 20.7505 32.4821C20.9292 32.9146 21.1915 33.3076 21.5224 33.6385C21.8533 33.9694 22.2462 34.2317 22.6787 34.4103C23.1112 34.589 23.5747 34.6805 24.0427 34.6796C24.5106 34.6787 24.9738 34.5855 25.4056 34.4051C25.8374 34.2248 26.2294 33.961 26.559 33.6289C26.7839 33.4045 26.9768 33.1502 27.1325 32.8733L30.3978 36.1387L27.6489 38.8877C27.4966 38.6237 27.3102 38.381 27.0946 38.1656C26.7645 37.8355 26.3726 37.5737 25.9413 37.3951C25.5101 37.2164 25.0478 37.1245 24.581 37.1245C24.1142 37.1245 23.652 37.2164 23.2207 37.3951C22.7894 37.5737 22.3975 37.8356 22.0675 38.1657C21.7374 38.4957 21.4756 38.8876 21.2969 39.3189C21.1183 39.7502 21.0263 40.2124 21.0263 40.6792C21.0263 41.146 21.1183 41.6083 21.2969 42.0395C21.4756 42.4708 21.7374 42.8627 22.0675 43.1928C22.2828 43.4084 22.5256 43.5947 22.7895 43.747L19.6082 46.9282L13.7705 41.0905C13.6984 41.0162 13.6122 40.957 13.517 40.9163C13.4218 40.8756 13.3194 40.8542 13.2159 40.8534C13.1123 40.8526 13.0097 40.8724 12.9138 40.9117C12.818 40.9509 12.7309 41.0088 12.6577 41.082C12.5844 41.1552 12.5265 41.2423 12.4872 41.3381C12.4478 41.4339 12.428 41.5365 12.4287 41.6401C12.4294 41.7436 12.4507 41.846 12.4914 41.9413C12.532 42.0365 12.5912 42.1227 12.6655 42.1949L13.8597 43.3891L13.0033 44.2455C11.6074 45.6412 9.14222 45.6601 9.11917 45.6601H9.11664C8.90947 45.6602 8.71079 45.7425 8.56429 45.8889L5.78656 48.6663C5.71267 48.7385 5.65385 48.8247 5.6135 48.9198C5.57315 49.015 5.55207 49.1171 5.55148 49.2205C5.55089 49.3238 5.57081 49.4262 5.61008 49.5218C5.64934 49.6174 5.70718 49.7042 5.78024 49.7773C5.8533 49.8504 5.94013 49.9082 6.0357 49.9475C6.13128 49.9868 6.23369 50.0067 6.33702 50.0062C6.44035 50.0056 6.54254 49.9845 6.63767 49.9442C6.73281 49.9039 6.81899 49.845 6.89124 49.7712L9.45257 47.2101C10.3106 47.1557 12.5901 46.8683 14.1078 45.3505L14.9644 44.494L19.0555 48.5851C19.128 48.6577 19.2142 48.7152 19.309 48.7545C19.4038 48.7938 19.5053 48.814 19.6079 48.814C19.7105 48.814 19.8121 48.7938 19.9069 48.7545C20.0017 48.7152 20.0878 48.6577 20.1604 48.5851L24.7752 43.9702C24.8784 43.867 24.9506 43.7369 24.9837 43.5948C25.0168 43.4526 25.0093 43.3041 24.9623 43.1659C24.9152 43.0278 24.8304 42.9056 24.7175 42.8131C24.6045 42.7207 24.4679 42.6618 24.3232 42.643C23.9529 42.5972 23.6029 42.4483 23.313 42.2132C23.0232 41.9782 22.8053 41.6664 22.6839 41.3136C22.5626 40.9607 22.5429 40.5808 22.6269 40.2173C22.711 39.8537 22.8954 39.521 23.1593 39.2572C23.4232 38.9934 23.7558 38.8089 24.1194 38.7249C24.483 38.6409 24.8628 38.6607 25.2157 38.782C25.5686 38.9034 25.8803 39.1214 26.1153 39.4112C26.3503 39.701 26.4992 40.051 26.5451 40.4214C26.5638 40.5661 26.6228 40.7027 26.7152 40.8156C26.8076 40.9286 26.9299 41.0134 27.068 41.0604C27.2062 41.1075 27.3548 41.1149 27.4969 41.0818C27.6391 41.0487 27.7691 40.9764 27.8723 40.8732L32.0548 36.6907C32.1274 36.6182 32.1849 36.532 32.2242 36.4372C32.2634 36.3425 32.2837 36.2409 32.2837 36.1383C32.2837 36.0357 32.2634 35.9341 32.2242 35.8393C32.1849 35.7445 32.1274 35.6584 32.0548 35.5858L27.3416 30.8724Z" fill="#212121"/>
</g>
<defs>
<clipPath id="clip0_1352_8369">
<rect width="50" height="50" fill="white"/>
</clipPath>
</defs>
</svg>
