<svg width="50" height="50" viewBox="0 0 50 50" fill="none" xmlns="http://www.w3.org/2000/svg">
<g id="pattern 1" clip-path="url(#clip0_411_653)">
<path id="Vector (Stroke)" fill-rule="evenodd" clip-rule="evenodd" d="M3.66211 1.46484C2.44855 1.46484 1.46484 2.44855 1.46484 3.66211V5.99717C1.46484 6.40167 1.13693 6.72959 0.732422 6.72959C0.327916 6.72959 0 6.40167 0 5.99717V3.66211C0 1.63954 1.63954 0 3.66211 0H46.3379C48.3605 0 50 1.63954 50 3.66211V46.3379C50 48.3605 48.3605 50 46.3379 50H3.66211C1.63954 50 0 48.3605 0 46.3379V9.70811C0 9.3036 0.327916 8.97568 0.732422 8.97568C1.13693 8.97568 1.46484 9.3036 1.46484 9.70811V46.3379C1.46484 47.5514 2.44855 48.5352 3.66211 48.5352H46.3379C47.5514 48.5352 48.5352 47.5514 48.5352 46.3379V3.66211C48.5352 2.44855 47.5514 1.46484 46.3379 1.46484H3.66211Z" fill="white"/>
<path id="Vector (Stroke)_2" fill-rule="evenodd" clip-rule="evenodd" d="M8.84082 0C9.24533 0 9.57324 0.327916 9.57324 0.732422V18.662C9.57324 19.0665 9.24533 19.3944 8.84082 19.3944C8.43631 19.3944 8.1084 19.0665 8.1084 18.662V0.732422C8.1084 0.327916 8.43631 0 8.84082 0Z" fill="white"/>
<path id="Vector (Stroke)_3" fill-rule="evenodd" clip-rule="evenodd" d="M8.84082 30.0776C9.24533 30.0776 9.57324 30.4056 9.57324 30.8101V48.7397C9.57324 49.1443 9.24533 49.4722 8.84082 49.4722C8.43631 49.4722 8.1084 49.1443 8.1084 48.7397V30.8101C8.1084 30.4056 8.43631 30.0776 8.84082 30.0776Z" fill="white"/>
<path id="Vector (Stroke)_4" fill-rule="evenodd" clip-rule="evenodd" d="M25 30.0776C25.4045 30.0776 25.7324 30.4056 25.7324 30.8101V48.7397C25.7324 49.1443 25.4045 49.4722 25 49.4722C24.5955 49.4722 24.2676 49.1443 24.2676 48.7397V30.8101C24.2676 30.4056 24.5955 30.0776 25 30.0776Z" fill="white"/>
<path id="Vector (Stroke)_5" fill-rule="evenodd" clip-rule="evenodd" d="M41.1592 30.0776C41.5637 30.0776 41.8916 30.4056 41.8916 30.8101V48.7397C41.8916 49.1443 41.5637 49.4722 41.1592 49.4722C40.7547 49.4722 40.4268 49.1443 40.4268 48.7397V30.8101C40.4268 30.4056 40.7547 30.0776 41.1592 30.0776Z" fill="white"/>
<path id="Vector (Stroke)_6" fill-rule="evenodd" clip-rule="evenodd" d="M25 0C25.4045 0 25.7324 0.327916 25.7324 0.732422V18.662C25.7324 19.0665 25.4045 19.3944 25 19.3944C24.5955 19.3944 24.2676 19.0665 24.2676 18.662V0.732422C24.2676 0.327916 24.5955 0 25 0Z" fill="white"/>
<path id="Vector (Stroke)_7" fill-rule="evenodd" clip-rule="evenodd" d="M41.1592 0C41.5637 0 41.8916 0.327916 41.8916 0.732422V18.662C41.8916 19.0665 41.5637 19.3944 41.1592 19.3944C40.7547 19.3944 40.4268 19.0665 40.4268 18.662V0.732422C40.4268 0.327916 40.7547 0 41.1592 0Z" fill="white"/>
<path id="Vector (Stroke)_8" fill-rule="evenodd" clip-rule="evenodd" d="M33.0791 14.4721C33.4836 14.4721 33.8115 14.8 33.8115 15.2045V35.0043C33.8115 35.4088 33.4836 35.7367 33.0791 35.7367C32.6746 35.7367 32.3467 35.4088 32.3467 35.0043V15.2045C32.3467 14.8 32.6746 14.4721 33.0791 14.4721Z" fill="white"/>
<path id="Vector (Stroke)_9" fill-rule="evenodd" clip-rule="evenodd" d="M16.9209 14.4721C17.3254 14.4721 17.6533 14.8 17.6533 15.2045V35.0043C17.6533 35.4088 17.3254 35.7367 16.9209 35.7367C16.5164 35.7367 16.1885 35.4088 16.1885 35.0043V15.2045C16.1885 14.8 16.5164 14.4721 16.9209 14.4721Z" fill="white"/>
<path id="Vector (Stroke)_10" fill-rule="evenodd" clip-rule="evenodd" d="M16.9395 46.0793C17.344 46.0793 17.6719 46.4072 17.6719 46.8117V48.7397C17.6719 49.1442 17.344 49.4722 16.9395 49.4722C16.5349 49.4722 16.207 49.1442 16.207 48.7397V46.8117C16.207 46.4072 16.5349 46.0793 16.9395 46.0793Z" fill="white"/>
<path id="Vector (Stroke)_11" fill-rule="evenodd" clip-rule="evenodd" d="M33.0791 46.0802C33.4836 46.0802 33.8115 46.4081 33.8115 46.8126V49.2676C33.8115 49.6721 33.4836 50 33.0791 50C32.6746 50 32.3467 49.6721 32.3467 49.2676V46.8126C32.3467 46.4081 32.6746 46.0802 33.0791 46.0802Z" fill="white"/>
<path id="Vector (Stroke)_12" fill-rule="evenodd" clip-rule="evenodd" d="M33.0791 0.449127C33.4836 0.449127 33.8115 0.777044 33.8115 1.18155V3.12969C33.8115 3.5342 33.4836 3.86212 33.0791 3.86212C32.6746 3.86212 32.3467 3.5342 32.3467 3.12969V1.18155C32.3467 0.777044 32.6746 0.449127 33.0791 0.449127Z" fill="white"/>
<path id="Vector (Stroke)_13" fill-rule="evenodd" clip-rule="evenodd" d="M16.9209 0.449127C17.3254 0.449127 17.6533 0.777044 17.6533 1.18155V3.14542C17.6533 3.54992 17.3254 3.87784 16.9209 3.87784C16.5164 3.87784 16.1885 3.54992 16.1885 3.14542V1.18155C16.1885 0.777044 16.5164 0.449127 16.9209 0.449127Z" fill="white"/>
<path id="Vector (Stroke)_14" fill-rule="evenodd" clip-rule="evenodd" d="M16.9202 35.7141L10.0595 40.7557L16.9202 46.0327L23.7809 40.7557L16.9202 35.7141ZM17.7727 34.5227C17.285 34.0963 16.5554 34.0963 16.0678 34.5227L8.40711 40.1521C8.22159 40.2884 8.11097 40.504 8.10844 40.7343C8.10592 40.9645 8.21179 41.1825 8.39428 41.3228L16.0659 47.2236C16.5543 47.6521 17.2861 47.6521 17.7745 47.2236L25.4461 41.3228C25.6286 41.1825 25.7345 40.9645 25.732 40.7343C25.7295 40.504 25.6188 40.2884 25.4333 40.1521L17.7727 34.5227Z" fill="white"/>
<path id="Vector (Stroke)_15" fill-rule="evenodd" clip-rule="evenodd" d="M33.0794 35.7141L26.2187 40.7556L33.0795 46.0327L39.9402 40.7557L38.4491 39.6599C38.1231 39.4204 38.0531 38.962 38.2926 38.636C38.5321 38.3101 38.9906 38.24 39.3165 38.4795L41.5926 40.1521C41.7781 40.2884 41.8887 40.504 41.8913 40.7343C41.8938 40.9645 41.7879 41.1825 41.6054 41.3228L33.9337 47.2236C33.4454 47.652 32.7136 47.6522 32.2252 47.2236L24.5535 41.3228C24.371 41.1825 24.2651 40.9645 24.2676 40.7343C24.2701 40.504 24.3808 40.2884 24.5663 40.1521L32.2269 34.5227C32.7146 34.0963 33.4443 34.0963 33.9319 34.5227L36.0498 36.079C36.3758 36.3186 36.4458 36.777 36.2063 37.103C35.9668 37.4289 35.5084 37.499 35.1824 37.2594L33.0794 35.7141Z" fill="white"/>
<path id="Vector (Stroke)_16" fill-rule="evenodd" clip-rule="evenodd" d="M16.9203 3.81976L10.0595 8.86132L16.9203 14.1383L23.781 8.86132L16.9203 3.81976ZM17.7727 2.62835C17.285 2.20202 16.5555 2.20217 16.0679 2.62831L8.40711 8.25776C8.22159 8.39409 8.11097 8.60972 8.10844 8.83993C8.10592 9.07015 8.21179 9.28815 8.39428 9.42852L16.066 15.3293C16.5544 15.7578 17.2862 15.7578 17.7746 15.3293L25.4462 9.42851C25.6287 9.28815 25.7346 9.07015 25.7321 8.83993C25.7296 8.60972 25.6189 8.39409 25.4334 8.25776L17.7727 2.62835Z" fill="white"/>
<path id="Vector (Stroke)_17" fill-rule="evenodd" clip-rule="evenodd" d="M8.82645 19.7116L1.96576 24.7531L8.82656 30.0302L15.6873 24.7532L8.82645 19.7116ZM9.67901 18.5203C9.19134 18.0938 8.46172 18.0939 7.97407 18.5201L0.313364 24.1495C0.127841 24.2859 0.0172167 24.5015 0.0146926 24.7317C0.0121685 24.9619 0.118038 25.1799 0.300528 25.3203L7.97226 31.2211C8.46071 31.6497 9.19245 31.6496 9.68082 31.2212L17.3525 25.3204C17.535 25.18 17.6409 24.962 17.6383 24.7318C17.6358 24.5016 17.5252 24.286 17.3397 24.1496L9.67901 18.5203Z" fill="white"/>
<path id="Vector (Stroke)_18" fill-rule="evenodd" clip-rule="evenodd" d="M25.0003 19.7117L18.1396 24.7532L25.0003 30.0302L31.861 24.7532L25.0003 19.7117ZM25.8527 18.5203C25.3651 18.0939 24.6355 18.0938 24.1478 18.5203L16.4872 24.1496C16.3017 24.286 16.191 24.5016 16.1885 24.7318C16.186 24.962 16.2919 25.18 16.4744 25.3204L24.146 31.2212C24.6344 31.6497 25.3662 31.6496 25.8545 31.2212L33.5262 25.3204C33.7087 25.18 33.8146 24.962 33.8121 24.7318C33.8095 24.5016 33.6989 24.286 33.5134 24.1496L25.8527 18.5203Z" fill="white"/>
<path id="Vector (Stroke)_19" fill-rule="evenodd" clip-rule="evenodd" d="M41.1731 19.7117L34.3124 24.7532L41.1731 30.0302L48.0338 24.7532L41.1731 19.7117ZM42.0256 18.5203C41.538 18.0939 40.8083 18.0938 40.3206 18.5203L32.66 24.1496C32.4745 24.286 32.3639 24.5016 32.3614 24.7318C32.3588 24.962 32.4647 25.18 32.6472 25.3204L40.3188 31.2212C40.8073 31.6497 41.539 31.6496 42.0274 31.2212L49.6991 25.3204C49.8816 25.18 49.9874 24.962 49.9849 24.7318C49.9824 24.5016 49.8718 24.286 49.6862 24.1496L42.0256 18.5203Z" fill="white"/>
<path id="Vector (Stroke)_20" fill-rule="evenodd" clip-rule="evenodd" d="M49.4303 34.6648C49.6699 34.9908 49.5998 35.4492 49.2738 35.6887L42.3691 40.7626L49.2988 46.0792C49.6197 46.3255 49.6803 46.7852 49.434 47.1062C49.1878 47.4271 48.728 47.4877 48.4071 47.2414L40.7036 41.3311C40.5208 41.1909 40.4146 40.9728 40.417 40.7424C40.4194 40.512 40.5301 40.2962 40.7157 40.1598L48.4064 34.5083C48.7324 34.2688 49.1908 34.3389 49.4303 34.6648Z" fill="white"/>
<path id="Vector (Stroke)_21" fill-rule="evenodd" clip-rule="evenodd" d="M0.569208 2.78308C0.808737 2.45712 1.26716 2.38705 1.59312 2.62658L9.28384 8.27805C9.46943 8.41442 9.58006 8.63016 9.58251 8.86045C9.58497 9.09075 9.47895 9.30879 9.29631 9.44909L1.59269 15.3667C1.27191 15.6131 0.812099 15.5528 0.565685 15.232C0.31927 14.9112 0.379561 14.4514 0.700348 14.205L7.63092 8.88123L0.725705 3.80699C0.399745 3.56746 0.329679 3.10904 0.569208 2.78308Z" fill="white"/>
<path id="Vector (Stroke)_22" fill-rule="evenodd" clip-rule="evenodd" d="M0.569208 34.6648C0.808738 34.3389 1.26716 34.2688 1.59312 34.5083L9.28384 40.1598C9.46949 40.2962 9.58013 40.512 9.58252 40.7424C9.5849 40.9728 9.47875 41.1909 9.29596 41.3311L1.59235 47.2414C1.27142 47.4877 0.811647 47.4271 0.565422 47.1062C0.319196 46.7852 0.379759 46.3255 0.700691 46.0792L7.63044 40.7626L0.725706 35.6887C0.399745 35.4492 0.329679 34.9908 0.569208 34.6648Z" fill="white"/>
<path id="Vector (Stroke)_23" fill-rule="evenodd" clip-rule="evenodd" d="M33.0794 3.81976L26.2187 8.86132L33.0795 14.1383L39.9402 8.86132L33.0794 3.81976ZM33.9319 2.62835C33.4442 2.20202 32.7147 2.20217 32.227 2.62831L24.5663 8.25776C24.3808 8.39409 24.2701 8.60972 24.2676 8.83993C24.2651 9.07015 24.371 9.28815 24.5535 9.42852L32.2252 15.3293C32.7136 15.7578 33.4454 15.7577 33.9337 15.3293L41.6054 9.42851C41.7879 9.28815 41.8938 9.07015 41.8913 8.83993C41.8887 8.60972 41.7781 8.39409 41.5926 8.25776L33.9319 2.62835Z" fill="white"/>
<path id="Vector (Stroke)_24" fill-rule="evenodd" clip-rule="evenodd" d="M49.4303 2.78308C49.6699 3.10904 49.5998 3.56746 49.2738 3.80699L42.3721 8.87864L49.5394 14.3355C49.8612 14.5805 49.9235 15.0401 49.6784 15.3619C49.4334 15.6838 48.9739 15.746 48.652 15.501L40.7057 9.45099C40.5221 9.31114 40.4151 9.09288 40.417 8.86202C40.419 8.63117 40.5297 8.41475 40.7157 8.27805L48.4064 2.62658C48.7324 2.38705 49.1908 2.45712 49.4303 2.78308Z" fill="white"/>
</g>
<defs>
<clipPath id="clip0_411_653">
<rect width="50" height="50" fill="white"/>
</clipPath>
</defs>
</svg>
