<svg width="24" height="24" viewBox="0 0 24 24" fill="none" xmlns="http://www.w3.org/2000/svg">
<g clip-path="url(#clip0_587_4214)">
<path d="M12 0C5.37258 0 0 5.37258 0 12C0 18.6274 5.37258 24 12 24C18.6274 24 24 18.6274 24 12C24 5.37258 18.6274 0 12 0ZM12 22.9091C5.97506 22.9091 1.09092 18.0249 1.09092 12C1.09092 5.97506 5.97506 1.09092 12 1.09092C18.0249 1.09092 22.9091 5.97506 22.9091 12C22.9091 18.0249 18.0249 22.9091 12 22.9091Z" fill="white"/>
<path d="M12.2281 7.27271C9.56232 7.27271 8.21832 9.12251 8.21832 10.6647C8.21832 11.5989 8.58374 12.4293 9.36671 12.7395C9.39974 12.7524 9.43226 12.7592 9.46271 12.7592C9.55045 12.7592 9.62116 12.7055 9.648 12.6033C9.67432 12.5083 9.73523 12.2683 9.7631 12.1672C9.80026 12.0309 9.78632 11.9839 9.68258 11.8652C9.45652 11.6072 9.31148 11.2732 9.31148 10.801C9.31148 9.42806 10.3737 8.20019 12.0748 8.20019C13.5814 8.20019 14.4093 9.09103 14.4093 10.2807C14.4093 11.8461 13.6934 13.1679 12.6307 13.1679C12.0428 13.1679 11.6041 12.6977 11.745 12.1217C11.9138 11.4337 12.241 10.6915 12.241 10.1955C12.241 9.75064 11.9938 9.38058 11.4839 9.38058C10.8831 9.38058 10.401 9.98083 10.401 10.786C10.401 11.298 10.5801 11.6453 10.5801 11.6453C10.5801 11.6453 9.96697 14.163 9.8591 14.6043C9.64439 15.4823 9.82658 16.5589 9.84206 16.6673C9.84723 16.706 9.88026 16.7272 9.91432 16.7272C9.93703 16.7272 9.96026 16.7179 9.97523 16.6983C10.031 16.6291 10.7453 15.7749 10.9884 14.9212C11.0581 14.6797 11.3832 13.4291 11.3832 13.4291C11.5783 13.7888 12.1481 14.1052 12.7546 14.1052C14.5579 14.1052 15.7817 12.515 15.7817 10.385C15.7812 8.77309 14.3716 7.27271 12.2281 7.27271Z" fill="white"/>
</g>
<defs>
<clipPath id="clip0_587_4214">
<rect width="24" height="24" fill="white"/>
</clipPath>
</defs>
</svg>
