<svg width="50" height="50" viewBox="0 0 50 50" fill="none" xmlns="http://www.w3.org/2000/svg">
<g clip-path="url(#clip0_411_1454)">
<path fill-rule="evenodd" clip-rule="evenodd" d="M3.66211 1.46484C2.44855 1.46484 1.46484 2.44855 1.46484 3.66211V46.3379C1.46484 47.5514 2.44855 48.5352 3.66211 48.5352H46.3379C47.5514 48.5352 48.5352 47.5514 48.5352 46.3379V3.66211C48.5352 2.44855 47.5514 1.46484 46.3379 1.46484H3.66211ZM0 3.66211C0 1.63954 1.63954 0 3.66211 0H46.3379C48.3605 0 50 1.63954 50 3.66211V46.3379C50 48.3605 48.3605 50 46.3379 50H3.66211C1.63954 50 0 48.3605 0 46.3379V3.66211Z" fill="white"/>
<path fill-rule="evenodd" clip-rule="evenodd" d="M12.9865 0.732422C12.9865 0.327916 13.3144 0 13.7189 0H18.931C19.3337 0 19.6609 0.325162 19.6634 0.727892C19.6634 0.728927 19.6635 0.735231 19.6637 0.744752C19.6641 0.777823 19.6652 0.849713 19.6652 0.874512C19.6652 8.06742 15.6187 14.3141 9.68132 17.4643C9.32399 17.6539 8.88063 17.5179 8.69104 17.1606C8.50145 16.8032 8.63743 16.3599 8.99476 16.1703C14.309 13.3507 17.9766 7.84484 18.1905 1.46484H13.7189C13.3144 1.46484 12.9865 1.13693 12.9865 0.732422Z" fill="white"/>
<path fill-rule="evenodd" clip-rule="evenodd" d="M0.732422 12.9691C1.13693 12.9691 1.46484 13.297 1.46484 13.7015V18.1689C2.78685 18.1263 4.0706 17.9355 5.30038 17.6129C5.69165 17.5103 6.09204 17.7442 6.19468 18.1355C6.29732 18.5268 6.06334 18.9272 5.67208 19.0298C4.14671 19.43 2.54628 19.6428 0.897168 19.6428C0.861634 19.6428 0.810125 19.642 0.771117 19.6414C0.751864 19.6411 0.735657 19.6409 0.725918 19.6408C0.323966 19.6372 0 19.3103 0 18.9084V13.7015C0 13.297 0.327916 12.9691 0.732422 12.9691Z" fill="white"/>
<path fill-rule="evenodd" clip-rule="evenodd" d="M25.0004 15.1832C19.5787 15.1832 15.1836 19.5784 15.1836 25C15.1836 30.4217 19.5787 34.8168 25.0004 34.8168C28.5898 34.8168 31.7302 32.8908 33.4431 30.0124C33.6499 29.6648 34.0994 29.5507 34.447 29.7575C34.7946 29.9644 34.9087 30.4139 34.7019 30.7615C32.7358 34.0653 29.1273 36.2817 25.0004 36.2817C18.7697 36.2817 13.7188 31.2307 13.7188 25C13.7188 18.7693 18.7697 13.7184 25.0004 13.7184C31.2311 13.7184 36.282 18.7693 36.282 25C36.282 25.4984 36.2497 25.9897 36.1868 26.4718C36.1345 26.8729 35.7669 27.1557 35.3658 27.1033C34.9647 27.051 34.682 26.6834 34.7343 26.2823C34.789 25.863 34.8172 25.435 34.8172 25C34.8172 19.5784 30.4221 15.1832 25.0004 15.1832Z" fill="white"/>
<path fill-rule="evenodd" clip-rule="evenodd" d="M25.0005 19.6655C22.0543 19.6655 19.666 22.0539 19.666 25C19.666 27.9461 22.0543 30.3345 25.0005 30.3345C27.9466 30.3345 30.335 27.9461 30.335 25C30.335 22.0539 27.9466 19.6655 25.0005 19.6655ZM18.2012 25C18.2012 21.2448 21.2453 18.2007 25.0005 18.2007C28.7556 18.2007 31.7998 21.2448 31.7998 25C31.7998 28.7552 28.7556 31.7993 25.0005 31.7993C21.2453 31.7993 18.2012 28.7552 18.2012 25Z" fill="white"/>
<path fill-rule="evenodd" clip-rule="evenodd" d="M7.53423 0.218277C7.67188 0.0786257 7.85977 0 8.05586 0H13.7179C14.1199 0 14.4468 0.324059 14.4503 0.726072C14.4503 0.727712 14.4504 0.732936 14.4505 0.740362C14.4508 0.764065 14.4516 0.810196 14.4516 0.833789C14.4516 8.34581 8.36193 14.4354 0.849902 14.4354C0.821409 14.4354 0.779886 14.4348 0.751579 14.4343C0.7399 14.4342 0.730471 14.434 0.725134 14.4339C0.323492 14.43 0 14.1032 0 13.7016V8.03965C0 7.84349 0.0786815 7.65554 0.21842 7.51788C0.358158 7.38022 0.547275 7.30437 0.743407 7.30731C0.756586 7.30751 0.768301 7.3077 0.779053 7.30788C0.806098 7.30834 0.827053 7.30869 0.849902 7.30869C4.42587 7.30869 7.32481 4.40975 7.32481 0.833789C7.32481 0.81682 7.32456 0.803355 7.32421 0.784551C7.324 0.773264 7.32376 0.760052 7.32351 0.743005C7.32068 0.546941 7.39658 0.357928 7.53423 0.218277ZM8.76494 1.46484C8.45927 5.35197 5.35414 8.45215 1.46484 8.75007V12.9553C7.67305 12.6455 12.6527 7.67092 12.9706 1.46484H8.76494Z" fill="white"/>
<path fill-rule="evenodd" clip-rule="evenodd" d="M30.3358 0.728014C30.3382 0.325284 30.6654 0.00012207 31.0682 0.00012207H36.2815C36.686 0.00012207 37.014 0.328039 37.014 0.732544C37.014 1.13705 36.686 1.46497 36.2815 1.46497H31.8087C32.1136 10.5597 39.4369 17.8758 48.5347 18.169V14.0467C48.5347 13.6422 48.8626 13.3143 49.2671 13.3143C49.6716 13.3143 49.9995 13.6422 49.9995 14.0467V18.9085C49.9995 19.3105 49.6755 19.6373 49.2736 19.6409C49.2638 19.641 49.2476 19.6413 49.2284 19.6416C49.1894 19.6422 49.1379 19.643 49.1023 19.643C38.7368 19.643 30.334 11.2401 30.334 0.874634C30.334 0.849861 30.335 0.778097 30.3355 0.744979C30.3357 0.735399 30.3358 0.729053 30.3358 0.728014Z" fill="white"/>
<path fill-rule="evenodd" clip-rule="evenodd" d="M35.5501 0.726072C35.5536 0.324059 35.8805 0 36.2825 0H41.9444C42.1402 0 42.3277 0.0783326 42.4653 0.217524C42.6029 0.356715 42.6791 0.545184 42.6768 0.740889C42.6766 0.76234 42.6763 0.77704 42.6761 0.789239C42.6758 0.805199 42.6756 0.816877 42.6756 0.833789C42.6756 4.40975 45.5745 7.30869 49.1505 7.30869C49.1733 7.30869 49.1943 7.30834 49.2213 7.30788C49.2321 7.3077 49.2438 7.30751 49.257 7.30731C49.4531 7.30437 49.6422 7.38022 49.782 7.51788C49.9217 7.65554 50.0004 7.84349 50.0004 8.03965V13.7016C50.0004 14.1032 49.6769 14.4299 49.2753 14.4339C49.2699 14.434 49.2605 14.4342 49.2488 14.4343C49.2205 14.4348 49.179 14.4354 49.1505 14.4354C41.6385 14.4354 35.5488 8.34581 35.5488 0.833789C35.5488 0.810198 35.5495 0.764072 35.5499 0.740368C35.55 0.732939 35.5501 0.727712 35.5501 0.726072ZM37.0298 1.46484C37.3477 7.67092 42.3273 12.6455 48.5355 12.9553V8.75007C44.6462 8.45215 41.5411 5.35197 41.2355 1.46484H37.0298Z" fill="white"/>
<path fill-rule="evenodd" clip-rule="evenodd" d="M1.46484 31.8312V36.2985C1.46484 36.703 1.13693 37.0309 0.732422 37.0309C0.327916 37.0309 0 36.703 0 36.2985V31.0917C0 30.6897 0.323966 30.3628 0.725918 30.3593C0.735677 30.3592 0.751896 30.3589 0.771156 30.3586C0.810157 30.358 0.861625 30.3572 0.897168 30.3572C11.2627 30.3572 19.6655 38.7601 19.6655 49.1255C19.6655 49.1503 19.6645 49.2219 19.664 49.2551C19.6639 49.2647 19.6638 49.2711 19.6638 49.2722C19.6613 49.6749 19.3341 50 18.9313 50H13.718C13.3135 50 12.9855 49.6721 12.9855 49.2676C12.9855 48.8631 13.3135 48.5352 13.718 48.5352H18.1908C17.8859 39.4405 10.5626 32.1244 1.46484 31.8312Z" fill="white"/>
<path fill-rule="evenodd" clip-rule="evenodd" d="M1.46484 37.0447V41.25C5.35414 41.5479 8.45927 44.6481 8.76494 48.5352H12.9706C12.6527 42.3291 7.67305 37.3545 1.46484 37.0447ZM0.751541 35.5657C0.77985 35.5652 0.821421 35.5646 0.849902 35.5646C8.36193 35.5646 14.4516 41.6542 14.4516 49.1662C14.4516 49.1898 14.4508 49.236 14.4505 49.2597C14.4504 49.2671 14.4503 49.2723 14.4503 49.274C14.4468 49.676 14.1199 50 13.7179 50H8.05586C7.85977 50 7.67188 49.9214 7.53423 49.7817C7.39658 49.6421 7.32068 49.4531 7.32351 49.257C7.32376 49.24 7.324 49.2268 7.32421 49.2155C7.32456 49.1967 7.32481 49.1832 7.32481 49.1662C7.32481 45.5903 4.42587 42.6913 0.849902 42.6913C0.827051 42.6913 0.806104 42.6917 0.779054 42.6921C0.768304 42.6923 0.756589 42.6925 0.743407 42.6927C0.547275 42.6957 0.358158 42.6198 0.21842 42.4821C0.0786815 42.3445 0 42.1565 0 41.9604V36.2985C0 35.8968 0.323492 35.5701 0.725134 35.5661C0.730451 35.566 0.739869 35.5659 0.751541 35.5657Z" fill="white"/>
<path fill-rule="evenodd" clip-rule="evenodd" d="M30.334 49.1255C30.334 38.7601 38.7368 30.3572 49.1023 30.3572C49.1379 30.3572 49.1894 30.358 49.2284 30.3586C49.2476 30.3589 49.2638 30.3592 49.2736 30.3593C49.6755 30.3628 49.9995 30.6897 49.9995 31.0917V36.2985C49.9995 36.703 49.6716 37.0309 49.2671 37.0309C48.8626 37.0309 48.5347 36.703 48.5347 36.2985V31.8312C39.4369 32.1244 32.1136 39.4405 31.8087 48.5352H36.2815C36.686 48.5352 37.014 48.8631 37.014 49.2676C37.014 49.6721 36.686 50 36.2815 50H31.0682C30.6654 50 30.3382 49.6749 30.3358 49.2722C30.3358 49.2711 30.3357 49.2648 30.3355 49.2552C30.335 49.2221 30.334 49.1503 30.334 49.1255Z" fill="white"/>
<path fill-rule="evenodd" clip-rule="evenodd" d="M35.5488 49.1662C35.5488 41.6542 41.6385 35.5646 49.1505 35.5646C49.179 35.5646 49.2206 35.5652 49.2489 35.5657C49.2606 35.5659 49.27 35.566 49.2753 35.5661C49.6769 35.5701 50.0004 35.8968 50.0004 36.2985V41.9604C50.0004 42.1565 49.9217 42.3445 49.782 42.4821C49.6422 42.6198 49.4531 42.6957 49.257 42.6927C49.2438 42.6925 49.2321 42.6923 49.2213 42.6921C49.1943 42.6917 49.1733 42.6913 49.1505 42.6913C45.5745 42.6913 42.6756 45.5903 42.6756 49.1662C42.6756 49.1844 42.6759 49.2002 42.6762 49.2216C42.6764 49.2318 42.6766 49.2433 42.6768 49.257C42.6796 49.4531 42.6037 49.6421 42.4661 49.7817C42.3284 49.9214 42.1405 50 41.9444 50H36.2825C35.8805 50 35.5536 49.676 35.5501 49.274C35.5501 49.2723 35.55 49.2671 35.5499 49.2597C35.5495 49.236 35.5488 49.1898 35.5488 49.1662ZM37.0298 48.5352H41.2355C41.5411 44.6481 44.6462 41.5479 48.5355 41.25V37.0447C42.3273 37.3545 37.3477 42.3291 37.0298 48.5352Z" fill="white"/>
<path fill-rule="evenodd" clip-rule="evenodd" d="M25 0C25.4045 0 25.7324 0.327916 25.7324 0.732422V14.4508C25.7324 14.8553 25.4045 15.1832 25 15.1832C24.5955 15.1832 24.2676 14.8553 24.2676 14.4508V0.732422C24.2676 0.327916 24.5955 0 25 0Z" fill="white"/>
<path fill-rule="evenodd" clip-rule="evenodd" d="M34.8164 25C34.8164 24.5955 35.1443 24.2676 35.5488 24.2676H49.2672C49.6717 24.2676 49.9996 24.5955 49.9996 25C49.9996 25.4045 49.6717 25.7324 49.2672 25.7324H35.5488C35.1443 25.7324 34.8164 25.4045 34.8164 25Z" fill="white"/>
<path fill-rule="evenodd" clip-rule="evenodd" d="M25 34.8168C25.4045 34.8168 25.7324 35.1447 25.7324 35.5492V49.2676C25.7324 49.6721 25.4045 50 25 50C24.5955 50 24.2676 49.6721 24.2676 49.2676V35.5492C24.2676 35.1447 24.5955 34.8168 25 34.8168Z" fill="white"/>
<path fill-rule="evenodd" clip-rule="evenodd" d="M0 25C0 24.5955 0.327916 24.2676 0.732422 24.2676H14.4508C14.8553 24.2676 15.1832 24.5955 15.1832 25C15.1832 25.4045 14.8553 25.7324 14.4508 25.7324H0.732422C0.327916 25.7324 0 25.4045 0 25Z" fill="white"/>
</g>
<defs>
<clipPath id="clip0_411_1454">
<rect width="50" height="50" fill="white"/>
</clipPath>
</defs>
</svg>
