<svg width="33" height="64" viewBox="0 0 33 64" fill="none" xmlns="http://www.w3.org/2000/svg">
<path d="M33 21.0776C32.409 23.3633 31.6537 25.8449 30.7343 28.5224C29.8149 31.2 28.797 33.8776 27.6806 36.5551C26.6299 39.1673 25.5791 41.649 24.5284 44H18.0269C18.6836 41.5184 19.3075 38.8735 19.8985 36.0653C20.5552 33.1918 21.1463 30.3837 21.6716 27.6408C22.2627 24.8327 22.7224 22.2857 23.0507 20H32.3104L33 21.0776ZM14.7761 21.0776C14.1851 23.3633 13.4299 25.8449 12.5104 28.5224C11.591 31.2 10.5731 33.8776 9.45672 36.5551C8.40597 39.1673 7.35522 41.649 6.30448 44H0C0.459702 42.1714 0.919403 40.2122 1.3791 38.1224C1.83881 36.0326 2.26567 33.9429 2.6597 31.8531C3.1194 29.698 3.51343 27.6082 3.84179 25.5837C4.23582 23.5592 4.56418 21.698 4.82687 20H14.0866L14.7761 21.0776Z" fill="#FD6E10"/>
</svg>
