<svg width="20" height="20" viewBox="0 0 20 20" fill="none" xmlns="http://www.w3.org/2000/svg">
<g id="fluent:space-3d-16-filled">
<path id="Vector" d="M2.5 5.625C2.5 4.7962 2.82924 4.00134 3.41529 3.41529C4.00134 2.82924 4.7962 2.5 5.625 2.5H14.375C15.2038 2.5 15.9987 2.82924 16.5847 3.41529C17.1708 4.00134 17.5 4.7962 17.5 5.625V12.5H16.585L14.9175 10H16.25V5.625C16.25 5.12772 16.0525 4.65081 15.7008 4.29917C15.3492 3.94754 14.8723 3.75 14.375 3.75H5.625C5.12772 3.75 4.65081 3.94754 4.29917 4.29917C3.94754 4.65081 3.75 5.12772 3.75 5.625V10H5.0825L3.415 12.5H2.5V5.625ZM2.5 14.375V13.75H6.6325L5.38625 17.4913C4.60101 17.4311 3.86745 17.0767 3.3323 16.4989C2.79716 15.9211 2.4999 15.1625 2.5 14.375ZM7.95 13.75H12.05L13.3 17.5H6.7L7.95 13.75ZM8.3675 12.5H11.6325L10.8 10H9.2L8.3675 12.5ZM13.3675 13.75H17.5V14.375C17.5001 15.1625 17.2028 15.9211 16.6677 16.4989C16.1326 17.0767 15.399 17.4311 14.6138 17.4913L13.3675 13.75ZM12.95 12.5H15.0825L13.415 10H12.1175L12.95 12.5ZM4.9175 12.5H7.05L7.8825 10H6.585L4.9175 12.5Z" fill="white"/>
</g>
</svg>
