<svg width="20" height="20" viewBox="0 0 20 20" fill="none" xmlns="http://www.w3.org/2000/svg">
<g id="pajamas:issue-type-objective" clip-path="url(#clip0_1807_7163)">
<path id="Vector" fill-rule="evenodd" clip-rule="evenodd" d="M16.2962 0.0712344C16.4675 0.142196 16.6139 0.262375 16.7169 0.416568C16.82 0.570762 16.8749 0.752043 16.8749 0.937484V3.12498H19.0624C19.2477 3.12515 19.4288 3.18022 19.5828 3.28324C19.7369 3.38627 19.8569 3.53263 19.9278 3.70383C19.9987 3.87503 20.0172 4.06341 19.9811 4.24515C19.945 4.4269 19.8559 4.59388 19.7249 4.72498L15.9749 8.47499C15.7993 8.65085 15.561 8.74977 15.3124 8.74998H14.8412C15.0894 9.71153 15.0457 10.7252 14.7156 11.6618C14.3855 12.5984 13.7839 13.4155 12.9877 14.0089C12.1914 14.6023 11.2365 14.9452 10.2446 14.9938C9.2527 15.0424 8.26882 14.7945 7.41835 14.2818C6.56788 13.7691 5.88936 13.0147 5.46927 12.1149C5.04919 11.215 4.90657 10.2105 5.0596 9.22926C5.21264 8.24805 5.65439 7.33464 6.32854 6.60547C7.00269 5.87629 7.87871 5.36438 8.84492 5.13498C9.08693 5.07747 9.34187 5.11844 9.55367 5.2489C9.76547 5.37935 9.91677 5.5886 9.97429 5.83061C10.0318 6.07262 9.99084 6.32757 9.86038 6.53937C9.72993 6.75116 9.52068 6.90247 9.27867 6.95998C8.65399 7.1079 8.09002 7.44461 7.66344 7.92433C7.23686 8.40405 6.96837 9.0035 6.89448 9.64119C6.82059 10.2789 6.94487 10.9238 7.25044 11.4884C7.55601 12.053 8.02804 12.5097 8.60233 12.7966C9.17663 13.0834 9.82534 13.1864 10.4603 13.0916C11.0952 12.9968 11.6855 12.7088 12.1509 12.2667C12.6164 11.8245 12.9343 11.2498 13.0616 10.6206C13.1889 9.9914 13.1194 9.33826 12.8624 8.74998H12.5749L10.6624 10.6625C10.5766 10.7546 10.4731 10.8285 10.3581 10.8797C10.2431 10.931 10.1189 10.9585 9.99307 10.9607C9.86719 10.9629 9.74216 10.9398 9.62542 10.8926C9.50869 10.8455 9.40264 10.7753 9.31362 10.6863C9.2246 10.5973 9.15442 10.4912 9.10726 10.3745C9.06011 10.2577 9.03696 10.1327 9.03918 10.0068C9.0414 9.88095 9.06895 9.75681 9.12019 9.64181C9.17143 9.52681 9.24531 9.42331 9.33742 9.33748L11.2499 7.42498V4.68748C11.2501 4.43893 11.3491 4.20063 11.5249 4.02498L15.2749 0.274984C15.4059 0.14387 15.5729 0.0545352 15.7547 0.0182697C15.9364 -0.0179958 16.1249 0.000435463 16.2962 0.0712344ZM13.1249 5.07623V6.87498H14.9249L16.7999 4.99998H14.9999V3.19998L13.1249 5.07623ZM6.02492 2.91248C7.489 2.09125 9.17151 1.74365 10.8412 1.91748C10.9636 1.93021 11.0874 1.91868 11.2054 1.88357C11.3234 1.84847 11.4333 1.79046 11.5289 1.71286C11.6245 1.63527 11.7039 1.53961 11.7625 1.43134C11.8211 1.32307 11.8578 1.20432 11.8705 1.08186C11.8833 0.959402 11.8717 0.835637 11.8366 0.717633C11.8015 0.599628 11.7435 0.489695 11.6659 0.394108C11.5883 0.298522 11.4927 0.219155 11.3844 0.160539C11.2761 0.101923 11.1574 0.0652062 11.0349 0.0524844C8.97976 -0.161354 6.90881 0.266681 5.10682 1.27774C3.30483 2.2888 1.86027 3.83323 0.97176 5.6987C0.083252 7.56417 -0.205579 9.65907 0.144979 11.6954C0.495537 13.7317 1.46827 15.6094 2.92944 17.0704C4.3906 18.5313 6.26846 19.5038 8.30481 19.8541C10.3412 20.2043 12.436 19.9152 14.3014 19.0264C16.1667 18.1377 17.7109 16.6929 18.7217 14.8908C19.7325 13.0886 20.1603 11.0176 19.9462 8.96248C19.9334 8.84003 19.8967 8.72127 19.8381 8.61301C19.7795 8.50474 19.7001 8.40908 19.6045 8.33148C19.509 8.25389 19.399 8.19588 19.281 8.16077C19.163 8.12566 19.0393 8.11414 18.9168 8.12686C18.7943 8.13958 18.6756 8.1763 18.5673 8.23491C18.459 8.29353 18.3634 8.3729 18.2858 8.46848C18.2082 8.56407 18.1502 8.674 18.1151 8.79201C18.08 8.91001 18.0684 9.03378 18.0812 9.15623C18.2334 10.6146 17.9882 12.0871 17.3714 13.4174C16.7546 14.7477 15.7893 15.8863 14.5779 16.7125C13.3665 17.5387 11.954 18.0216 10.4903 18.1101C9.02668 18.1986 7.56635 17.8893 6.2642 17.2151C4.96206 16.5408 3.86665 15.5268 3.09412 14.2805C2.3216 13.0341 1.90075 11.602 1.87622 10.1358C1.85169 8.66968 2.22439 7.22424 2.95478 5.95275C3.68518 4.68127 4.74606 3.63114 6.02492 2.91373V2.91248Z" fill="white"/>
</g>
<defs>
<clipPath id="clip0_1807_7163">
<rect width="20" height="20" fill="white"/>
</clipPath>
</defs>
</svg>
