<svg width="20" height="20" viewBox="0 0 20 20" fill="none" xmlns="http://www.w3.org/2000/svg">
<g id="material-symbols:add-a-photo-outline">
<path id="Vector" d="M2.5026 17.5C2.04427 17.5 1.65205 17.337 1.32594 17.0109C0.999826 16.6848 0.836493 16.2923 0.835938 15.8334V5.83337C0.835938 5.37504 0.999271 4.98282 1.32594 4.65671C1.6526 4.3306 2.04483 4.16726 2.5026 4.16671H5.1276L6.66927 2.50004H11.6693V4.16671H7.39844L5.8776 5.83337H2.5026V15.8334H15.8359V8.33337H17.5026V15.8334C17.5026 16.2917 17.3395 16.6842 17.0134 17.0109C16.6873 17.3375 16.2948 17.5006 15.8359 17.5H2.5026ZM15.8359 5.83337V4.16671H14.1693V2.50004H15.8359V0.833374H17.5026V2.50004H19.1693V4.16671H17.5026V5.83337H15.8359ZM9.16927 14.5834C10.2109 14.5834 11.0965 14.2189 11.8259 13.49C12.5554 12.7612 12.9198 11.8756 12.9193 10.8334C12.9193 9.79171 12.5548 8.90643 11.8259 8.17754C11.097 7.44865 10.2115 7.08393 9.16927 7.08337C8.1276 7.08337 7.24233 7.4481 6.51344 8.17754C5.78455 8.90698 5.41983 9.79226 5.41927 10.8334C5.41927 11.875 5.78399 12.7606 6.51344 13.49C7.24288 14.2195 8.12816 14.5839 9.16927 14.5834ZM9.16927 12.9167C8.58594 12.9167 8.09288 12.7153 7.6901 12.3125C7.28733 11.9098 7.08594 11.4167 7.08594 10.8334C7.08594 10.25 7.28733 9.75699 7.6901 9.35421C8.09288 8.95143 8.58594 8.75004 9.16927 8.75004C9.7526 8.75004 10.2457 8.95143 10.6484 9.35421C11.0512 9.75699 11.2526 10.25 11.2526 10.8334C11.2526 11.4167 11.0512 11.9098 10.6484 12.3125C10.2457 12.7153 9.7526 12.9167 9.16927 12.9167Z" fill="white"/>
</g>
</svg>
