<svg width="20" height="20" viewBox="0 0 20 20" fill="none" xmlns="http://www.w3.org/2000/svg">
<path fill-rule="evenodd" clip-rule="evenodd" d="M13.1165 7.1082C12.2769 5.08098 10.1223 3.92914 7.97026 4.35711C5.81822 4.78509 4.26821 6.67369 4.26819 8.86789C4.26818 10.0874 4.75256 11.2571 5.61483 12.1196C7.16614 13.6713 9.59759 13.9111 11.4221 12.6922C13.2466 11.4734 13.956 9.1354 13.1165 7.1082ZM7.70194 3.00793C10.4977 2.45194 13.2968 3.9483 14.3874 6.58186C15.4781 9.21546 14.5565 12.2526 12.1862 13.8361C9.81595 15.4195 6.65731 15.1079 4.64199 13.0921C3.52183 11.9717 2.89256 10.4522 2.89258 8.86789C2.89261 6.01738 4.90623 3.56391 7.70194 3.00793Z" fill="#212121"/>
<path fill-rule="evenodd" clip-rule="evenodd" d="M13.667 13.6675C13.9356 13.3989 14.3712 13.3989 14.6398 13.6675L16.9059 15.9336C17.1745 16.2022 17.1745 16.6377 16.9059 16.9064C16.6373 17.175 16.2017 17.175 15.9331 16.9064L13.667 14.6403C13.3984 14.3717 13.3984 13.9361 13.667 13.6675Z" fill="#212121"/>
</svg>
