<svg width="24" height="24" viewBox="0 0 24 24" fill="none" xmlns="http://www.w3.org/2000/svg">
<path fill-rule="evenodd" clip-rule="evenodd" d="M15.7399 8.52969C14.7324 6.09703 12.1468 4.71482 9.56441 5.22838C6.98197 5.74196 5.12195 8.00828 5.12193 10.6413C5.12192 12.1048 5.70317 13.5083 6.73789 14.5433C8.59947 16.4054 11.5172 16.6931 13.7066 15.2305C15.8961 13.7679 16.7473 10.9623 15.7399 8.52969ZM9.24243 3.60936C12.5973 2.94218 15.9563 4.73781 17.265 7.89809C18.5738 11.0584 17.4679 14.703 14.6236 16.6031C11.7792 18.5032 7.98887 18.1294 5.57049 15.7104C4.22629 14.3659 3.47117 12.5425 3.47119 10.6413C3.47122 7.22071 5.88757 4.27655 9.24243 3.60936Z" fill="white"/>
<path fill-rule="evenodd" clip-rule="evenodd" d="M16.4006 16.4009C16.7229 16.0786 17.2455 16.0786 17.5679 16.4009L20.2872 19.1202C20.6095 19.4426 20.6095 19.9652 20.2872 20.2875C19.9648 20.6099 19.4422 20.6099 19.1199 20.2875L16.4006 17.5682C16.0782 17.2459 16.0782 16.7233 16.4006 16.4009Z" fill="white"/>
</svg>
