<svg width="1920" height="736" viewBox="0 0 1920 736" fill="none" xmlns="http://www.w3.org/2000/svg">
<path d="M-20.2505 445.567L-20.6019 445.771L-20.4749 446.156C-6.03673 490.006 21.5074 524.499 62.137 549.625C102.768 574.752 153.265 587.3 213.6 587.3C281.407 587.3 334.865 571.549 373.914 539.989C412.981 508.414 432.5 464.262 432.5 407.6C432.5 351.48 413.785 310.504 376.284 284.789C346.361 263.949 306.574 246.064 256.944 231.121L256.939 231.12C220.137 220.452 195.915 212.198 184.227 206.355C172.093 200.022 166.1 191.109 166.1 179.6C166.1 171.242 169.744 164.455 177.091 159.207L177.1 159.2L177.109 159.193C184.458 153.419 194.734 150.5 208 150.5C225.769 150.5 240.992 155.404 253.695 165.196C266.404 174.993 276.624 189.708 284.335 209.382L284.548 209.926L285.052 209.632L417.852 132.032L418.232 131.81L418.061 131.405C400.421 89.7127 372.887 57.6297 335.461 35.1732C298.041 12.1874 255.283 0.699951 207.2 0.699951C147.368 0.699951 98.4423 17.5306 60.4681 51.2259L60.4629 51.2307C23.5559 84.9283 5.1 127.464 5.1 178.8C5.1 222.119 19.076 258.842 47.0337 288.94C74.981 319.027 116.871 342.463 172.656 359.279L172.664 359.281L203.855 368.078C203.857 368.079 203.858 368.079 203.86 368.08C221.463 373.414 231.051 376.344 232.642 376.874L232.653 376.878C239.572 379.007 246.223 381.401 252.608 384.062C258.949 386.704 263.667 390.123 266.8 394.3C269.929 398.471 271.5 403.43 271.5 409.2C271.5 413.918 270.387 418.023 268.177 421.534C265.966 425.046 262.638 427.991 258.166 430.358C249.207 435.101 235.706 437.5 217.6 437.5C193.418 437.5 172.99 431.589 156.288 419.792C139.585 407.993 126.572 390.281 117.265 366.617L117.053 366.076L116.549 366.367L-20.2505 445.567ZM528.139 524.758L528.141 524.76C570.37 565.385 621.428 585.7 681.287 585.7C742.211 585.7 793.273 565.387 834.439 524.756C876.137 484.126 896.988 433.863 896.988 374C896.988 314.668 876.135 264.406 834.439 223.244C793.273 182.613 742.211 162.3 681.287 162.3C620.364 162.3 569.302 182.613 528.136 223.244C486.438 263.874 465.587 314.137 465.587 374C465.587 433.864 486.439 484.128 528.139 524.758ZM728.912 323.93L728.923 323.942L728.934 323.953C741.626 336.646 747.987 353.311 747.987 374C747.987 394.15 741.629 411.091 728.923 424.858C716.762 437.545 700.9 443.9 681.287 443.9C661.679 443.9 645.548 437.547 632.852 424.857C620.681 411.093 614.588 394.152 614.588 374C614.588 353.845 620.683 337.171 632.852 323.942C645.55 310.717 661.682 304.1 681.287 304.1C701.433 304.1 717.288 310.721 728.912 323.93ZM1091.56 174V173.5H1091.06H943.062H942.562V174V574V574.5H943.062H1091.06H1091.56V574V425.2C1091.56 389.053 1103.52 362.558 1127.35 345.607C1151.24 328.621 1179.11 322.244 1211 326.496L1211.56 326.571V326V166V165.5H1211.06C1181.64 165.5 1155.93 173.259 1133.98 188.79C1113.44 203.164 1099.3 222.949 1091.56 248.123V174ZM1403.28 174V173.5H1402.78H1254.78H1254.28V174V574V574.5H1254.78H1402.78H1403.28V574V425.2C1403.28 389.053 1415.23 362.558 1439.07 345.607C1462.96 328.621 1490.83 322.244 1522.72 326.496L1523.28 326.571V326V166V165.5H1522.78C1493.36 165.5 1467.65 173.259 1445.69 188.79C1425.16 203.164 1411.02 222.949 1403.28 248.123V174ZM1781.42 385.749L1710.79 173.842L1710.67 173.5H1710.31H1542.31H1541.57L1541.85 174.189L1701.74 565.916C1693.3 576.365 1681.99 583.434 1667.79 587.116L1667.78 587.119L1667.77 587.122C1653.97 591.366 1633.23 593.5 1605.51 593.5H1605.01V594V734V734.481L1605.49 734.5C1673.82 737.169 1728.86 725.428 1770.58 699.225C1812.3 673.55 1843.03 631.575 1862.79 573.361L1998.79 174.161L1999.01 173.5H1998.31H1830.31H1829.91L1829.83 173.889L1781.42 385.749Z" stroke="#CDCFD4"/>
</svg>
