<svg width="24" height="24" viewBox="0 0 24 24" fill="none" xmlns="http://www.w3.org/2000/svg">
<g clip-path="url(#clip0_587_4223)">
<path d="M12 0C5.37258 0 0 5.37258 0 12C0 18.6274 5.37258 24 12 24C18.6274 24 24 18.6274 24 12C24 5.37258 18.6274 0 12 0ZM12 22.9091C5.97506 22.9091 1.09092 18.0249 1.09092 12C1.09092 5.97506 5.97506 1.09092 12 1.09092C18.0249 1.09092 22.9091 5.97506 22.9091 12C22.9091 18.0249 18.0249 22.9091 12 22.9091Z" fill="white"/>
<path d="M6.65759 6.52993H6.3728L6.5339 6.76478L10.5739 12.6544L6.631 17.2219L6.4169 17.4699H6.74455H7.63486H7.70356L7.74844 17.4179L11.1426 13.4834L13.8325 17.4048L13.8772 17.4699H13.9562H17.32H17.6048L17.4437 17.2351L13.22 11.078L16.9294 6.77791L17.1433 6.52993H16.8158H15.9282H15.8595L15.8147 6.58192L12.6507 10.2474L10.1451 6.59508L10.1004 6.52993H10.0214H6.65759ZM14.33 16.6099L8.00551 7.38993H9.64765L15.9721 16.6099H14.33Z" fill="white" stroke="white" stroke-width="0.3"/>
</g>
<defs>
<clipPath id="clip0_587_4223">
<rect width="24" height="24" fill="white"/>
</clipPath>
</defs>
</svg>
