<svg width="24" height="24" viewBox="0 0 24 24" fill="none" xmlns="http://www.w3.org/2000/svg">
<g clip-path="url(#clip0_587_4203)">
<path d="M11.52 9.77997H11.7436C12.2386 9.77997 12.6406 9.38036 12.6436 8.88541V7.42905C12.6348 6.94052 12.2377 6.54832 11.7491 6.54541H11.5254C11.0305 6.54541 10.6284 6.94502 10.6254 7.43997V8.89633C10.6343 9.38486 11.0314 9.77711 11.52 9.77997ZM11.2963 7.37454C11.2965 7.18779 11.448 7.03643 11.6347 7.03657C11.8213 7.03671 11.9726 7.18793 11.9727 7.37454V8.93997C11.9726 9.12672 11.8211 9.27808 11.6343 9.27794C11.4477 9.2778 11.2965 9.12658 11.2963 8.93997V7.37454Z" fill="white"/>
<path d="M8.86363 9.72546H9.65455V7.98546L10.5546 5.52002H9.81819L9.27271 7.15638L8.72727 5.52002H7.91455L8.87455 7.98546L8.86363 9.72546Z" fill="white"/>
<path d="M13.7727 9.77997C14.0911 9.74936 14.3894 9.61075 14.6182 9.38725V9.72546H15.2727V6.54546H14.6182V9.01089C14.6182 9.01089 14.3945 9.27269 14.1818 9.27269C13.9691 9.27269 13.9582 9.10361 13.9582 9.10361V6.54541H13.2654V9.34361C13.3033 9.59458 13.5189 9.78011 13.7727 9.77997Z" fill="white"/>
<path d="M13.3254 13.4346C13.194 13.441 13.0713 13.5024 12.9872 13.6036V15.8619C13.0735 15.9573 13.1968 16.011 13.3254 16.0091C13.6636 16.0091 13.6636 15.6328 13.6636 15.6328V13.811C13.6636 13.811 13.6036 13.4346 13.3254 13.4346Z" fill="white"/>
<path d="M12 0C5.37258 0 0 5.37258 0 12C0 18.6274 5.37258 24 12 24C18.6274 24 24 18.6274 24 12C24 5.37258 18.6274 0 12 0ZM12 22.9091C5.97506 22.9091 1.09092 18.0249 1.09092 12C1.09092 5.97506 5.97506 1.09092 12 1.09092C18.0249 1.09092 22.9091 5.97506 22.9091 12C22.9091 18.0249 18.0249 22.9091 12 22.9091Z" fill="white"/>
<path d="M15.9164 13.4346C15.5782 13.4346 15.5782 13.8109 15.5782 13.8109V14.2964H16.2545V13.8109C16.2545 13.8109 16.2546 13.4346 15.9164 13.4346Z" fill="white"/>
<path d="M16.1684 10.4774C16.1589 10.4775 16.1495 10.4778 16.14 10.4781H16.1291C16.1291 10.4781 14.0727 10.3635 12 10.3635C9.92729 10.3635 7.86001 10.4726 7.86001 10.4726C6.95678 10.4425 6.20012 11.1503 6.17003 12.0535C6.16942 12.072 6.16909 12.0905 6.16914 12.109C6.06498 12.7951 6.00845 13.4877 6.00006 14.1817C6.00775 14.8829 6.06423 15.5828 6.16914 16.2762C6.16862 17.18 6.90086 17.913 7.80461 17.9135C7.82308 17.9135 7.84159 17.9132 7.86006 17.9126C7.86006 17.9126 9.89462 18.0217 12.0001 18.0217C14.1055 18.0217 16.1401 17.9126 16.1401 17.9126C17.0433 17.9427 17.7999 17.2349 17.83 16.3317C17.8307 16.3132 17.831 16.2947 17.8309 16.2762C17.9353 15.5828 17.9918 14.8829 18 14.1817C17.9931 13.4804 17.9366 12.7804 17.8309 12.0871C17.8164 11.1836 17.072 10.4628 16.1684 10.4774ZM9.55094 12.3053H8.7273V16.549H7.91458V12.3053H7.09094V11.6071H9.5673L9.55094 12.3053ZM11.6946 16.549H11.0128V16.2272C10.7807 16.4433 10.4832 16.5757 10.1673 16.6035C9.91361 16.6088 9.69587 16.4239 9.66006 16.1726V12.8399H10.3637V15.9544C10.3637 15.9544 10.3637 16.1181 10.5873 16.1181C10.811 16.1181 11.0401 15.8508 11.0401 15.8508V12.8399H11.7164L11.6946 16.549ZM13.7182 16.6035C13.4313 16.6061 13.1601 16.4726 12.9873 16.2435V16.549H12.2509V11.6072H12.9819V13.2108C13.1689 12.9989 13.431 12.8679 13.7128 12.8454C14.1655 12.8454 14.3346 13.2217 14.3346 13.7072L14.34 15.7417C14.34 15.7417 14.34 16.6035 13.7182 16.6035ZM16.9854 14.8472H15.5782V15.6544C15.5782 15.6544 15.5782 16.0308 15.9164 16.0308C16.2546 16.0308 16.2546 15.6544 16.2546 15.6544V15.2726H16.9855V15.8617C16.8877 16.3339 16.4513 16.6577 15.9709 16.6144C15.4734 16.6592 15.0147 16.3427 14.88 15.8617V13.7562C14.8952 13.2323 15.3322 12.8198 15.8562 12.835C15.8946 12.8361 15.9329 12.8396 15.9709 12.8453C16.457 12.7758 16.9075 13.1134 16.9771 13.5994C16.9845 13.6513 16.9873 13.7038 16.9855 13.7562V14.8472H16.9854Z" fill="white"/>
</g>
<defs>
<clipPath id="clip0_587_4203">
<rect width="24" height="24" fill="white"/>
</clipPath>
</defs>
</svg>
