<svg width="30" height="30" viewBox="0 0 30 30" fill="none" xmlns="http://www.w3.org/2000/svg">
<g clip-path="url(#clip0_895_4444)">
<path d="M14.4 12.2248H14.6796C15.2982 12.2248 15.8008 11.7253 15.8046 11.1066V9.28619C15.7935 8.67553 15.2971 8.18527 14.6864 8.18164H14.4068C13.7881 8.18164 13.2855 8.68115 13.2818 9.29984V11.1203C13.2929 11.731 13.7892 12.2213 14.4 12.2248ZM14.1205 9.21805C14.1206 8.98461 14.31 8.79541 14.5434 8.79559C14.7767 8.79576 14.9658 8.98479 14.9659 9.21805V11.1748C14.9657 11.4083 14.7764 11.5975 14.5429 11.5973C14.3097 11.5971 14.1206 11.4081 14.1205 11.1748V9.21805Z" fill="#212121"/>
<path d="M11.0795 12.1567H12.0682V9.9817L13.1932 6.8999H12.2727L11.5909 8.94535L10.9091 6.8999H9.89319L11.0932 9.9817L11.0795 12.1567Z" fill="#212121"/>
<path d="M17.2159 12.2248C17.6139 12.1866 17.9867 12.0133 18.2727 11.7339V12.1567H19.0909V8.1817H18.2727V11.2635C18.2727 11.2635 17.9931 11.5907 17.7272 11.5907C17.4613 11.5907 17.4477 11.3794 17.4477 11.3794V8.18164H16.5818V11.6794C16.6291 11.9931 16.8987 12.225 17.2159 12.2248Z" fill="#212121"/>
<path d="M16.6568 16.793C16.4925 16.801 16.3391 16.8777 16.234 17.0043V19.8271C16.3419 19.9464 16.496 20.0135 16.6568 20.0112C17.0795 20.0112 17.0795 19.5407 17.0795 19.5407V17.2635C17.0795 17.2635 17.0045 16.793 16.6568 16.793Z" fill="#212121"/>
<path d="M15 0C6.71572 0 0 6.71572 0 15C0 23.2843 6.71572 30 15 30C23.2843 30 30 23.2843 30 15C30 6.71572 23.2843 0 15 0ZM15 28.6363C7.46883 28.6363 1.36365 22.5312 1.36365 15C1.36365 7.46883 7.46883 1.36365 15 1.36365C22.5312 1.36365 28.6363 7.46883 28.6363 15C28.6363 22.5312 22.5312 28.6363 15 28.6363Z" fill="#212121"/>
<path d="M19.8954 16.793C19.4727 16.793 19.4727 17.2634 19.4727 17.2634V17.8702H20.3181V17.2634C20.3181 17.2634 20.3182 16.793 19.8954 16.793Z" fill="#212121"/>
<path d="M20.2105 13.0969C20.1987 13.0971 20.1868 13.0974 20.175 13.0978H20.1614C20.1614 13.0978 17.5909 12.9546 15 12.9546C12.4091 12.9546 9.825 13.0909 9.825 13.0909C8.69596 13.0533 7.75014 13.938 7.71252 15.0671C7.71176 15.0902 7.71135 15.1133 7.71141 15.1364C7.58121 15.9941 7.51055 16.8598 7.50006 17.7273C7.50967 18.6038 7.58028 19.4787 7.71141 20.3455C7.71076 21.4752 8.62606 22.3915 9.75574 22.3921C9.77883 22.3921 9.80197 22.3917 9.82506 22.3909C9.82506 22.3909 12.3683 22.5273 15.0001 22.5273C17.6319 22.5273 20.1751 22.3909 20.1751 22.3909C21.3041 22.4286 22.2499 21.5438 22.2875 20.4148C22.2883 20.3917 22.2887 20.3686 22.2887 20.3455C22.4191 19.4787 22.4897 18.6038 22.5 17.7273C22.4914 16.8507 22.4207 15.9757 22.2887 15.1091C22.2704 13.9796 21.34 13.0787 20.2105 13.0969ZM11.9387 15.3818H10.9091V20.6864H9.8932V15.3818H8.86365V14.5091H11.9591L11.9387 15.3818ZM14.6182 20.6864H13.766V20.2841C13.4759 20.5543 13.104 20.7198 12.7092 20.7546C12.392 20.7612 12.1198 20.53 12.0751 20.2159V16.05H12.9546V19.9432C12.9546 19.9432 12.9546 20.1478 13.2342 20.1478C13.5137 20.1478 13.8001 19.8137 13.8001 19.8137V16.05H14.6455L14.6182 20.6864ZM17.1478 20.7546C16.7891 20.7578 16.4501 20.5909 16.2341 20.3046V20.6864H15.3137V14.5091H16.2273V16.5137C16.4612 16.2488 16.7887 16.085 17.141 16.0569C17.7069 16.0569 17.9182 16.5273 17.9182 17.1341L17.925 19.6773C17.925 19.6773 17.925 20.7546 17.1478 20.7546ZM21.2318 18.5591H19.4727V19.5682C19.4727 19.5682 19.4727 20.0387 19.8955 20.0387C20.3182 20.0387 20.3182 19.5682 20.3182 19.5682V19.0909H21.2319V19.8273C21.1096 20.4176 20.5641 20.8223 19.9637 20.7682C19.3417 20.8242 18.7684 20.4286 18.6 19.8273V17.1955C18.619 16.5405 19.1653 16.025 19.8202 16.0439C19.8683 16.0454 19.9161 16.0496 19.9637 16.0568C20.5713 15.9699 21.1343 16.3919 21.2213 16.9995C21.2306 17.0644 21.2341 17.13 21.2319 17.1955V18.5591H21.2318Z" fill="#212121"/>
</g>
<defs>
<clipPath id="clip0_895_4444">
<rect width="30" height="30" fill="white"/>
</clipPath>
</defs>
</svg>
